<svg width="443" height="154" viewBox="0 0 443 154" fill="none" xmlns="http://www.w3.org/2000/svg">
<path d="M10.2521 229.609C5.59145 112.431 96.6291 13.6592 213.59 8.99612C330.551 4.33309 429.145 95.5447 433.806 212.723C438.467 329.901 347.429 428.673 230.468 433.336C113.507 437.999 14.9127 346.787 10.2521 229.609Z" fill="#FFE9F9"/>
<path d="M208.676 431.344C177.981 429.42 148.43 420.81 121.751 406.262L14.292 253.13C13.109 245.351 12.3555 237.476 12.0394 229.528C11.8745 225.382 11.8299 221.246 11.9046 217.123C95.6934 159.576 170.746 90.8941 237.059 11.0802C308.607 16.1369 372.303 57.6284 406.454 120.089C402.649 136.421 397.619 151.923 391.431 166.197C377.025 199.428 356.889 220.069 330.626 231.096C309.262 240.066 285.276 242.614 251.4 241.301C244.401 241.03 238.339 240.688 226.473 239.94C193.756 237.878 180.672 237.539 164.678 239.185C143.413 241.372 126.756 247.441 113.516 258.856C97.0261 273.074 89.5915 289.587 90.8063 306.342C91.8739 321.067 99.7206 335.093 111.688 344.871C123.532 354.547 138.007 358.884 150.831 356.075C165.271 352.911 176.4 341.19 182.118 321.462C187.216 303.868 205.819 293.971 237.99 289.81C262.701 286.613 286.466 286.705 343.384 288.906C344.078 288.933 344.078 288.933 344.773 288.959C357.836 289.464 368.597 289.843 377.879 290.096C332.939 324.208 276.542 371.288 208.676 431.344ZM423.226 290.062C423.974 290.033 424.625 289.552 424.857 288.857C428.59 277.64 431.39 266.108 433.218 254.359C433.451 252.864 431.753 251.815 430.462 252.655C415.144 262.634 397.616 275.114 377.879 290.096C396.812 290.611 409.596 290.6 423.226 290.062ZM429.035 257.785C427.319 267.584 424.913 277.219 421.841 286.632C411.305 287.024 401.136 287.096 388.023 286.85C403.071 275.605 416.742 265.917 429.035 257.785ZM388.023 286.85C376.612 286.635 362.972 286.179 344.922 285.481C344.228 285.454 344.228 285.454 343.533 285.427C286.387 283.217 262.523 283.125 237.527 286.359C204.093 290.684 184.271 301.229 178.68 320.522C173.299 339.092 163.115 349.817 150.054 352.678C138.403 355.231 125.031 351.225 113.986 342.201C102.734 333.008 95.3661 319.838 94.3693 306.089C93.2355 290.45 100.2 274.98 115.88 261.461C128.5 250.581 144.465 244.764 165.046 242.646C180.763 241.029 193.732 241.365 226.235 243.413C238.13 244.163 244.213 244.507 251.251 244.78C285.614 246.111 310.073 243.513 332.034 234.292C359.171 222.898 379.965 201.582 394.721 167.546C401.074 152.891 406.217 136.978 410.085 120.218C410.178 119.813 410.12 119.39 409.921 119.023C375.131 54.9287 309.773 12.4036 236.383 7.5438C235.802 7.50531 235.237 7.74571 234.87 8.18786C168.425 88.289 93.173 157.154 9.11125 214.787C8.64575 215.106 8.3635 215.622 8.35118 216.176C8.2514 220.66 8.29073 225.16 8.47014 229.671C8.79666 237.88 9.58268 246.014 10.8198 254.048C10.8597 254.307 10.9594 254.554 11.1112 254.77L119.037 408.567C119.191 408.787 119.396 408.969 119.634 409.1C147.091 424.142 177.557 432.995 209.203 434.864C209.684 434.892 210.157 434.73 210.514 434.414C282.651 370.562 341.826 321.371 388.023 286.85Z" fill="white"/>
</svg>
