<svg width="115" height="115" viewBox="0 0 115 115" fill="none" xmlns="http://www.w3.org/2000/svg">
<path d="M12.5139 45.36C19.1943 20.4307 44.7822 5.62507 69.6661 12.2908C94.55 18.9565 109.307 44.5693 102.626 69.4986C95.946 94.428 70.3581 109.234 45.4743 102.568C20.5904 95.9021 5.83354 70.2893 12.5139 45.36Z" fill="url(#paint0_linear_1031_51501)"/>
<path d="M41.0251 100.725C34.7002 98.314 29.0532 94.5729 24.3977 89.7717L11.8255 50.567C12.0854 48.8548 12.4418 47.1506 12.8949 45.4598C13.1313 44.5778 13.3923 43.7057 13.6775 42.8441C35.0473 36.228 55.309 26.7007 74.4619 14.2629C89.1669 20.0025 99.8402 32.8856 102.934 48.244C101.067 51.4274 98.9965 54.3562 96.7629 56.9513C91.5632 62.993 85.9824 66.0143 79.7426 66.6149C74.6665 67.1035 69.4594 66.0709 62.4263 63.5806C60.9732 63.0661 59.7217 62.5979 57.2769 61.665C50.5364 59.093 47.8089 58.1666 44.3403 57.4669C39.7285 56.5366 35.8314 56.7231 32.3029 58.2565C27.9081 60.1663 25.2663 63.1505 24.4264 66.7508C23.6881 69.9151 24.4202 73.3757 26.296 76.2127C28.1525 79.0204 30.9107 80.878 33.7893 81.1258C37.0307 81.4049 40.1357 79.6693 42.6268 75.8972C44.8483 72.5332 49.4046 71.6695 56.4372 72.8979C61.8393 73.8415 66.8273 75.4142 78.6446 79.5975C78.7888 79.6485 78.7888 79.6485 78.933 79.6995C81.6452 80.6596 83.8817 81.4426 85.8159 82.1024C74.1419 86.3332 59.2126 92.5405 41.0251 100.725ZM95.3476 85.0597C95.5068 85.1024 95.675 85.0438 95.769 84.913C97.2869 82.7998 98.6292 80.5595 99.7813 78.2099C99.9279 77.911 99.6397 77.5794 99.3135 77.6718C95.442 78.7675 90.9429 80.2444 85.8159 82.1024C89.7609 83.4483 92.448 84.2817 95.3476 85.0597ZM98.6783 78.6565C97.6772 80.6034 96.5417 82.471 95.2807 84.2482C93.0411 83.6419 90.8993 82.9924 88.1598 82.0834C92.0571 80.704 95.5633 79.5617 98.6783 78.6565ZM88.1598 82.0834C85.7759 81.2923 82.9393 80.3048 79.1917 78.9783C79.0475 78.9273 79.0475 78.9273 78.9033 78.8762C67.0387 74.6763 62.0298 73.0969 56.5656 72.1425C49.2568 70.8659 44.402 71.7861 41.9658 75.4751C39.621 79.0257 36.7799 80.6137 33.8482 80.3613C31.2328 80.1362 28.6847 78.4201 26.9535 75.8019C25.1898 73.1344 24.5024 69.885 25.1916 66.9306C25.9757 63.57 28.4506 60.7743 32.6293 58.9584C35.9926 57.4968 39.7279 57.318 44.1913 58.2184C47.5998 58.906 50.3035 59.8243 56.9998 62.3795C59.4505 63.3146 60.7064 63.7845 62.1675 64.3018C69.3018 66.8279 74.6116 67.8808 79.8294 67.3786C86.2772 66.758 92.0403 63.638 97.3661 57.4499C99.6591 54.7856 101.78 51.7776 103.689 48.5084C103.735 48.4294 103.75 48.3366 103.732 48.2466C100.611 32.5031 89.656 19.2942 74.551 13.4755C74.4314 13.4294 74.297 13.4431 74.191 13.512C54.9916 26.0016 34.6759 35.5542 13.2432 42.1705C13.1245 42.2072 13.0315 42.2971 12.9927 42.4127C12.6786 43.3486 12.3927 44.2968 12.1355 45.2564C11.6675 47.0029 11.301 48.7637 11.0358 50.5328C11.0273 50.5899 11.032 50.6483 11.0498 50.7037L23.6766 90.0785C23.6947 90.1348 23.7257 90.1865 23.7673 90.2296C28.5539 95.1854 34.3776 99.0375 40.9058 101.499C41.005 101.536 41.115 101.533 41.2107 101.49C60.5439 92.7873 76.1949 86.3182 88.1598 82.0834Z" fill="white"/>
<defs>
<linearGradient id="paint0_linear_1031_51501" x1="12.5822" y1="45.3783" x2="269.407" y2="114.2" gradientUnits="userSpaceOnUse">
<stop stop-color="#300038"/>
<stop offset="1" stop-color="#AF18CA"/>
</linearGradient>
</defs>
</svg>
