<svg width="348" height="259" viewBox="0 0 348 259" fill="none"
    xmlns="http://www.w3.org/2000/svg">
    <rect x="0.514648" y="32.1684" width="341.548" height="225.947" rx="9.00787" fill="#FBFAFA" stroke="#D1D0D6" stroke-width="0.750655"/>
    <path d="M24.7812 233.72H318.288" stroke="#DFE0E3" stroke-width="0.750655" stroke-dasharray="3 2.25"/>
    <path d="M24.7812 190.933H318.288" stroke="#DFE0E3" stroke-width="0.750655" stroke-dasharray="3 2.25"/>
    <path d="M24.7812 148.145H318.288" stroke="#DFE0E3" stroke-width="0.750655" stroke-dasharray="3 2.25"/>
    <path d="M24.7812 105.357H318.288" stroke="#DFE0E3" stroke-width="0.750655" stroke-dasharray="3 2.25"/>
    <path d="M24.7812 62.5702H318.288" stroke="#DFE0E3" stroke-width="0.750655" stroke-dasharray="3 2.25"/>
    <path d="M121.616 89.2176C121.616 88.3885 122.288 87.7163 123.118 87.7163H126.12C126.949 87.7163 127.621 88.3885 127.621 89.2176V234.094H121.616V89.2176Z" fill="#FFE9F9"/>
    <path d="M130.625 71.2025C130.625 70.3734 131.297 69.7012 132.126 69.7012H135.129C135.958 69.7012 136.63 70.3734 136.63 71.2025V234.095H130.625V71.2025Z" fill="#E824B1"/>
    <path d="M34.541 178.548C34.541 177.718 35.2132 177.046 36.0423 177.046H39.0449C39.8741 177.046 40.5463 177.718 40.5463 178.548V234.096H34.541V178.548Z" fill="#FFE9F9"/>
    <path d="M43.5488 153.024C43.5488 152.195 44.221 151.522 45.0501 151.522H48.0528C48.8819 151.522 49.5541 152.195 49.5541 153.024V234.095H43.5488V153.024Z" fill="#E824B1"/>
    <path d="M78.0791 170.29C78.0791 169.461 78.7513 168.789 79.5804 168.789H82.583C83.4122 168.789 84.0843 169.461 84.0843 170.29V234.096H78.0791V170.29Z" fill="#FFE9F9"/>
    <path d="M87.0859 203.319C87.0859 202.49 87.7581 201.818 88.5872 201.818H91.5899C92.419 201.818 93.0912 202.49 93.0912 203.319V234.096H87.0859V203.319Z" fill="#E824B1"/>
    <path d="M165.155 129.003C165.155 128.174 165.827 127.502 166.657 127.502H169.659C170.488 127.502 171.161 128.174 171.161 129.003V234.095H165.155V129.003Z" fill="#FFE9F9"/>
    <path d="M174.162 172.542C174.162 171.712 174.834 171.04 175.663 171.04H178.666C179.495 171.04 180.167 171.712 180.167 172.542V234.095H174.162V172.542Z" fill="#E824B1"/>
    <path d="M208.692 114.741C208.692 113.912 209.365 113.24 210.194 113.24H213.196C214.025 113.24 214.698 113.912 214.698 114.741V234.095H208.692V114.741Z" fill="#FFE9F9"/>
    <path d="M217.7 195.06C217.7 194.231 218.372 193.559 219.202 193.559H222.204C223.033 193.559 223.705 194.231 223.705 195.06V234.094H217.7V195.06Z" fill="#E824B1"/>
    <path d="M252.229 170.29C252.229 169.461 252.902 168.789 253.731 168.789H256.733C257.563 168.789 258.235 169.461 258.235 170.29V234.096H252.229V170.29Z" fill="#FFE9F9"/>
    <path d="M261.237 181.55C261.237 180.721 261.909 180.048 262.739 180.048H265.741C266.57 180.048 267.243 180.721 267.243 181.55V234.096H261.237V181.55Z" fill="#E824B1"/>
    <path d="M295.769 89.9696C295.769 89.1405 296.441 88.4683 297.27 88.4683H300.272C301.102 88.4683 301.774 89.1405 301.774 89.9696V234.095H295.769V89.9696Z" fill="#FFE9F9"/>
    <path d="M304.776 116.242C304.776 115.413 305.449 114.741 306.278 114.741H309.28C310.109 114.741 310.782 115.413 310.782 116.242V234.095H304.776V116.242Z" fill="#E824B1"/>
    <g clip-path="url(#clip0_337_2906)">
        <g filter="url(#filter0_d_337_2906)">
            <rect x="64.5654" y="48.6824" width="150.131" height="129.863" rx="3.00262" fill="white"/>
        </g>
        <path d="M101.061 98.7039L109.208 82.5819V82.4475H99.7172V79.0504H113.507V82.4955L105.35 98.7039H101.061ZM123.798 98.9726C122.32 98.9726 121.005 98.7327 119.853 98.2529C118.708 97.7667 117.809 97.1045 117.157 96.2664C116.504 95.4283 116.178 94.4783 116.178 93.4163C116.178 92.5974 116.364 91.8457 116.735 91.1611C117.112 90.4702 117.624 89.8976 118.27 89.4433C118.916 88.9827 119.639 88.6884 120.439 88.5605V88.4261C119.39 88.215 118.539 87.7064 117.886 86.9003C117.234 86.0878 116.907 85.1441 116.907 84.0693C116.907 83.0521 117.205 82.1468 117.8 81.3535C118.395 80.5538 119.21 79.9269 120.247 79.4726C121.29 79.012 122.473 78.7817 123.798 78.7817C125.122 78.7817 126.302 79.012 127.339 79.4726C128.381 79.9333 129.2 80.5634 129.795 81.3631C130.39 82.1564 130.691 83.0585 130.697 84.0693C130.691 85.1505 130.358 86.0942 129.699 86.9003C129.04 87.7064 128.196 88.215 127.166 88.4261V88.5605C127.953 88.6884 128.666 88.9827 129.306 89.4433C129.952 89.8976 130.464 90.4702 130.841 91.1611C131.225 91.8457 131.42 92.5974 131.427 93.4163C131.42 94.4783 131.091 95.4283 130.438 96.2664C129.786 97.1045 128.884 97.7667 127.732 98.2529C126.587 98.7327 125.275 98.9726 123.798 98.9726ZM123.798 95.9209C124.457 95.9209 125.032 95.8026 125.525 95.5659C126.018 95.3228 126.401 94.9901 126.677 94.5678C126.958 94.1392 127.099 93.6466 127.099 93.09C127.099 92.5206 126.955 92.0184 126.667 91.5834C126.379 91.1419 125.989 90.7964 125.496 90.5469C125.004 90.291 124.437 90.1631 123.798 90.1631C123.164 90.1631 122.598 90.291 122.099 90.5469C121.6 90.7964 121.207 91.1419 120.919 91.5834C120.637 92.0184 120.496 92.5206 120.496 93.09C120.496 93.6466 120.634 94.1392 120.909 94.5678C121.184 94.9901 121.571 95.3228 122.07 95.5659C122.569 95.8026 123.145 95.9209 123.798 95.9209ZM123.798 87.1402C124.348 87.1402 124.837 87.0282 125.266 86.8043C125.694 86.5804 126.03 86.2701 126.273 85.8735C126.517 85.4768 126.638 85.0194 126.638 84.5012C126.638 83.9894 126.517 83.5415 126.273 83.1577C126.03 82.7674 125.698 82.4635 125.275 82.246C124.853 82.0221 124.361 81.9101 123.798 81.9101C123.241 81.9101 122.748 82.0221 122.32 82.246C121.891 82.4635 121.555 82.7674 121.312 83.1577C121.075 83.5415 120.957 83.9894 120.957 84.5012C120.957 85.0194 121.079 85.4768 121.322 85.8735C121.565 86.2701 121.901 86.5804 122.329 86.8043C122.758 87.0282 123.247 87.1402 123.798 87.1402ZM136.712 98.9534C136.079 98.9534 135.535 98.7295 135.081 98.2817C134.633 97.8274 134.409 97.2836 134.409 96.6503C134.409 96.0233 134.633 95.4859 135.081 95.0381C135.535 94.5902 136.079 94.3663 136.712 94.3663C137.327 94.3663 137.864 94.5902 138.325 95.0381C138.785 95.4859 139.016 96.0233 139.016 96.6503C139.016 97.0725 138.907 97.4596 138.689 97.8114C138.478 98.1569 138.2 98.4352 137.854 98.6463C137.509 98.8511 137.128 98.9534 136.712 98.9534ZM142.84 98.7039V95.7098L149.836 89.2322C150.431 88.6564 150.93 88.1382 151.333 87.6776C151.743 87.217 152.053 86.7659 152.264 86.3245C152.475 85.8767 152.581 85.3936 152.581 84.8754C152.581 84.2997 152.45 83.8038 152.187 83.388C151.925 82.9657 151.567 82.6427 151.112 82.4187C150.658 82.1884 150.143 82.0733 149.567 82.0733C148.966 82.0733 148.441 82.1948 147.994 82.4379C147.546 82.6811 147.2 83.0297 146.957 83.484C146.714 83.9382 146.592 84.4788 146.592 85.1058H142.648C142.648 83.8198 142.939 82.7034 143.522 81.7566C144.104 80.8097 144.92 80.0772 145.969 79.559C147.018 79.0408 148.227 78.7817 149.596 78.7817C151.004 78.7817 152.229 79.0312 153.272 79.5302C154.321 80.0228 155.137 80.7074 155.719 81.5839C156.301 82.4603 156.592 83.4648 156.592 84.5971C156.592 85.3393 156.445 86.0718 156.151 86.7947C155.863 87.5177 155.348 88.3206 154.606 89.2034C153.863 90.0799 152.817 91.1323 151.467 92.3607L148.598 95.1724V95.3068H156.851V98.7039H142.84ZM171.126 95.0189V93.9825C171.126 93.1956 171.293 92.4726 171.625 91.8137C171.964 91.1483 172.454 90.6173 173.094 90.2207C173.74 89.8176 174.527 89.6161 175.454 89.6161C176.395 89.6161 177.185 89.8144 177.825 90.2111C178.471 90.6077 178.957 91.1387 179.283 91.8041C179.616 92.463 179.782 93.1892 179.782 93.9825V95.0189C179.782 95.8058 179.616 96.5319 179.283 97.1973C178.951 97.8562 178.461 98.384 177.815 98.7807C177.169 99.1837 176.382 99.3853 175.454 99.3853C174.514 99.3853 173.724 99.1837 173.084 98.7807C172.444 98.384 171.958 97.8562 171.625 97.1973C171.293 96.5319 171.126 95.8058 171.126 95.0189ZM173.919 93.9825V95.0189C173.919 95.4731 174.028 95.9018 174.245 96.3048C174.469 96.7079 174.872 96.9094 175.454 96.9094C176.036 96.9094 176.433 96.7111 176.644 96.3144C176.862 95.9178 176.971 95.4859 176.971 95.0189V93.9825C176.971 93.5154 176.868 93.0804 176.663 92.6773C176.459 92.2743 176.056 92.0728 175.454 92.0728C174.879 92.0728 174.479 92.2743 174.255 92.6773C174.031 93.0804 173.919 93.5154 173.919 93.9825ZM161.04 83.7718V82.7354C161.04 81.9421 161.21 81.216 161.549 80.557C161.888 79.8917 162.378 79.3607 163.017 78.964C163.663 78.5674 164.444 78.369 165.359 78.369C166.306 78.369 167.099 78.5674 167.739 78.964C168.379 79.3607 168.865 79.8917 169.197 80.557C169.53 81.216 169.696 81.9421 169.696 82.7354V83.7718C169.696 84.5652 169.527 85.2913 169.188 85.9502C168.855 86.6092 168.366 87.137 167.72 87.5337C167.08 87.9239 166.293 88.119 165.359 88.119C164.425 88.119 163.635 87.9207 162.989 87.5241C162.349 87.121 161.863 86.5932 161.53 85.9406C161.204 85.2817 161.04 84.5588 161.04 83.7718ZM163.852 82.7354V83.7718C163.852 84.2389 163.961 84.6707 164.178 85.0674C164.402 85.464 164.796 85.6623 165.359 85.6623C165.947 85.6623 166.347 85.464 166.558 85.0674C166.776 84.6707 166.885 84.2389 166.885 83.7718V82.7354C166.885 82.2684 166.782 81.8334 166.578 81.4303C166.373 81.0273 165.967 80.8257 165.359 80.8257C164.789 80.8257 164.396 81.0305 164.178 81.4399C163.961 81.8494 163.852 82.2812 163.852 82.7354ZM162.307 98.7039L175.819 79.0504H178.333L164.821 98.7039H162.307Z" fill="#3B3A40"/>
        <path d="M104.959 114.165V113.344H110.692V114.165H108.288V120.987H107.363V114.165H104.959ZM111.603 120.987V115.254H112.453V116.12H112.513C112.618 115.837 112.807 115.606 113.08 115.43C113.354 115.253 113.663 115.165 114.006 115.165C114.071 115.165 114.151 115.166 114.248 115.169C114.346 115.171 114.419 115.175 114.469 115.18V116.075C114.439 116.068 114.37 116.057 114.263 116.042C114.159 116.024 114.048 116.016 113.931 116.016C113.653 116.016 113.404 116.074 113.185 116.191C112.968 116.306 112.797 116.465 112.67 116.669C112.545 116.87 112.483 117.1 112.483 117.359V120.987H111.603ZM117.397 121.121C117.033 121.121 116.704 121.053 116.408 120.916C116.112 120.776 115.876 120.576 115.702 120.315C115.528 120.051 115.441 119.733 115.441 119.36C115.441 119.031 115.506 118.765 115.635 118.561C115.764 118.354 115.937 118.193 116.154 118.076C116.37 117.959 116.609 117.872 116.87 117.814C117.134 117.755 117.399 117.707 117.665 117.673C118.014 117.628 118.296 117.594 118.512 117.572C118.731 117.547 118.891 117.506 118.99 117.449C119.092 117.392 119.143 117.292 119.143 117.15V117.12C119.143 116.752 119.042 116.466 118.841 116.262C118.642 116.058 118.34 115.956 117.934 115.956C117.514 115.956 117.184 116.048 116.945 116.232C116.706 116.416 116.538 116.613 116.441 116.822L115.605 116.523C115.755 116.175 115.954 115.904 116.202 115.71C116.454 115.513 116.727 115.376 117.023 115.299C117.322 115.22 117.616 115.18 117.904 115.18C118.088 115.18 118.3 115.202 118.539 115.247C118.78 115.289 119.013 115.378 119.236 115.512C119.463 115.646 119.651 115.849 119.8 116.12C119.949 116.391 120.024 116.755 120.024 117.21V120.987H119.143V120.21H119.098C119.039 120.335 118.939 120.468 118.8 120.61C118.66 120.752 118.475 120.872 118.244 120.972C118.012 121.071 117.73 121.121 117.397 121.121ZM117.531 120.33C117.879 120.33 118.173 120.261 118.412 120.125C118.653 119.988 118.835 119.811 118.957 119.595C119.081 119.378 119.143 119.151 119.143 118.912V118.106C119.106 118.15 119.024 118.191 118.897 118.229C118.772 118.264 118.628 118.295 118.464 118.322C118.302 118.347 118.144 118.369 117.99 118.389C117.838 118.407 117.715 118.422 117.621 118.434C117.392 118.464 117.178 118.512 116.979 118.58C116.782 118.644 116.623 118.742 116.501 118.874C116.381 119.004 116.322 119.18 116.322 119.404C116.322 119.71 116.435 119.942 116.661 120.098C116.89 120.253 117.18 120.33 117.531 120.33ZM122.709 117.538V120.987H121.828V115.254H122.679V116.15H122.754C122.888 115.859 123.092 115.625 123.366 115.448C123.64 115.269 123.993 115.18 124.426 115.18C124.814 115.18 125.154 115.259 125.445 115.419C125.736 115.575 125.962 115.814 126.124 116.135C126.286 116.454 126.367 116.857 126.367 117.344V120.987H125.486V117.404C125.486 116.954 125.369 116.603 125.135 116.352C124.901 116.098 124.58 115.971 124.172 115.971C123.891 115.971 123.64 116.032 123.418 116.154C123.199 116.276 123.026 116.454 122.9 116.687C122.773 116.921 122.709 117.205 122.709 117.538ZM132.233 116.538L131.442 116.762C131.392 116.63 131.319 116.502 131.222 116.378C131.127 116.251 130.998 116.146 130.834 116.064C130.67 115.982 130.459 115.941 130.203 115.941C129.852 115.941 129.56 116.022 129.326 116.184C129.095 116.343 128.979 116.546 128.979 116.792C128.979 117.011 129.059 117.184 129.218 117.311C129.377 117.438 129.626 117.543 129.964 117.628L130.815 117.837C131.328 117.961 131.71 118.152 131.961 118.408C132.212 118.662 132.338 118.989 132.338 119.389C132.338 119.718 132.243 120.011 132.054 120.27C131.868 120.529 131.606 120.733 131.27 120.882C130.935 121.031 130.544 121.106 130.099 121.106C129.514 121.106 129.03 120.979 128.647 120.725C128.264 120.472 128.021 120.101 127.919 119.613L128.755 119.404C128.835 119.713 128.985 119.944 129.207 120.098C129.431 120.253 129.723 120.33 130.084 120.33C130.494 120.33 130.82 120.243 131.062 120.069C131.305 119.892 131.427 119.68 131.427 119.434C131.427 119.235 131.358 119.068 131.218 118.934C131.079 118.797 130.865 118.695 130.576 118.628L129.621 118.404C129.096 118.28 128.71 118.087 128.464 117.826C128.22 117.562 128.098 117.232 128.098 116.837C128.098 116.513 128.189 116.227 128.371 115.978C128.555 115.73 128.805 115.534 129.121 115.392C129.439 115.251 129.8 115.18 130.203 115.18C130.77 115.18 131.216 115.304 131.539 115.553C131.865 115.802 132.096 116.13 132.233 116.538ZM135.547 121.121C135.184 121.121 134.855 121.053 134.559 120.916C134.262 120.776 134.027 120.576 133.853 120.315C133.679 120.051 133.592 119.733 133.592 119.36C133.592 119.031 133.657 118.765 133.786 118.561C133.915 118.354 134.088 118.193 134.305 118.076C134.521 117.959 134.76 117.872 135.021 117.814C135.285 117.755 135.55 117.707 135.816 117.673C136.165 117.628 136.447 117.594 136.663 117.572C136.882 117.547 137.042 117.506 137.141 117.449C137.243 117.392 137.294 117.292 137.294 117.15V117.12C137.294 116.752 137.193 116.466 136.992 116.262C136.793 116.058 136.49 115.956 136.085 115.956C135.664 115.956 135.335 116.048 135.096 116.232C134.857 116.416 134.689 116.613 134.592 116.822L133.756 116.523C133.905 116.175 134.104 115.904 134.353 115.71C134.605 115.513 134.878 115.376 135.174 115.299C135.473 115.22 135.766 115.18 136.055 115.18C136.239 115.18 136.451 115.202 136.689 115.247C136.931 115.289 137.163 115.378 137.387 115.512C137.614 115.646 137.802 115.849 137.951 116.12C138.1 116.391 138.175 116.755 138.175 117.21V120.987H137.294V120.21H137.249C137.19 120.335 137.09 120.468 136.951 120.61C136.811 120.752 136.626 120.872 136.395 120.972C136.163 121.071 135.881 121.121 135.547 121.121ZM135.682 120.33C136.03 120.33 136.324 120.261 136.563 120.125C136.804 119.988 136.986 119.811 137.107 119.595C137.232 119.378 137.294 119.151 137.294 118.912V118.106C137.257 118.15 137.175 118.191 137.048 118.229C136.923 118.264 136.779 118.295 136.615 118.322C136.453 118.347 136.295 118.369 136.141 118.389C135.989 118.407 135.866 118.422 135.771 118.434C135.543 118.464 135.329 118.512 135.13 118.58C134.933 118.644 134.774 118.742 134.652 118.874C134.532 119.004 134.473 119.18 134.473 119.404C134.473 119.71 134.586 119.942 134.812 120.098C135.041 120.253 135.331 120.33 135.682 120.33ZM142.308 121.106C141.771 121.106 141.308 120.979 140.92 120.725C140.532 120.472 140.233 120.122 140.024 119.677C139.815 119.231 139.711 118.723 139.711 118.15C139.711 117.568 139.818 117.054 140.032 116.609C140.248 116.161 140.549 115.812 140.935 115.56C141.323 115.307 141.776 115.18 142.293 115.18C142.696 115.18 143.059 115.254 143.383 115.404C143.706 115.553 143.971 115.762 144.178 116.031C144.384 116.299 144.512 116.613 144.562 116.971H143.681C143.614 116.71 143.465 116.478 143.234 116.277C143.005 116.073 142.696 115.971 142.308 115.971C141.965 115.971 141.664 116.06 141.405 116.24C141.149 116.416 140.948 116.666 140.804 116.99C140.662 117.311 140.591 117.688 140.591 118.12C140.591 118.563 140.661 118.949 140.8 119.277C140.942 119.606 141.141 119.861 141.398 120.042C141.656 120.224 141.96 120.315 142.308 120.315C142.537 120.315 142.745 120.275 142.931 120.195C143.118 120.116 143.276 120.001 143.405 119.852C143.535 119.703 143.627 119.524 143.681 119.315H144.562C144.512 119.653 144.389 119.958 144.193 120.229C143.999 120.498 143.741 120.712 143.42 120.871C143.102 121.028 142.731 121.106 142.308 121.106ZM148.54 115.254V116.001H145.569V115.254H148.54ZM146.435 113.881H147.316V119.345C147.316 119.593 147.352 119.78 147.424 119.904C147.499 120.026 147.593 120.108 147.708 120.151C147.824 120.19 147.948 120.21 148.077 120.21C148.174 120.21 148.254 120.205 148.316 120.195C148.378 120.183 148.428 120.173 148.465 120.166L148.644 120.957C148.585 120.979 148.501 121.002 148.394 121.024C148.287 121.049 148.152 121.061 147.987 121.061C147.739 121.061 147.495 121.008 147.256 120.901C147.02 120.794 146.823 120.631 146.666 120.412C146.512 120.193 146.435 119.917 146.435 119.583V113.881ZM150.062 120.987V115.254H150.942V120.987H150.062ZM150.509 114.299C150.338 114.299 150.19 114.241 150.065 114.124C149.943 114.007 149.882 113.866 149.882 113.702C149.882 113.538 149.943 113.397 150.065 113.28C150.19 113.163 150.338 113.105 150.509 113.105C150.681 113.105 150.828 113.163 150.95 113.28C151.074 113.397 151.136 113.538 151.136 113.702C151.136 113.866 151.074 114.007 150.95 114.124C150.828 114.241 150.681 114.299 150.509 114.299ZM155.081 121.106C154.564 121.106 154.11 120.983 153.719 120.737C153.331 120.49 153.027 120.146 152.809 119.703C152.592 119.26 152.484 118.742 152.484 118.15C152.484 117.553 152.592 117.032 152.809 116.587C153.027 116.141 153.331 115.795 153.719 115.549C154.11 115.303 154.564 115.18 155.081 115.18C155.599 115.18 156.052 115.303 156.44 115.549C156.83 115.795 157.134 116.141 157.35 116.587C157.569 117.032 157.679 117.553 157.679 118.15C157.679 118.742 157.569 119.26 157.35 119.703C157.134 120.146 156.83 120.49 156.44 120.737C156.052 120.983 155.599 121.106 155.081 121.106ZM155.081 120.315C155.474 120.315 155.798 120.214 156.052 120.013C156.305 119.811 156.493 119.546 156.615 119.218C156.737 118.889 156.798 118.533 156.798 118.15C156.798 117.767 156.737 117.41 156.615 117.079C156.493 116.748 156.305 116.481 156.052 116.277C155.798 116.073 155.474 115.971 155.081 115.971C154.688 115.971 154.365 116.073 154.111 116.277C153.857 116.481 153.669 116.748 153.547 117.079C153.426 117.41 153.365 117.767 153.365 118.15C153.365 118.533 153.426 118.889 153.547 119.218C153.669 119.546 153.857 119.811 154.111 120.013C154.365 120.214 154.688 120.315 155.081 120.315ZM160.101 117.538V120.987H159.22V115.254H160.071V116.15H160.146C160.28 115.859 160.484 115.625 160.758 115.448C161.031 115.269 161.385 115.18 161.818 115.18C162.206 115.18 162.545 115.259 162.836 115.419C163.128 115.575 163.354 115.814 163.516 116.135C163.677 116.454 163.758 116.857 163.758 117.344V120.987H162.878V117.404C162.878 116.954 162.761 116.603 162.527 116.352C162.293 116.098 161.972 115.971 161.564 115.971C161.283 115.971 161.031 116.032 160.81 116.154C160.591 116.276 160.418 116.454 160.291 116.687C160.164 116.921 160.101 117.205 160.101 117.538ZM169.625 116.538L168.834 116.762C168.784 116.63 168.711 116.502 168.614 116.378C168.519 116.251 168.39 116.146 168.226 116.064C168.061 115.982 167.851 115.941 167.595 115.941C167.244 115.941 166.952 116.022 166.718 116.184C166.486 116.343 166.371 116.546 166.371 116.792C166.371 117.011 166.45 117.184 166.61 117.311C166.769 117.438 167.018 117.543 167.356 117.628L168.207 117.837C168.719 117.961 169.101 118.152 169.353 118.408C169.604 118.662 169.73 118.989 169.73 119.389C169.73 119.718 169.635 120.011 169.446 120.27C169.259 120.529 168.998 120.733 168.662 120.882C168.326 121.031 167.936 121.106 167.49 121.106C166.906 121.106 166.422 120.979 166.039 120.725C165.656 120.472 165.413 120.101 165.311 119.613L166.147 119.404C166.227 119.713 166.377 119.944 166.598 120.098C166.822 120.253 167.115 120.33 167.475 120.33C167.886 120.33 168.212 120.243 168.453 120.069C168.697 119.892 168.819 119.68 168.819 119.434C168.819 119.235 168.749 119.068 168.61 118.934C168.471 118.797 168.257 118.695 167.968 118.628L167.013 118.404C166.488 118.28 166.102 118.087 165.856 117.826C165.612 117.562 165.49 117.232 165.49 116.837C165.49 116.513 165.581 116.227 165.762 115.978C165.947 115.73 166.197 115.534 166.513 115.392C166.831 115.251 167.192 115.18 167.595 115.18C168.162 115.18 168.607 115.304 168.931 115.553C169.257 115.802 169.488 116.13 169.625 116.538Z" fill="#8E8C95"/>
        <g clip-path="url(#clip1_337_2906)">
            <path d="M126.799 151.764V150.764L129.453 148.163C129.707 147.906 129.918 147.679 130.087 147.48C130.256 147.281 130.383 147.088 130.468 146.901C130.552 146.715 130.595 146.516 130.595 146.304C130.595 146.063 130.54 145.856 130.431 145.685C130.321 145.51 130.171 145.376 129.979 145.282C129.787 145.187 129.57 145.14 129.326 145.14C129.075 145.14 128.854 145.192 128.665 145.297C128.476 145.399 128.329 145.544 128.225 145.733C128.123 145.922 128.072 146.147 128.072 146.409H126.755C126.755 145.923 126.865 145.502 127.087 145.143C127.308 144.785 127.613 144.508 128.001 144.311C128.392 144.115 128.839 144.016 129.345 144.016C129.857 144.016 130.307 144.112 130.695 144.304C131.084 144.495 131.385 144.758 131.599 145.091C131.815 145.425 131.923 145.805 131.923 146.233C131.923 146.519 131.869 146.8 131.759 147.077C131.65 147.353 131.457 147.659 131.181 147.995C130.907 148.331 130.523 148.737 130.027 149.215L128.71 150.555V150.607H132.039V151.764H126.799ZM136.323 151.868C135.957 151.866 135.6 151.803 135.251 151.678C134.903 151.551 134.59 151.346 134.311 151.062C134.032 150.776 133.811 150.397 133.647 149.924C133.483 149.449 133.402 148.861 133.404 148.159C133.404 147.505 133.474 146.921 133.613 146.409C133.752 145.896 133.953 145.463 134.214 145.11C134.475 144.754 134.79 144.483 135.158 144.296C135.529 144.11 135.943 144.016 136.401 144.016C136.881 144.016 137.307 144.111 137.677 144.3C138.05 144.489 138.351 144.748 138.58 145.076C138.809 145.402 138.951 145.77 139.006 146.181H137.644C137.574 145.887 137.431 145.654 137.214 145.479C137 145.303 136.729 145.214 136.401 145.214C135.871 145.214 135.463 145.445 135.177 145.905C134.893 146.365 134.75 146.997 134.748 147.801H134.8C134.922 147.582 135.08 147.394 135.274 147.237C135.468 147.08 135.687 146.96 135.931 146.875C136.177 146.788 136.437 146.745 136.711 146.745C137.158 146.745 137.56 146.851 137.916 147.065C138.274 147.279 138.558 147.574 138.767 147.95C138.976 148.323 139.079 148.751 139.077 149.234C139.079 149.736 138.965 150.188 138.733 150.588C138.502 150.986 138.18 151.3 137.767 151.529C137.354 151.758 136.872 151.871 136.323 151.868ZM136.315 150.749C136.586 150.749 136.829 150.683 137.043 150.551C137.257 150.419 137.426 150.241 137.55 150.017C137.675 149.794 137.736 149.542 137.733 149.264C137.736 148.99 137.676 148.742 137.554 148.521C137.435 148.299 137.269 148.124 137.058 147.995C136.846 147.865 136.605 147.801 136.334 147.801C136.132 147.801 135.944 147.839 135.77 147.916C135.596 147.993 135.444 148.1 135.315 148.237C135.186 148.372 135.084 148.528 135.009 148.708C134.937 148.884 134.899 149.073 134.897 149.275C134.899 149.541 134.962 149.786 135.084 150.01C135.205 150.234 135.373 150.413 135.587 150.547C135.801 150.682 136.044 150.749 136.315 150.749ZM141.054 151.846C140.827 151.846 140.633 151.766 140.472 151.607C140.31 151.448 140.23 151.254 140.233 151.025C140.23 150.801 140.31 150.61 140.472 150.45C140.633 150.291 140.827 150.211 141.054 150.211C141.273 150.211 141.463 150.291 141.625 150.45C141.789 150.61 141.872 150.801 141.875 151.025C141.872 151.177 141.833 151.315 141.756 151.439C141.681 151.564 141.581 151.663 141.457 151.738C141.335 151.81 141.201 151.846 141.054 151.846ZM145.881 151.868C145.327 151.868 144.834 151.775 144.404 151.589C143.976 151.402 143.64 151.147 143.396 150.824C143.155 150.498 143.035 150.128 143.038 149.715C143.035 149.394 143.105 149.099 143.247 148.831C143.388 148.562 143.58 148.338 143.821 148.159C144.065 147.977 144.336 147.862 144.635 147.812V147.76C144.242 147.673 143.923 147.472 143.68 147.159C143.438 146.843 143.319 146.478 143.321 146.065C143.319 145.672 143.428 145.321 143.65 145.013C143.871 144.704 144.175 144.462 144.56 144.285C144.946 144.106 145.386 144.016 145.881 144.016C146.371 144.016 146.808 144.106 147.191 144.285C147.577 144.462 147.88 144.704 148.102 145.013C148.326 145.321 148.438 145.672 148.438 146.065C148.438 146.478 148.315 146.843 148.068 147.159C147.824 147.472 147.51 147.673 147.124 147.76V147.812C147.423 147.862 147.691 147.977 147.93 148.159C148.172 148.338 148.363 148.562 148.505 148.831C148.649 149.099 148.721 149.394 148.721 149.715C148.721 150.128 148.599 150.498 148.356 150.824C148.112 151.147 147.776 151.402 147.348 151.589C146.923 151.775 146.434 151.868 145.881 151.868ZM145.881 150.801C146.167 150.801 146.416 150.753 146.628 150.656C146.839 150.556 147.003 150.417 147.12 150.238C147.237 150.058 147.297 149.852 147.3 149.618C147.297 149.374 147.234 149.159 147.109 148.972C146.987 148.783 146.819 148.635 146.605 148.528C146.394 148.421 146.153 148.368 145.881 148.368C145.608 148.368 145.364 148.421 145.15 148.528C144.936 148.635 144.767 148.783 144.642 148.972C144.52 149.159 144.461 149.374 144.463 149.618C144.461 149.852 144.518 150.058 144.635 150.238C144.752 150.414 144.916 150.552 145.128 150.652C145.341 150.751 145.593 150.801 145.881 150.801ZM145.881 147.319C146.115 147.319 146.322 147.272 146.501 147.177C146.682 147.083 146.826 146.951 146.93 146.782C147.035 146.613 147.088 146.417 147.091 146.196C147.088 145.977 147.036 145.785 146.934 145.621C146.832 145.454 146.69 145.326 146.508 145.237C146.327 145.145 146.118 145.099 145.881 145.099C145.64 145.099 145.427 145.145 145.243 145.237C145.062 145.326 144.92 145.454 144.818 145.621C144.718 145.785 144.67 145.977 144.672 146.196C144.67 146.417 144.719 146.613 144.821 146.782C144.926 146.949 145.069 147.08 145.251 147.177C145.435 147.272 145.645 147.319 145.881 147.319ZM152.888 151.868C152.351 151.868 151.873 151.776 151.455 151.592C151.04 151.408 150.711 151.152 150.47 150.824C150.229 150.495 150.101 150.116 150.086 149.685H151.489C151.501 149.892 151.57 150.072 151.694 150.226C151.818 150.378 151.984 150.496 152.19 150.581C152.397 150.666 152.628 150.708 152.885 150.708C153.158 150.708 153.401 150.661 153.612 150.566C153.824 150.469 153.989 150.335 154.109 150.163C154.228 149.991 154.287 149.794 154.284 149.57C154.287 149.338 154.227 149.134 154.105 148.958C153.983 148.781 153.806 148.643 153.575 148.543C153.346 148.444 153.07 148.394 152.746 148.394H152.071V147.327H152.746C153.013 147.327 153.245 147.281 153.444 147.189C153.646 147.097 153.804 146.967 153.918 146.8C154.033 146.631 154.089 146.436 154.086 146.215C154.089 145.998 154.04 145.81 153.941 145.651C153.844 145.489 153.706 145.364 153.526 145.274C153.35 145.185 153.142 145.14 152.903 145.14C152.669 145.14 152.453 145.182 152.254 145.267C152.055 145.351 151.894 145.472 151.772 145.629C151.651 145.783 151.586 145.967 151.578 146.181H150.246C150.256 145.753 150.379 145.377 150.616 145.054C150.854 144.728 151.173 144.474 151.571 144.293C151.969 144.108 152.416 144.016 152.911 144.016C153.421 144.016 153.864 144.112 154.239 144.304C154.617 144.493 154.91 144.748 155.116 145.069C155.323 145.39 155.426 145.744 155.426 146.132C155.429 146.563 155.302 146.924 155.045 147.215C154.792 147.506 154.458 147.696 154.045 147.786V147.845C154.583 147.92 154.994 148.119 155.28 148.443C155.569 148.763 155.712 149.163 155.71 149.64C155.71 150.068 155.588 150.452 155.344 150.79C155.103 151.126 154.769 151.39 154.344 151.581C153.921 151.773 153.436 151.868 152.888 151.868ZM161.274 150.331V149.928C161.274 149.632 161.336 149.359 161.461 149.111C161.588 148.862 161.772 148.661 162.013 148.51C162.254 148.358 162.547 148.282 162.89 148.282C163.243 148.282 163.539 148.358 163.778 148.51C164.017 148.659 164.198 148.858 164.319 149.107C164.444 149.356 164.506 149.629 164.506 149.928V150.331C164.506 150.627 164.444 150.899 164.319 151.148C164.195 151.397 164.012 151.597 163.771 151.749C163.532 151.901 163.238 151.977 162.89 151.977C162.542 151.977 162.247 151.901 162.006 151.749C161.764 151.597 161.581 151.397 161.457 151.148C161.335 150.899 161.274 150.627 161.274 150.331ZM162.248 149.928V150.331C162.248 150.527 162.295 150.708 162.39 150.872C162.485 151.036 162.651 151.118 162.89 151.118C163.131 151.118 163.297 151.037 163.386 150.876C163.479 150.712 163.525 150.53 163.525 150.331V149.928C163.525 149.729 163.481 149.547 163.394 149.383C163.307 149.216 163.139 149.133 162.89 149.133C162.656 149.133 162.491 149.216 162.394 149.383C162.297 149.547 162.248 149.729 162.248 149.928ZM157.389 145.957V145.554C157.389 145.255 157.453 144.982 157.58 144.733C157.706 144.484 157.891 144.285 158.132 144.136C158.373 143.984 158.666 143.908 159.009 143.908C159.36 143.908 159.655 143.984 159.893 144.136C160.135 144.285 160.316 144.484 160.438 144.733C160.56 144.982 160.621 145.255 160.621 145.554V145.957C160.621 146.256 160.559 146.529 160.434 146.778C160.313 147.024 160.131 147.222 159.89 147.371C159.648 147.521 159.355 147.595 159.009 147.595C158.658 147.595 158.362 147.521 158.121 147.371C157.882 147.222 157.7 147.023 157.576 146.774C157.451 146.526 157.389 146.253 157.389 145.957ZM158.371 145.554V145.957C158.371 146.156 158.417 146.338 158.509 146.502C158.603 146.664 158.77 146.745 159.009 146.745C159.248 146.745 159.412 146.664 159.501 146.502C159.594 146.338 159.64 146.156 159.64 145.957V145.554C159.64 145.355 159.596 145.173 159.509 145.009C159.422 144.842 159.255 144.759 159.009 144.759C158.773 144.759 158.607 144.842 158.513 145.009C158.418 145.176 158.371 145.357 158.371 145.554ZM157.815 151.764L163.069 144.121H164.002L158.748 151.764H157.815Z" fill="#27884D"/>
            <path d="M119.365 149.271L115.612 145.518L111.858 149.271" stroke="#27884D" stroke-width="1.50131" stroke-linejoin="round"/>
            <path d="M115.612 145.893V151.898" stroke="#27884D" stroke-width="1.50131" stroke-linejoin="round"/>
        </g>
    </g>
    <rect x="278.435" y="0.640869" width="69.0603" height="69.0603" rx="34.5301" fill="#FFE9F9" stroke="#FFE9F9" stroke-width="0.750655"/>
    <path fill-rule="evenodd" clip-rule="evenodd" d="M299.682 31.1263C296.604 39.2563 300.709 48.4123 308.919 51.4117C317.128 54.4111 326.207 50.3067 329.207 42.1767C332.206 34.0468 328.101 24.8907 319.97 21.8913C318.234 21.1809 316.339 20.8652 314.444 20.8652C313.715 20.8652 312.947 20.9448 312.195 21.0758C311.888 21.1293 312.195 35.1706 312.195 35.1706L299.682 31.1263Z" fill="white"/>
    <path d="M314.445 19.7399C316.554 19.7399 318.578 20.1058 320.36 20.8356C329.051 24.0416 333.487 33.83 330.263 42.5672C327.052 51.271 317.334 55.6854 308.532 52.47C299.846 49.2965 295.409 39.6645 298.533 30.9907L298.63 30.7282L300.736 31.5257C297.868 39.0976 301.712 47.5809 309.305 50.3548C316.947 53.1468 325.371 49.3205 328.15 41.7876C330.946 34.2113 327.099 25.7216 319.544 22.9341C318.008 22.3055 316.273 21.9918 314.445 21.9918C313.919 21.9918 313.347 22.0385 312.749 22.1274L312.388 22.1858L312.002 19.9672C312.851 19.8193 313.677 19.7399 314.445 19.7399Z" fill="#3B3A40"/>
    <path fill-rule="evenodd" clip-rule="evenodd" d="M301.091 20.6195C304.295 18.1363 308.217 16.7804 312.215 16.7804C312.837 16.7804 313.341 17.2845 313.341 17.9064V35.1715C313.341 35.9139 312.635 36.4531 311.919 36.2578L295.404 31.7538C294.807 31.591 294.453 30.9769 294.612 30.3788C295.643 26.4914 297.944 23.04 301.091 20.6195ZM311.089 33.6956V19.0728L310.821 19.0945C307.814 19.3661 304.907 20.5107 302.468 22.4012C300.079 24.2389 298.244 26.7576 297.209 29.6143L297.114 29.8845L311.089 33.6956Z" fill="#3B3A40"/>
    <defs>
        <filter id="filter0_d_337_2906" x="4.513" y="11.1497" width="270.236" height="249.968" filterUnits="userSpaceOnUse" color-interpolation-filters="sRGB">
            <feFlood flood-opacity="0" result="BackgroundImageFix"/>
            <feColorMatrix in="SourceAlpha" type="matrix" values="0 0 0 0 0 0 0 0 0 0 0 0 0 0 0 0 0 0 127 0" result="hardAlpha"/>
            <feOffset dy="22.5197"/>
            <feGaussianBlur stdDeviation="30.0262"/>
            <feColorMatrix type="matrix" values="0 0 0 0 0 0 0 0 0 0 0 0 0 0 0 0 0 0 0.1 0"/>
            <feBlend mode="normal" in2="BackgroundImageFix" result="effect1_dropShadow_337_2906"/>
            <feBlend mode="normal" in="SourceGraphic" in2="effect1_dropShadow_337_2906" result="shape"/>
        </filter>
        <clipPath id="clip0_337_2906">
            <rect width="150.131" height="129.863" fill="white" transform="translate(64.5654 48.6824)"/>
        </clipPath>
        <clipPath id="clip1_337_2906">
            <rect width="51.7952" height="12.7611" fill="white" transform="translate(111.107 141.764)"/>
        </clipPath>
    </defs>
</svg>
    