<svg width="319" height="332" viewBox="0 0 319 332" fill="none"
    xmlns="http://www.w3.org/2000/svg">
    <path d="M165.382 330.236C256.421 330.236 330.223 256.484 330.223 165.505C330.223 74.5266 256.421 0.773926 165.382 0.773926C74.3428 0.773926 0.541016 74.5266 0.541016 165.505C0.541016 256.484 74.3428 330.236 165.382 330.236Z" fill="#F1EEE8"/>
    <path d="M2.75404 182.369C5.19514 206.149 12.7881 228.832 24.8981 249.102L147.005 327.827C153.076 328.505 159.208 328.847 165.383 328.847C168.604 328.847 171.814 328.754 175.01 328.569C217.057 261.719 268.013 201.31 327.874 147.345C321.739 91.9355 287.584 43.7496 238.077 19.1561C225.526 22.6157 213.657 27.0009 202.776 32.2477C177.445 44.4624 162.056 60.7381 154.315 81.4746C148.017 98.3439 146.783 117.051 148.848 143.319C149.275 148.746 149.728 153.443 150.675 162.636C153.287 187.98 153.954 198.131 153.172 210.603C152.133 227.186 147.94 240.309 139.495 250.944C128.977 264.19 116.397 270.474 103.363 270.048C91.9078 269.674 80.7847 264.013 72.8302 255.021C64.9579 246.121 61.1461 235.014 62.929 224.968C64.9367 213.656 73.6844 204.65 88.8106 199.601C102.3 195.098 109.402 180.344 111.635 155.232C113.351 135.941 112.545 117.488 109.077 73.3526C109.035 72.8141 109.035 72.8141 108.992 72.2755C108.197 62.1459 107.57 53.8006 107.087 46.5994C82.0164 82.555 47.2403 127.808 2.75404 182.369ZM105.711 11.3811C105.71 10.7991 106.064 10.2787 106.595 10.0777C115.181 6.83147 124.039 4.30063 133.097 2.51811C134.249 2.29133 135.116 3.57762 134.503 4.60591C127.236 16.811 118.098 30.8086 107.087 46.5994C106.102 31.9118 105.715 21.9835 105.711 11.3811ZM130.568 5.87266C123.021 7.50805 115.621 9.67423 108.414 12.3512C108.436 20.5454 108.695 28.4453 109.291 38.6212C117.548 26.5876 124.641 15.6713 130.568 5.87266ZM109.291 38.6212C109.811 47.4766 110.587 58.0557 111.686 72.0522C111.728 72.5907 111.728 72.5907 111.771 73.1292C115.252 117.442 116.062 135.972 114.326 155.484C112.005 181.584 104.438 197.303 89.6457 202.241C75.4075 206.994 67.4034 215.235 65.5875 225.466C63.9676 234.594 67.489 244.855 74.83 253.154C82.3092 261.609 92.7533 266.924 103.449 267.273C115.615 267.671 127.4 261.784 137.401 249.189C145.451 239.052 149.47 226.473 150.475 210.425C151.244 198.169 150.582 188.106 147.988 162.928C147.039 153.713 146.584 148.999 146.155 143.542C144.059 116.896 145.318 97.8206 151.792 80.4803C159.791 59.0527 175.682 42.2452 201.628 29.7344C212.799 24.3478 224.984 19.8619 237.865 16.3407C238.176 16.2556 238.507 16.2875 238.797 16.4306C289.591 41.4701 324.599 90.9146 330.638 147.76C330.686 148.211 330.517 148.657 330.185 148.955C270.106 203.032 219.014 263.602 176.908 330.666C176.675 331.037 176.284 331.273 175.855 331.299C172.379 331.515 168.888 331.624 165.383 331.624C159.005 331.624 152.671 331.265 146.401 330.552C146.199 330.529 146.004 330.459 145.831 330.348L23.1944 251.281C23.0189 251.168 22.8711 251.015 22.7624 250.834C10.2452 229.975 2.43553 206.588 0.0069467 182.068C-0.0299702 181.696 0.0813129 181.323 0.315512 181.036C47.6143 123.041 83.9416 75.5656 109.291 38.6212Z" fill="white"/>
</svg>
    