<svg width="84" height="118" viewBox="0 0 84 118" fill="none" xmlns="http://www.w3.org/2000/svg">
<path d="M100.473 117.156C155.781 117.156 200.618 72.3497 200.618 17.0781C200.618 -38.1935 155.781 -83 100.473 -83C45.1645 -83 0.328125 -38.1935 0.328125 17.0781C0.328125 72.3497 45.1645 117.156 100.473 117.156Z" fill="#FFE9F9"/>
<path d="M1.67315 27.3247C3.15617 41.7713 7.76908 55.552 15.1262 67.8664L89.3092 115.694C92.9975 116.106 96.7229 116.314 100.474 116.314C102.431 116.314 104.381 116.257 106.323 116.145C131.868 75.5317 162.824 38.832 199.191 6.04657C195.464 -27.6159 174.714 -56.89 144.638 -71.8311C137.012 -69.7293 129.802 -67.0652 123.191 -63.8777C107.802 -56.4569 98.453 -46.5691 93.7498 -33.9711C89.9238 -23.7226 89.1739 -12.3579 90.4289 3.60052C90.6882 6.89763 90.9635 9.75137 91.5389 15.3361C93.1254 30.7336 93.5307 36.9007 93.0557 44.4775C92.4243 54.5518 89.8772 62.5247 84.7466 68.9856C78.3564 77.0328 70.7142 80.8505 62.7955 80.5918C55.8362 80.3644 49.0786 76.9254 44.2461 71.4624C39.4635 66.0557 37.1477 59.3078 38.2309 53.2046C39.4506 46.3322 44.765 40.8611 53.9546 37.7934C62.1499 35.0576 66.4642 26.0947 67.8211 10.8381C68.8633 -0.881302 68.3735 -12.092 66.2669 -38.9055C66.2412 -39.2326 66.2412 -39.2326 66.2155 -39.5598C65.7321 -45.7138 65.3514 -50.7838 65.058 -55.1587C49.8269 -33.3148 28.6996 -5.82231 1.67315 27.3247ZM64.2218 -76.5547C64.2216 -76.9082 64.4362 -77.2244 64.7591 -77.3465C69.9751 -79.3186 75.3569 -80.8562 80.8594 -81.9391C81.5594 -82.0769 82.086 -81.2954 81.714 -80.6707C77.2991 -73.2558 71.7472 -64.752 65.058 -55.1587C64.4596 -64.0818 64.2244 -70.1134 64.2218 -76.5547ZM79.3233 -79.9011C74.738 -78.9076 70.2426 -77.5916 65.8644 -75.9653C65.8777 -70.9871 66.0346 -66.1877 66.3972 -60.0056C71.4135 -67.3163 75.7222 -73.9483 79.3233 -79.9011ZM66.3972 -60.0056C66.7127 -54.6257 67.184 -48.1987 67.8519 -39.6955C67.8776 -39.3683 67.8776 -39.3683 67.9033 -39.0412C70.0184 -12.1203 70.5102 -0.862579 69.456 10.9915C68.0458 26.8475 63.4489 36.3975 54.4619 39.3976C45.8119 42.2852 40.9492 47.2912 39.846 53.5072C38.8618 59.0524 41.0012 65.2862 45.461 70.3279C50.0048 75.4645 56.3499 78.6936 62.8477 78.9059C70.239 79.1474 77.3985 75.5709 83.4745 67.9194C88.365 61.7609 90.8063 54.1191 91.4174 44.3691C91.8841 36.9234 91.4824 30.8102 89.9063 15.5137C89.3295 9.91548 89.0532 7.05164 88.7925 3.73636C87.5195 -12.4516 88.2841 -24.0406 92.217 -34.5752C97.0769 -47.593 106.731 -57.8039 122.494 -65.4046C129.28 -68.6771 136.683 -71.4023 144.509 -73.5416C144.698 -73.5933 144.898 -73.5739 145.075 -73.4869C175.933 -58.2749 197.201 -28.2361 200.87 6.29905C200.9 6.57262 200.797 6.84355 200.595 7.0249C164.096 39.878 133.056 76.6755 107.476 117.419C107.334 117.644 107.097 117.787 106.836 117.803C104.724 117.935 102.603 118 100.474 118C96.5993 118 92.7513 117.782 88.9422 117.349C88.8192 117.335 88.7009 117.293 88.5961 117.225L14.0911 69.1904C13.9846 69.1217 13.8948 69.0287 13.8287 68.9187C6.22418 56.2465 1.47964 42.0381 0.00422028 27.142C-0.0182076 26.9156 0.0493995 26.6894 0.191681 26.515C28.9268 -8.71841 50.9965 -37.561 66.3972 -60.0056Z" fill="white"/>
</svg>
