<svg width="128" height="128" viewBox="0 0 128 128" fill="none"
    xmlns="http://www.w3.org/2000/svg">
    <path d="M124.886 66.6862C126.225 33.0797 100.101 4.75269 66.5376 3.41616C32.9742 2.07963 4.68079 28.2397 3.34254 61.8462C2.0043 95.4528 28.128 123.78 61.6914 125.116C95.2548 126.453 123.548 100.293 124.886 66.6862Z" fill="url(#paint0_linear_1031_11984)"/>
    <path d="M67.947 124.547C76.7555 123.996 85.2354 121.526 92.8913 117.353L123.729 73.4347C124.069 71.2036 124.285 68.9449 124.376 66.6656C124.423 65.4766 124.436 64.2903 124.415 63.1079C100.371 46.6041 78.8339 26.9067 59.8051 4.01666C39.2736 5.4674 20.9949 17.3676 11.1943 35.2814C12.2861 39.9654 13.7294 44.4111 15.505 48.5049C19.6389 58.0354 25.417 63.955 32.9533 67.1174C39.084 69.69 45.9671 70.4204 55.6881 70.0438C57.6966 69.9659 59.4361 69.8677 62.8414 69.6531C72.2298 69.0614 75.9846 68.9643 80.574 69.4361C86.6763 70.0634 91.4562 71.8038 95.2555 75.0775C99.9875 79.1549 102.121 83.8908 101.772 88.6961C101.466 92.9193 99.2138 96.9421 95.7795 99.7464C92.3806 102.522 88.2269 103.766 84.547 102.96C80.4033 102.053 77.2096 98.6911 75.5691 93.0331C74.1061 87.9874 68.7678 85.1491 59.5361 83.9558C52.4448 83.0391 45.6252 83.0656 29.2919 83.6973C29.0927 83.705 29.0927 83.705 28.8934 83.7127C25.1447 83.8576 22.0568 83.9663 19.393 84.0388C32.2891 93.8217 48.4726 107.324 67.947 124.547ZM6.38017 84.0295C6.16546 84.0211 5.97869 83.8831 5.91235 83.6839C4.84097 80.4668 4.03751 77.1596 3.51305 73.79C3.44633 73.3613 3.9336 73.0602 4.30396 73.3013C8.69979 76.1632 13.7294 79.7423 19.393 84.0388C13.96 84.1866 10.2916 84.1837 6.38017 84.0295ZM4.71343 74.7726C5.20581 77.5827 5.89618 80.346 6.77782 83.0457C9.80111 83.158 12.7193 83.1787 16.4821 83.1079C12.1641 79.8831 8.24116 77.1046 4.71343 74.7726ZM16.4821 83.1079C19.7567 83.0462 23.6709 82.9153 28.8506 82.7151C29.0498 82.7074 29.0498 82.7074 29.2491 82.6997C45.6479 82.0655 52.496 82.0389 59.6688 82.9661C69.2632 84.2063 74.9511 87.2305 76.5555 92.7637C78.0997 98.0894 81.0219 101.165 84.7698 101.986C88.1133 102.718 91.9505 101.569 95.12 98.9807C98.3491 96.3441 100.463 92.5667 100.75 88.6236C101.075 84.1384 99.0765 79.7016 94.5772 75.8247C90.9558 72.7042 86.3744 71.036 80.4686 70.4289C75.9585 69.9653 72.2366 70.0616 62.9097 70.6494C59.4963 70.8645 57.7505 70.9631 55.731 71.0413C45.8701 71.4234 38.8513 70.6786 32.5494 68.0341C24.762 64.7664 18.795 58.6533 14.561 48.8918C12.738 44.689 11.2622 40.125 10.1525 35.3184C10.1257 35.2023 10.1423 35.0808 10.1994 34.9757C20.1835 16.5933 38.939 4.3967 59.9991 3.00241C60.1659 2.99137 60.3279 3.06031 60.4332 3.18712C79.4999 26.1595 101.094 45.9094 125.216 62.4378C125.35 62.5293 125.431 62.6772 125.434 62.8361C125.463 64.1222 125.451 65.4127 125.4 66.7064C125.306 69.0608 125.081 71.3937 124.726 73.6977C124.714 73.7721 124.686 73.8429 124.642 73.905L93.6702 118.014C93.6259 118.077 93.5673 118.13 93.4989 118.167C85.6197 122.481 76.877 125.021 67.7957 125.557C67.6576 125.565 67.5219 125.519 67.4194 125.428C46.7194 107.116 29.7389 93.0084 16.4821 83.1079Z" fill="white"/>
    <defs>
        <linearGradient id="paint0_linear_1031_11984" x1="124.794" y1="66.6826" x2="-221.62" y2="52.888" gradientUnits="userSpaceOnUse">
            <stop stop-color="#300038"/>
            <stop offset="1" stop-color="#AF18CA"/>
        </linearGradient>
    </defs>
</svg>
    