<svg width="155" height="129" viewBox="0 0 155 129" fill="none" xmlns="http://www.w3.org/2000/svg">
    <path d="M154.374 1.57109C149.957 1.19065 145.481 0.996094 140.955 0.996094C63.6329 0.996094 0.825256 57.7853 6.10352e-05 128.158H74.3847C75.2038 95.3336 104.679 68.9281 140.955 68.9281C145.552 68.9281 150.04 69.3521 154.374 70.1595L154.374 1.57109H154.374Z" fill="#FFB019" />
    <path d="M29.6965 69.2631C31.5756 76.9022 38.6712 85.4864 51.0899 94.5892C60.2612 101.312 68.196 108.722 74.8959 116.82C74.1003 120.257 73.6276 123.766 73.4876 127.319H43.6511C35.2314 114.272 23.4255 102.846 7.73828 93.2921C7.43124 93.1051 7.12567 92.9177 6.82158 92.7297C11.9968 77.0291 20.4538 62.4294 31.6741 49.678L37.2228 52.1294C30.751 56.2634 27.9693 62.242 29.6965 69.2631ZM102.114 80.797C102.416 80.9307 102.775 80.9038 103.05 80.7267C105.372 79.2293 107.799 77.8703 110.315 76.6595C110.7 76.4743 110.889 76.0695 110.77 75.6887C107.429 65.023 101.858 57.6304 93.5799 53.7407C73.7981 44.4462 49.8697 44.0535 37.2228 52.1294L102.114 80.797ZM41.0628 51.9615C53.6478 45.9208 74.9066 46.8545 92.7334 55.2304C100.336 58.8028 105.558 65.5945 108.79 75.5005C106.599 76.5834 104.476 77.7762 102.431 79.0728L41.0628 51.9615ZM31.819 47.8778C31.4332 47.7073 30.969 47.8014 30.6992 48.1047C18.9585 61.3066 10.1567 76.4911 4.86169 92.8405C4.74889 93.1888 4.89546 93.5636 5.22482 93.7689C5.71678 94.0756 6.21255 94.3811 6.71214 94.6854C22.3324 104.199 34.0281 115.577 42.3242 128.578C42.4891 128.837 42.793 128.996 43.1217 128.996H74.3831C74.8841 128.996 75.2935 128.632 75.3048 128.177C75.4011 124.32 75.8992 120.516 76.7863 116.8C76.8429 116.563 76.7837 116.315 76.6239 116.121C69.7777 107.79 61.6516 100.177 52.2471 93.2837C29.101 76.3177 25.4974 61.6685 38.2797 53.5035C39.1507 52.9472 40.0803 52.4331 41.0628 51.9615L31.819 47.8778ZM112.421 41.1012C109.563 35.28 106.623 29.5573 102.936 22.5684C102.275 21.3163 101.608 20.0553 100.765 18.4674C100.625 18.2034 99.1448 15.4137 98.7287 14.6288C97.3884 12.1002 96.4316 10.2832 95.6001 8.6813C97.6067 8.05516 99.6299 7.47063 101.668 6.92828C120.683 25.7014 135.414 46.1409 145.864 68.2494C144.236 68.1428 142.598 68.0893 140.953 68.0893C135.557 68.0893 130.243 68.6658 125.091 69.7956C121.674 60.8271 117.465 51.3749 112.421 41.1012ZM124.721 71.6064C129.983 70.3885 135.422 69.7661 140.953 69.7661C143.058 69.7661 145.149 69.8562 147.225 70.0351C147.919 70.095 148.432 69.459 148.161 68.8746C137.524 45.9437 122.347 24.7877 102.636 5.40915C102.399 5.17652 102.039 5.08508 101.704 5.17281C99.1189 5.85008 96.558 6.59418 94.0237 7.404C93.5087 7.56858 93.2628 8.10176 93.4947 8.55116C94.4354 10.3744 95.4848 12.3708 97.0676 15.3569C97.4839 16.1422 98.9646 18.9323 99.1044 19.1959C99.9462 20.7829 100.613 22.0429 101.273 23.2937C104.953 30.27 107.887 35.9797 110.737 41.7848C115.892 52.2853 120.169 61.9183 123.613 71.0436L123.622 71.066C123.778 71.479 124.256 71.7141 124.721 71.6064Z" fill="white" />
</svg>
    