<svg width="46" height="45" viewBox="0 0 46 45" fill="none" xmlns="http://www.w3.org/2000/svg">
<rect x="0.803223" y="0.533752" width="44.1361" height="44.1361" rx="22.068" fill="#FFE9F9" stroke="#FFE9F9" stroke-width="0.47974"/>
<g clip-path="url(#clip0_554_18528)">
<path d="M15.0111 16.8611C13.784 19.2292 15.4193 23.5474 18.9063 27.0319C22.4228 30.5534 26.6992 31.928 29.0526 30.6345" stroke="#300038" stroke-width="0.539199" stroke-miterlimit="10" stroke-linecap="round" stroke-linejoin="round"/>
<path d="M16.5037 15.398C18.9013 14.316 23.1211 16.0004 26.5294 19.4112C29.9771 22.8564 31.4181 27.0394 30.2648 29.4222" stroke="#300038" stroke-width="0.539199" stroke-miterlimit="10" stroke-linecap="round" stroke-linejoin="round"/>
<path d="M30.356 16.9964C31.0397 18.4128 30.779 20.4687 29.729 22.6302C29.7265 22.6327 29.7265 22.6351 29.7241 22.6376C29.6773 22.7335 29.6306 22.8294 29.579 22.9253C29.5273 23.0237 29.4757 23.1245 29.4216 23.2229C28.7183 24.5139 27.7396 25.8221 26.5272 27.0345C25.3149 28.2493 24.0042 29.2255 22.7156 29.9288C20.3844 31.2051 18.1146 31.5961 16.5728 30.8977" stroke="#300038" stroke-width="0.539199" stroke-miterlimit="10" stroke-linecap="round" stroke-linejoin="round"/>
<path d="M15.1169 29.523C14.3152 27.9812 14.689 25.6327 16.0095 23.2203C16.7128 21.9293 17.6916 20.6211 18.9039 19.4087C20.1162 18.1939 21.4269 17.2177 22.7155 16.5144C23.5885 16.0348 24.4492 15.6832 25.2632 15.4668C25.3541 15.4422 25.4427 15.4201 25.5337 15.4004C26.9132 15.0733 28.1551 15.1446 29.0895 15.6586" stroke="#300038" stroke-width="0.539199" stroke-miterlimit="10" stroke-linecap="round" stroke-linejoin="round"/>
<path d="M31.1801 30.7504C31.3171 30.1701 30.9578 29.5887 30.3776 29.4517C29.7973 29.3146 29.2159 29.674 29.0789 30.2542C28.9419 30.8344 29.3012 31.4159 29.8814 31.5529C30.4617 31.6899 31.0431 31.3306 31.1801 30.7504Z" fill="#E824B1" stroke="#300038" stroke-width="0.539199" stroke-miterlimit="10" stroke-linecap="round" stroke-linejoin="round"/>
<path d="M31.1813 16.1915C31.3184 15.6112 30.959 15.0298 30.3788 14.8928C29.7986 14.7557 29.2171 15.1151 29.0801 15.6953C28.9431 16.2755 29.3024 16.857 29.8826 16.994C30.4629 17.131 31.0443 16.7717 31.1813 16.1915Z" fill="white" stroke="#300038" stroke-width="0.539199" stroke-miterlimit="10" stroke-linecap="round" stroke-linejoin="round"/>
<path d="M16.6213 30.7493C16.7583 30.169 16.399 29.5876 15.8187 29.4506C15.2385 29.3135 14.6571 29.6729 14.5201 30.2531C14.383 30.8333 14.7423 31.4148 15.3226 31.5518C15.9028 31.6888 16.4843 31.3295 16.6213 30.7493Z" fill="white" stroke="#300038" stroke-width="0.539199" stroke-miterlimit="10" stroke-linecap="round" stroke-linejoin="round"/>
<path d="M16.6223 16.1904C16.7593 15.6101 16.4 15.0287 15.8197 14.8917C15.2395 14.7546 14.658 15.114 14.521 15.6942C14.384 16.2744 14.7433 16.8559 15.3236 16.9929C15.9038 17.1299 16.4853 16.7706 16.6223 16.1904Z" fill="#E824B1" stroke="#300038" stroke-width="0.539199" stroke-miterlimit="10" stroke-linecap="round" stroke-linejoin="round"/>
<path d="M25.9516 19.9866H19.7498V22.1433H25.9516V19.9866Z" fill="white" stroke="#300038" stroke-width="0.539199" stroke-miterlimit="10" stroke-linecap="round" stroke-linejoin="round"/>
<path d="M25.9516 22.1433H19.7498V24.2999H25.9516V22.1433Z" fill="#E824B1" stroke="#300038" stroke-width="0.539199" stroke-miterlimit="10" stroke-linecap="round" stroke-linejoin="round"/>
<path d="M25.9516 24.2999H19.7498V26.4566H25.9516V24.2999Z" fill="white" stroke="#300038" stroke-width="0.539199" stroke-miterlimit="10" stroke-linecap="round" stroke-linejoin="round"/>
<path d="M23.7092 21.0637H24.6953" stroke="#300038" stroke-width="0.539199" stroke-miterlimit="10" stroke-linecap="round" stroke-linejoin="round"/>
<path d="M23.7092 23.2204H24.6953" stroke="#300038" stroke-width="0.539199" stroke-miterlimit="10" stroke-linecap="round" stroke-linejoin="round"/>
<path d="M23.7092 25.377H24.6953" stroke="#300038" stroke-width="0.539199" stroke-miterlimit="10" stroke-linecap="round" stroke-linejoin="round"/>
</g>
<defs>
<clipPath id="clip0_554_18528">
<rect width="17.2556" height="17.2556" fill="white" transform="translate(14.2241 14.5938)"/>
</clipPath>
</defs>
</svg>
