<svg width="54" height="55" viewBox="0 0 54 55" fill="none" xmlns="http://www.w3.org/2000/svg">
<circle cx="27" cy="27.5" r="27" fill="#FFC01F" fill-opacity="0.5"/>
<g clip-path="url(#clip0_554_18552)">
<path d="M27.2968 15.9286C26.518 15.9286 25.8096 16.3124 25.2199 16.9374C24.6302 17.5623 24.1276 18.432 23.7215 19.489C23.5583 19.9118 23.41 20.3717 23.2765 20.8539C22.7999 20.7333 22.3382 20.6258 21.8968 20.5572C21.3368 20.4681 20.8027 20.4236 20.3094 20.4236C19.8162 20.4236 19.3619 20.4737 18.9446 20.572C18.1083 20.7686 17.4055 21.1877 17.016 21.8627C16.6266 22.5377 16.6062 23.3536 16.8529 24.1769C17.0995 25.0003 17.6094 25.8626 18.3215 26.7434C18.6034 27.0921 18.9261 27.4444 19.271 27.7967C18.9261 28.1491 18.6034 28.5014 18.3215 28.85C17.6094 29.7309 17.0995 30.5931 16.8529 31.4165C16.6062 32.2399 16.6266 33.0558 17.016 33.7308C17.4055 34.4058 18.1083 34.8249 18.9446 35.0214C19.7809 35.218 20.7768 35.2124 21.8968 35.0363C22.3382 34.9677 22.7999 34.862 23.2765 34.7396C23.41 35.2217 23.5583 35.6816 23.7215 36.1044C24.1276 37.1614 24.6302 38.0311 25.2199 38.6561C25.8096 39.281 26.518 39.6649 27.2968 39.6649C28.0757 39.6649 28.784 39.281 29.3737 38.6561C29.9634 38.0311 30.466 37.1614 30.8721 36.1044C31.0353 35.6816 31.1836 35.2217 31.3171 34.7396C31.7937 34.862 32.2555 34.9677 32.6968 35.0363C33.8169 35.2124 34.8127 35.218 35.649 35.0214C36.4853 34.8249 37.1882 34.4058 37.5776 33.7308C37.967 33.0558 37.9874 32.2399 37.7408 31.4165C37.4941 30.5931 36.9842 29.7309 36.2721 28.85C35.9902 28.5014 35.6676 28.1491 35.3226 27.7967C35.6676 27.4444 35.9902 27.0921 36.2721 26.7434C36.9842 25.8626 37.4941 25.0003 37.7408 24.1769C37.9874 23.3536 37.967 22.5377 37.5776 21.8627C37.1882 21.1877 36.4853 20.7686 35.649 20.572C35.2318 20.4737 34.7774 20.4236 34.2842 20.4236C33.7909 20.4236 33.2568 20.4681 32.6968 20.5572C32.2555 20.6258 31.7937 20.7333 31.3171 20.8539C31.1836 20.3717 31.0353 19.9118 30.8721 19.489C30.466 18.432 29.9634 17.5623 29.3737 16.9374C28.784 16.3124 28.0757 15.9286 27.2968 15.9286ZM27.2968 16.878C27.766 16.878 28.224 17.095 28.6913 17.5901C29.1586 18.0853 29.6055 18.8511 29.982 19.8302C30.1322 20.2215 30.2713 20.6499 30.3974 21.1061C29.4127 21.4102 28.3724 21.8219 27.2968 22.3225C26.2213 21.8219 25.1809 21.4102 24.1963 21.1061C24.3224 20.6499 24.4614 20.2215 24.6116 19.8302C24.9881 18.8511 25.435 18.0853 25.9023 17.5901C26.3696 17.095 26.8276 16.878 27.2968 16.878ZM20.3094 21.3731C20.7434 21.3731 21.2311 21.4102 21.7485 21.4918C22.1601 21.5567 22.5996 21.6568 23.054 21.7736C22.8314 22.7732 22.6645 23.8765 22.5644 25.0522C21.5871 25.7346 20.7137 26.4282 19.9534 27.1291C19.6252 26.7935 19.3248 26.4597 19.0633 26.1352C18.4031 25.3192 17.9692 24.5478 17.7726 23.8951C17.5761 23.2423 17.6113 22.7435 17.8468 22.3374C18.0823 21.9313 18.4903 21.6475 19.1523 21.4918C19.4842 21.4139 19.8755 21.3731 20.3094 21.3731ZM34.2842 21.3731C34.7181 21.3731 35.1094 21.4139 35.4413 21.4918C36.1033 21.6475 36.5113 21.9313 36.7468 22.3374C36.9805 22.7435 37.0176 23.2423 36.821 23.8951C36.6244 24.5478 36.1905 25.3192 35.5303 26.1352C35.2689 26.4597 34.9684 26.7935 34.6402 27.1291C33.8799 26.4282 33.0065 25.7346 32.0292 25.0522C31.9291 23.8765 31.7622 22.7732 31.5397 21.7736C31.994 21.6568 32.4335 21.5567 32.8452 21.4918C33.3625 21.4102 33.8502 21.3731 34.2842 21.3731ZM23.9737 22.0407C24.6765 22.2632 25.4202 22.5265 26.1842 22.8566C25.7465 23.0828 25.3089 23.3276 24.8638 23.5835C24.4225 23.8376 23.9997 24.0916 23.588 24.355C23.6826 23.5298 23.8161 22.7583 23.9737 22.0407ZM30.6199 22.0407C30.7775 22.7583 30.911 23.5298 31.0056 24.355C30.5939 24.0916 30.1693 23.8376 29.7298 23.5835C29.2847 23.3276 28.8471 23.0828 28.4094 22.8566C29.1735 22.5265 29.9171 22.2632 30.6199 22.0407ZM27.2968 23.3758C27.9403 23.6892 28.593 24.0323 29.2551 24.4143C29.9115 24.7926 30.5216 25.1894 31.1094 25.5863C31.1595 26.2984 31.1985 27.0327 31.1985 27.7967C31.1985 28.5607 31.1595 29.2951 31.1094 30.0072C30.5216 30.404 29.9115 30.8008 29.2551 31.1791C28.593 31.5611 27.9403 31.9042 27.2968 32.2176C26.6533 31.9042 26.0006 31.5611 25.3386 31.1791C24.6821 30.8008 24.072 30.404 23.4842 30.0072C23.4341 29.2951 23.3952 28.5607 23.3952 27.7967C23.3952 27.0327 23.4341 26.2984 23.4842 25.5863C24.072 25.1894 24.6821 24.7945 25.3386 24.4143C26.0006 24.0323 26.6533 23.6892 27.2968 23.3758ZM27.2968 24.9484C25.7298 24.9484 24.4485 26.2298 24.4485 27.7967C24.4485 29.3637 25.7298 30.6451 27.2968 30.6451C28.8638 30.6451 30.1452 29.3637 30.1452 27.7967C30.1452 26.2298 28.8638 24.9484 27.2968 24.9484ZM27.2968 25.8978C28.352 25.8978 29.1957 26.7416 29.1957 27.7967C29.1957 28.8519 28.352 29.6956 27.2968 29.6956C26.2417 29.6956 25.3979 28.8519 25.3979 27.7967C25.3979 26.7416 26.2417 25.8978 27.2968 25.8978ZM22.4754 26.2835C22.4531 26.7787 22.4457 27.2812 22.4457 27.7967C22.4457 28.3122 22.4531 28.8148 22.4754 29.3099C21.8041 28.8111 21.2107 28.2974 20.6655 27.7967C21.2107 27.296 21.8041 26.7824 22.4754 26.2835ZM32.1182 26.2835C32.7895 26.7824 33.3829 27.296 33.9281 27.7967C33.3829 28.2974 32.7895 28.8111 32.1182 29.3099C32.1405 28.8148 32.1479 28.3122 32.1479 27.7967C32.1479 27.2812 32.1405 26.7787 32.1182 26.2835ZM19.9534 28.4643C20.7137 29.1634 21.5871 29.8607 22.5644 30.5412C22.6645 31.7169 22.8314 32.8203 23.054 33.8198C22.5996 33.9366 22.1601 34.0368 21.7485 34.1017C20.7118 34.2649 19.8143 34.2574 19.1523 34.1017C18.4903 33.9459 18.0823 33.6622 17.8468 33.2561C17.6132 32.8499 17.5761 32.3363 17.7726 31.6835C17.9692 31.0308 18.4031 30.2742 19.0633 29.4583C19.3248 29.1337 19.6252 28.7999 19.9534 28.4643ZM34.6402 28.4643C34.9684 28.7999 35.2689 29.1337 35.5303 29.4583C36.1905 30.2742 36.6244 31.0308 36.821 31.6835C37.0176 32.3363 36.9823 32.8499 36.7468 33.2561C36.5113 33.6622 36.1033 33.9459 35.4413 34.1017C34.7793 34.2574 33.8818 34.2649 32.8452 34.1017C32.4335 34.0368 31.994 33.9366 31.5397 33.8198C31.7622 32.8203 31.9291 31.7169 32.0292 30.5412C33.0065 29.8607 33.8799 29.1634 34.6402 28.4643ZM23.588 31.2236C23.9997 31.487 24.4225 31.741 24.8638 31.9951C25.3108 32.2528 25.7577 32.4939 26.199 32.722C25.4276 33.0558 24.6821 33.3284 23.9737 33.5528C23.8143 32.8296 23.6826 32.0544 23.588 31.2236ZM31.0056 31.2236C30.911 32.0544 30.7794 32.8296 30.6199 33.5528C29.9115 33.3284 29.166 33.0558 28.3946 32.722C28.836 32.4939 29.2829 32.2528 29.7298 31.9951C30.1711 31.741 30.5939 31.487 31.0056 31.2236ZM27.2968 33.2709C28.3724 33.7734 29.4127 34.1814 30.3974 34.4874C30.2713 34.9436 30.1322 35.3719 29.982 35.7632C29.6055 36.7423 29.1586 37.5082 28.6913 38.0033C28.224 38.4984 27.766 38.7154 27.2968 38.7154C26.8276 38.7154 26.3696 38.4984 25.9023 38.0033C25.435 37.5082 24.9881 36.7423 24.6116 35.7632C24.4614 35.3719 24.3224 34.9436 24.1963 34.4874C25.1809 34.1814 26.2213 33.7734 27.2968 33.2709Z" fill="black"/>
</g>
<defs>
<clipPath id="clip0_554_18552">
<rect width="23.7363" height="23.7363" fill="white" transform="translate(15.4287 15.9286)"/>
</clipPath>
</defs> 
</svg>
