<svg width="24" height="24" viewBox="0 0 24 24" fill="none" xmlns="http://www.w3.org/2000/svg">
    <g clip-path="url(#clip0_71_10627)">
        <path fill-rule="evenodd" clip-rule="evenodd" d="M0 12C0 5.37258 5.37258 0 12 0C18.6274 0 24 5.37258 24 12C24 18.6274 18.6274 24 12 24C5.37258 24 0 18.6274 0 12Z" fill="#45194C" />
        <path d="M15.4724 13.0855L15.8869 10.3836H13.2944V8.63093C13.2944 7.89154 13.6559 7.1704 14.817 7.1704H15.9964V4.87007C15.9964 4.87007 14.9266 4.6875 13.9042 4.6875C11.7682 4.6875 10.3734 5.98189 10.3734 8.32422V10.3836H8V13.0855H10.3734V19.6178C10.8499 19.6926 11.3373 19.731 11.8339 19.731C12.3305 19.731 12.8179 19.6926 13.2944 19.6178V13.0855H15.4724Z" fill="white" />
    </g>
    <defs>
        <clipPath id="clip0_71_10627">
            <rect width="24" height="24" fill="white" />
        </clipPath>
    </defs>
</svg>
    