<svg width="24" height="24" viewBox="0 0 24 24" fill="none" xmlns="http://www.w3.org/2000/svg">
    <path fill-rule="evenodd" clip-rule="evenodd" d="M0 12C0 5.37258 5.37258 0 12 0C18.6274 0 24 5.37258 24 12C24 18.6274 18.6274 24 12 24C5.37258 24 0 18.6274 0 12Z" fill="#45194C" />
    <path d="M8.71563 6.76291C8.69798 5.96176 8.12508 5.35156 7.19477 5.35156C6.26446 5.35156 5.65625 5.96176 5.65625 6.76291C5.65625 7.54746 6.24648 8.17524 7.15947 8.17524H7.17684C8.12508 8.17524 8.71563 7.54746 8.71563 6.76291Z" fill="white" />
    <path d="M8.53653 9.29053H5.81706V17.4614H8.53653V9.29053Z" fill="white" />
    <path d="M15.2128 9.09863C17.0024 9.09863 18.344 10.2667 18.344 12.7764L18.3438 17.4614H15.6245V13.0899C15.6245 11.9919 15.231 11.2427 14.2465 11.2427C13.4952 11.2427 13.0477 11.7478 12.8512 12.2357C12.7792 12.4105 12.7616 12.6541 12.7616 12.8983V17.4616H10.0418C10.0418 17.4616 10.0777 10.0574 10.0418 9.29072H12.7616V10.4481C13.1225 9.8917 13.769 9.09863 15.2128 9.09863Z" fill="white" />
</svg>
    