<svg width="16" height="17" viewBox="0 0 16 17" fill="none" xmlns="http://www.w3.org/2000/svg">
<g clip-path="url(#clip0_554_18562)">
<path d="M13.9963 7.33458C13.9963 11.9639 7.99793 15.9319 7.99793 15.9319C7.99793 15.9319 1.99951 11.9639 1.99951 7.33458C1.99951 5.75602 2.63149 4.24211 3.75641 3.12589C4.88133 2.00968 6.40705 1.3826 7.99793 1.3826C9.58881 1.3826 11.1145 2.00968 12.2395 3.12589C13.3644 4.24211 13.9963 5.75602 13.9963 7.33458Z" stroke="#FFC01F" stroke-width="1.5872" stroke-linecap="round" stroke-linejoin="round"/>
<path d="M7.99801 9.31858C9.10229 9.31858 9.99748 8.43031 9.99748 7.33458C9.99748 6.23885 9.10229 5.35059 7.99801 5.35059C6.89373 5.35059 5.99854 6.23885 5.99854 7.33458C5.99854 8.43031 6.89373 9.31858 7.99801 9.31858Z" stroke="#FFC01F" stroke-width="1.5872" stroke-linecap="round" stroke-linejoin="round"/>
</g>
<defs>
<clipPath id="clip0_554_18562">
<rect width="15.9958" height="15.872" fill="white" transform="translate(0 0.720734)"/>
</clipPath>
</defs>
</svg>
