<svg width="48" height="48" viewBox="0 0 48 48" fill="none"
    xmlns="http://www.w3.org/2000/svg">
    <circle cx="23.8032" cy="23.7361" r="23.7363" fill="#FFE9F9"/>
    <path fill-rule="evenodd" clip-rule="evenodd" d="M21.0836 13.7585C21.0357 13.7806 20.9567 13.8564 20.9081 13.9269C20.8288 14.0421 20.8199 14.114 20.8199 14.6361V15.2171L19.6191 15.231L18.4183 15.2448L18.2979 15.3988L18.1774 15.5528V16.4008V17.2489H16.1137H14.05L13.9151 17.3865L13.7803 17.524V25.9332C13.7803 30.5582 13.795 34.4216 13.813 34.5185C13.8326 34.6238 13.8824 34.7187 13.9369 34.7543C14.0095 34.8017 15.8499 34.8138 22.9893 34.8138C31.3518 34.8138 31.9577 34.8084 32.0576 34.7337C32.1854 34.6381 32.2104 34.5623 33.0257 31.7959C34.2056 27.7927 34.9045 25.2964 34.8785 25.178C34.8648 25.1155 34.8002 25.0034 34.735 24.929L34.6164 24.7935H33.4377H32.2589L32.2474 20.9035L32.236 17.0136L30.8528 15.4306C30.0921 14.5599 29.4195 13.8171 29.3582 13.7799C29.2634 13.7224 28.6402 13.7128 25.2088 13.7153C22.9879 13.7169 21.1316 13.7364 21.0836 13.7585ZM28.7471 16.0252C28.7471 17.4609 28.7599 17.5531 28.9731 17.664C29.0487 17.7035 29.4286 17.7204 30.2354 17.7204H31.3896V21.257V24.7935H26.5382H21.6869V19.748V14.7025H25.217H28.7471V16.0252ZM30.729 16.7177C30.729 16.7245 30.4781 16.7302 30.1716 16.7302H29.6142V16.0824V15.4347L30.1716 16.07C30.4781 16.4194 30.729 16.7109 30.729 16.7177ZM20.8199 20.5025V24.7935H19.9322H19.0445V20.5025V16.2115H19.9322H20.8199V20.5025ZM18.1774 21.5163V24.7935H17.4528C16.5836 24.7935 16.5297 24.8136 16.4109 25.1819C16.3669 25.3184 15.9552 26.7192 15.496 28.2947C15.0368 29.8703 14.6533 31.1594 14.6439 31.1594C14.6344 31.1594 14.6267 28.2523 14.6267 24.6992V18.2391H16.4021H18.1774V21.5163ZM22.7413 18.8639C22.5207 19.0842 22.5366 19.4907 22.7723 19.656C22.9007 19.746 22.9784 19.7486 25.2514 19.7367L27.5979 19.7245L27.7183 19.5704C27.9092 19.3265 27.8553 18.9403 27.6129 18.8141C27.533 18.7726 26.8935 18.7578 25.1761 18.7578H22.8476L22.7413 18.8639ZM22.9003 20.7696C22.8523 20.7809 22.7615 20.8517 22.6985 20.9268C22.5312 21.1263 22.5376 21.4015 22.7143 21.6033L22.8445 21.7521H24.3293H25.8141L25.9444 21.6033C26.1287 21.3928 26.1287 21.1212 25.9444 20.9107L25.8142 20.7618L24.4008 20.7553C23.6235 20.7518 22.9482 20.7582 22.9003 20.7696ZM33.8256 25.8188C33.8256 25.8381 33.3007 27.6524 32.6593 29.8505L31.4932 33.8471H23.1631C16.5268 33.8471 14.8331 33.8352 14.8331 33.7882C14.8331 33.7558 15.3549 31.9416 15.9926 29.7565L17.1521 25.7838H25.4888C30.074 25.7838 33.8256 25.7996 33.8256 25.8188Z" fill="black"/>
</svg>
    