<svg width="48" height="48" viewBox="0 0 48 48" fill="none"
    xmlns="http://www.w3.org/2000/svg">
    <circle cx="23.9897" cy="23.7364" r="23.7363" fill="#FFE9F9"/>
    <path fill-rule="evenodd" clip-rule="evenodd" d="M19.7162 11.7487C19.5834 11.8672 19.5556 11.9278 19.5556 12.0999C19.5556 12.2724 19.5833 12.3324 19.718 12.4527L19.8804 12.5977L19.7169 12.654C19.4254 12.7545 18.3279 13.3215 17.8707 13.6078C16.8292 14.2601 15.7807 15.154 15.0277 16.0312C13.4693 17.8468 12.5204 19.842 12.1233 22.1383C11.9778 22.9797 11.9076 24.3285 12.0003 24.5015C12.0872 24.6637 12.3342 24.7736 12.5294 24.737C12.7951 24.6872 12.8837 24.525 12.9167 24.0287C13.0114 22.6016 13.1225 21.897 13.402 20.9515C14.3611 17.7069 16.8285 14.9543 19.9909 13.601C20.2042 13.5097 20.4009 13.435 20.4279 13.435C20.455 13.435 20.4307 13.51 20.3741 13.6016C20.1451 13.9717 20.3434 14.424 20.7346 14.424C20.9813 14.424 21.0866 14.3116 21.6552 13.4418C22.2159 12.5839 22.2568 12.4434 22.0156 12.2048C21.9047 12.0951 21.7138 12.0272 20.9838 11.8378C20.4911 11.7099 20.0405 11.6053 19.9824 11.6053C19.9242 11.6053 19.8044 11.6698 19.7162 11.7487ZM24.2675 11.7577C24.1235 11.8415 24.0202 12.0933 24.0546 12.2768C24.1073 12.5572 24.2583 12.63 24.8621 12.6663C26.7161 12.7776 28.1281 13.1278 29.5797 13.8361C29.9637 14.0235 30.3409 14.1768 30.4178 14.1768C30.4962 14.1768 30.6248 14.1204 30.71 14.0487C30.8354 13.9433 30.8623 13.8842 30.8623 13.7136C30.8623 13.5997 30.8295 13.4597 30.7895 13.4026C30.7065 13.2841 29.7245 12.7909 29.0419 12.5247C28.1243 12.167 26.8966 11.8713 25.8532 11.757C25.2498 11.6908 24.3817 11.6912 24.2675 11.7577ZM31.8978 14.618C31.703 14.8127 31.7004 15.0558 31.8909 15.2688C32.1287 15.5347 32.5369 15.4639 32.6754 15.1329C32.8795 14.6446 32.2731 14.2431 31.8978 14.618ZM22.518 15.779L22.3497 15.9471V16.5141V17.0811L22.0404 17.1924C21.8703 17.2536 21.5651 17.3795 21.3623 17.4724L20.9936 17.641L20.62 17.2714C20.1966 16.8526 20.0369 16.7693 19.8046 16.8459C19.5954 16.9149 17.1283 19.3913 17.085 19.5758C17.0352 19.7883 17.1339 19.9626 17.5311 20.3634L17.9039 20.7397L17.757 21.031C17.6762 21.1913 17.5489 21.4949 17.4741 21.7056L17.3382 22.0889H16.8025C15.824 22.0889 15.8663 21.9908 15.8663 24.2647C15.8663 26.5386 15.824 26.4405 16.8025 26.4405H17.3382L17.4741 26.8238C17.5489 27.0345 17.6762 27.3381 17.757 27.4984L17.9039 27.7897L17.5311 28.1659C17.1091 28.5918 17.0256 28.751 17.1023 28.9835C17.1714 29.1925 19.6499 31.6575 19.8346 31.7008C20.0469 31.7506 20.2215 31.6521 20.62 31.258L20.9936 30.8883L21.3623 31.057C21.5651 31.1498 21.8703 31.2758 22.0404 31.337L22.3497 31.4483V32.0153V32.5823L22.518 32.7504L22.6862 32.9185H24.5024C26.8069 32.9185 26.705 32.9618 26.705 31.9831V31.4478L27.0885 31.312C27.2995 31.2373 27.6033 31.1101 27.7637 31.0294L28.0553 30.8826L28.4319 31.2551C28.833 31.652 29.0075 31.7506 29.2201 31.7008C29.4048 31.6575 31.8833 29.1925 31.9524 28.9835C32.0291 28.751 31.9456 28.5918 31.5236 28.1659L31.1507 27.7897L31.2977 27.4984C31.3785 27.3381 31.5058 27.0345 31.5806 26.8238L31.7165 26.4405H32.2522C33.2306 26.4405 33.1884 26.5386 33.1884 24.2647C33.1884 21.9908 33.2306 22.0889 32.2522 22.0889H31.7165L31.5806 21.7056C31.5058 21.4949 31.3785 21.1913 31.2977 21.031L31.1507 20.7397L31.5236 20.3634C31.9456 19.9376 32.0291 19.7783 31.9524 19.5459C31.8833 19.3368 29.4048 16.8718 29.2201 16.8286C29.0075 16.7788 28.833 16.8774 28.4319 17.2743L28.0553 17.6468L27.7637 17.5C27.6033 17.4192 27.2995 17.2921 27.0885 17.2173L26.705 17.0816V16.5463C26.705 15.5676 26.8069 15.6108 24.5024 15.6108H22.6862L22.518 15.779ZM33.4816 16.2004C33.2425 16.4393 33.2819 16.6688 33.635 17.0944C33.919 17.4366 34.4303 18.2082 34.6969 18.6969C34.9495 19.16 35.3661 20.0737 35.3661 20.1645C35.3661 20.1938 35.291 20.1715 35.1994 20.1149C35.1077 20.0583 34.9501 20.0119 34.8491 20.0119C34.5003 20.0119 34.2647 20.4035 34.4289 20.7102C34.4579 20.7643 34.8491 21.0521 35.2982 21.3498C36.218 21.9595 36.3529 22.0016 36.5973 21.7551C36.7073 21.6441 36.7753 21.4525 36.9677 20.7125C37.12 20.1265 37.1926 19.7571 37.173 19.6679C37.0912 19.2959 36.6118 19.1641 36.3631 19.445L36.2322 19.5929L35.8283 18.7763C35.406 17.9224 34.9039 17.1116 34.4346 16.5257C34.0844 16.0884 34.0461 16.0594 33.8156 16.0575C33.671 16.0563 33.592 16.0901 33.4816 16.2004ZM25.7151 17.0721C25.7151 17.7875 25.7437 17.8222 26.5316 18.0646C26.7764 18.14 27.2093 18.3197 27.4934 18.4639C28.1985 18.8219 28.254 18.8181 28.706 18.3801C28.9026 18.1897 29.0837 18.0339 29.1086 18.0339C29.1683 18.0339 30.7633 19.6265 30.7633 19.6862C30.7633 19.7117 30.6074 19.8931 30.4169 20.0895C29.9785 20.5412 29.9747 20.5966 30.3329 21.3011C30.4773 21.585 30.6572 22.0175 30.7326 22.2621C30.808 22.5068 30.8959 22.7605 30.9279 22.8259C31.0161 23.0062 31.2504 23.0779 31.7516 23.0779H32.1986V24.2647V25.4515H31.7259C31.0099 25.4515 30.9752 25.48 30.7326 26.2672C30.6572 26.5119 30.4773 26.9444 30.3329 27.2283C29.9747 27.9327 29.9785 27.9882 30.4169 28.4399C30.6074 28.6363 30.7633 28.8172 30.7633 28.8421C30.7633 28.9018 29.1694 30.4955 29.1096 30.4955C29.0842 30.4955 28.9026 30.3397 28.706 30.1493C28.254 29.7113 28.1985 29.7075 27.4934 30.0654C27.2093 30.2097 26.7764 30.3894 26.5316 30.4647C25.7437 30.7072 25.7151 30.7419 25.7151 31.4573V31.9295H24.5273H23.3395V31.4573C23.3395 30.7423 23.3122 30.7089 22.5229 30.4631C22.2779 30.3868 21.8451 30.2071 21.561 30.0638C20.8558 29.7079 20.8002 29.7118 20.3486 30.1493C20.1521 30.3397 19.9705 30.4955 19.945 30.4955C19.8853 30.4955 18.2914 28.9018 18.2914 28.8421C18.2914 28.8172 18.4473 28.6363 18.6378 28.4399C19.0762 27.9882 19.08 27.9327 18.7217 27.2283C18.5774 26.9444 18.3975 26.5119 18.3221 26.2672C18.0794 25.48 18.0447 25.4515 17.3287 25.4515H16.8561V24.2647V23.0779H17.3287C18.0447 23.0779 18.0794 23.0494 18.3221 22.2621C18.3975 22.0175 18.5774 21.585 18.7217 21.3011C19.08 20.5966 19.0762 20.5412 18.6378 20.0895C18.4473 19.8931 18.2914 19.7117 18.2914 19.6862C18.2914 19.6265 19.8863 18.0339 19.9461 18.0339C19.971 18.0339 20.1521 18.1897 20.3486 18.3801C20.8002 18.8176 20.8558 18.8215 21.561 18.4656C21.8451 18.3223 22.2779 18.1426 22.5229 18.0663C22.7679 17.99 23.0219 17.9014 23.0874 17.8694C23.2678 17.7814 23.3395 17.5472 23.3395 17.0465V16.5999H24.5273H25.7151V17.0721ZM23.7815 19.8199C21.145 21.3284 20.4828 21.7177 20.4071 21.8036C20.3273 21.8944 20.3205 22.085 20.3205 24.2647C20.3205 26.4442 20.3273 26.635 20.4071 26.7262C20.4987 26.8306 24.1246 28.9312 24.3788 29.0271C24.4903 29.0691 24.5655 29.0687 24.6804 29.0253C24.9596 28.9201 28.5593 26.827 28.6465 26.7193C28.7247 26.6225 28.732 26.4151 28.7331 24.2578C28.7341 22.0843 28.7275 21.8943 28.6475 21.8022C28.5999 21.7473 27.748 21.2359 26.7545 20.6659C24.656 19.4618 24.6676 19.468 24.5139 19.468C24.4494 19.468 24.1198 19.6264 23.7815 19.8199ZM25.8427 21.2728C26.5727 21.6943 27.1895 22.0586 27.2132 22.0823C27.2537 22.1228 24.6392 23.6713 24.5303 23.6713C24.5031 23.6713 23.8755 23.322 23.1358 22.8951C21.8236 22.1379 21.7935 22.1171 21.905 22.0421C21.9679 21.9998 22.5781 21.6394 23.2609 21.2411C23.9438 20.8428 24.5055 20.5146 24.509 20.5117C24.5125 20.5088 25.1127 20.8513 25.8427 21.2728ZM22.6756 23.7578L24.0305 24.5367L24.0315 26.1371L24.0324 27.7376L23.9211 27.6663C23.8598 27.627 23.2362 27.2652 22.5353 26.8622L21.2609 26.1294V24.5542C21.2609 23.6878 21.2743 22.979 21.2908 22.979C21.3073 22.979 21.9304 23.3295 22.6756 23.7578ZM27.7938 24.5551V26.1311L26.5194 26.8636C25.8184 27.2664 25.1949 27.6279 25.1336 27.6668L25.0223 27.7376L25.0238 26.1371L25.0254 24.5367L26.3724 23.7604C27.1134 23.3334 27.7362 22.9829 27.7567 22.9815C27.7771 22.9801 27.7938 23.6882 27.7938 24.5551ZM36.4206 23.8201C36.2061 23.9064 36.1626 24.0554 36.1095 24.8849C36.0335 26.0723 35.895 26.8212 35.5569 27.8746C34.6672 30.6457 32.5979 33.0936 29.9558 34.5005C29.4924 34.7473 28.7156 35.0944 28.6268 35.0944C28.5997 35.0944 28.624 35.0194 28.6806 34.9278C28.9042 34.5664 28.7478 34.1737 28.3594 34.1217C28.0833 34.0847 28.0006 34.168 27.3995 35.0876C26.8388 35.9455 26.7979 36.0859 27.0391 36.3245C27.15 36.4343 27.3409 36.5022 28.0709 36.6916C28.5636 36.8194 29.0142 36.924 29.0723 36.924C29.1305 36.924 29.2503 36.8595 29.3385 36.7807C29.4713 36.6621 29.499 36.6016 29.499 36.4295C29.499 36.2603 29.471 36.1966 29.3483 36.0871L29.1976 35.9525L29.8974 35.6194C31.2362 34.9822 32.3758 34.1768 33.438 33.1173C35.2934 31.2666 36.4824 28.9766 36.9303 26.3911C37.056 25.6649 37.1418 24.3459 37.0794 24.0975C37.0431 23.953 36.7866 23.7688 36.6281 23.7735C36.5737 23.7751 36.4803 23.7961 36.4206 23.8201ZM12.4574 26.7743C12.3475 26.8851 12.2796 27.0759 12.09 27.8053C11.9621 28.2976 11.8574 28.7478 11.8574 28.8059C11.8574 28.864 11.922 28.9837 12.0008 29.0718C12.1195 29.2045 12.1801 29.2322 12.3523 29.2322C12.5218 29.2322 12.5854 29.2043 12.6951 29.0817L12.8297 28.9311L13.1631 29.6303C14.5449 32.5284 16.9374 34.7815 19.8751 35.9513C21.1546 36.4608 22.5613 36.7617 23.8938 36.811C24.5503 36.8353 24.6893 36.8277 24.7895 36.7621C24.9572 36.6523 25.0464 36.4141 24.9914 36.2227C24.9093 35.9365 24.7844 35.8919 23.9102 35.8371C23.0731 35.7846 22.4295 35.6928 21.7805 35.5331C18.2422 34.6625 15.2953 32.1581 13.8548 28.7974C13.7634 28.5842 13.6886 28.3877 13.6886 28.3607C13.6886 28.3337 13.7637 28.3579 13.8553 28.4145C14.217 28.6379 14.61 28.4816 14.6621 28.0936C14.6994 27.8158 14.6112 27.7283 13.6939 27.1328C12.8344 26.5749 12.695 26.5345 12.4574 26.7743Z" fill="black"/>
</svg>
    