<svg width="48" height="48" viewBox="0 0 48 48" fill="none"
    xmlns="http://www.w3.org/2000/svg">
    <circle cx="23.7363" cy="23.7363" r="23.7363" fill="#FFE9F9"/>
    <ellipse cx="22.8439" cy="29.5807" rx="1.99678" ry="1.9401" fill="white"/>
    <path fill-rule="evenodd" clip-rule="evenodd" d="M21.9429 16.0086C21.4014 16.0515 20.293 16.2327 19.7291 16.3706C18.897 16.574 18.1641 16.8396 17.2981 17.2514C13.9844 18.8273 11.5255 21.7656 10.611 25.2424C10.3376 26.2819 10.2506 27.0059 10.2229 28.4702L10.1978 29.8021H13.0868H15.9758L16.0047 28.6622C16.0339 27.5098 16.086 27.0871 16.2816 26.4162C16.9527 24.1144 19.0267 22.2467 21.4489 21.7629C23.0906 21.435 24.8847 21.7121 26.2915 22.5108C26.4753 22.6151 26.6303 22.6946 26.6361 22.6875C26.6418 22.6804 26.7718 22.4914 26.9248 22.2676L27.2032 21.8605L27.0183 21.7489C26.6034 21.4983 25.8294 21.1468 25.3583 20.9948C23.3247 20.3387 21.1534 20.5026 19.2496 21.4559C17.8063 22.1786 16.594 23.3568 15.8474 24.7624C15.2537 25.8801 14.9531 27.1182 14.9529 28.4462L14.9529 28.7942H13.0927H11.2324L11.2645 28.0045C11.3651 25.5264 12.1111 23.4484 13.601 21.4967C14.0926 20.8525 15.2266 19.7508 15.8895 19.2731C17.5687 18.063 19.2984 17.38 21.4489 17.0778C22.0222 16.9972 23.6914 16.9972 24.2647 17.0778C26.4152 17.38 28.1449 18.063 29.8241 19.2731C30.487 19.7508 31.621 20.8525 32.1126 21.4967C33.6025 23.4484 34.3485 25.5264 34.4491 28.0045L34.4812 28.7942H32.6209H30.7607L30.7607 28.4462C30.7606 27.5453 30.6114 26.6322 30.3314 25.8183C30.0602 25.03 30.1241 25.0749 29.5998 25.3052C29.3553 25.4127 29.1487 25.5047 29.1406 25.5097C29.1326 25.5147 29.2142 25.7752 29.322 26.0887C29.6117 26.9304 29.6756 27.3561 29.7088 28.6622L29.7378 29.8021H32.6271H35.5164L35.4888 28.4462C35.4584 26.9587 35.3843 26.3427 35.104 25.2476C34.8942 24.428 34.6213 23.7145 34.1932 22.8665C32.9545 20.4124 30.9346 18.4494 28.4155 17.2514C26.681 16.4266 25.0534 16.0435 23.1285 16.0069C22.6123 15.9971 22.0788 15.9979 21.9429 16.0086ZM26.9871 24.5651L24.3256 27.1514L23.974 26.9897C23.2521 26.6575 22.4561 26.66 21.7245 26.9967C21.2777 27.2022 20.7194 27.7254 20.52 28.1252C20.013 29.1418 20.1988 30.2936 20.9943 31.0658C21.5527 31.6078 22.0842 31.8242 22.8568 31.8242C23.6294 31.8242 24.1609 31.6078 24.7193 31.0658C25.5136 30.2948 25.7005 29.1417 25.1953 28.1286L25.0669 27.8711L27.7283 25.2849L30.3896 22.6988L30.0191 22.3388L29.6486 21.9788L26.9871 24.5651ZM23.1631 27.791C23.933 27.9462 24.4776 28.6323 24.4245 29.3803C24.3845 29.9439 24.0736 30.3985 23.5383 30.6759C23.3599 30.7682 23.2513 30.7858 22.8568 30.7858C22.4623 30.7858 22.3537 30.7682 22.1753 30.6759C21.64 30.3985 21.3291 29.9439 21.2891 29.3803C21.2377 28.6563 21.7514 27.978 22.4817 27.8058C22.807 27.729 22.8509 27.7281 23.1631 27.791Z" fill="black"/>
</svg>
    