<svg width="18" height="18" viewBox="0 0 18 18" fill="none" xmlns="http://www.w3.org/2000/svg">
<path d="M2.52002 11.8311H4.61947C4.99067 11.8311 5.34667 11.9774 5.60915 12.2379C5.87164 12.4983 6.0191 12.8516 6.0191 13.2199V15.3031M6.0191 2.80392V4.88712C6.0191 5.25545 5.87164 5.6087 5.60915 5.86915C5.34667 6.1296 4.99067 6.27592 4.61947 6.27592H2.52002L6.0191 2.80392ZM15.1167 6.27592H13.0173C12.646 6.27592 12.29 6.1296 12.0276 5.86915C11.7651 5.6087 11.6176 5.25545 11.6176 4.88712V2.80392L15.1167 6.27592ZM11.6176 15.3031V13.2199C11.6176 12.8516 11.7651 12.4983 12.0276 12.2379C12.29 11.9774 12.646 11.8311 13.0173 11.8311H15.1167L11.6176 15.3031Z" stroke="#FFC01F" stroke-width="1.5872" stroke-linecap="round" stroke-linejoin="round"/>
</svg>
