<svg width="70" height="70" viewBox="0 0 70 70" fill="none" xmlns="http://www.w3.org/2000/svg">
<path d="M38.8077 65.3516C37.7246 64.9936 36.6063 64.6808 35.9782 61.9757C35.3999 64.4673 34.4743 64.9138 33.1489 65.3516C35.3091 66.0652 35.635 67.2473 35.9782 68.7272C36.5702 66.1768 37.5494 65.768 38.8077 65.3516Z" fill="#FFC01F"/>
<path d="M38.8077 65.3516C37.7246 64.9936 36.6063 64.6808 35.9782 61.9757C35.3999 64.4673 34.4743 64.9138 33.1489 65.3516C35.3091 66.0652 35.635 67.2473 35.9782 68.7272C36.5702 66.1768 37.5494 65.768 38.8077 65.3516Z" fill="#FFC01F"/>
<path d="M60.0927 39.1926C59.0096 38.8347 57.8909 38.5219 57.2631 35.8168C56.6848 38.3083 55.7592 38.7549 54.4336 39.1926C56.5938 39.9063 56.9197 41.0884 57.2631 42.5682C57.8551 40.017 58.834 39.6083 60.0927 39.1926Z" fill="#FFC01F"/>
<path d="M60.0927 39.1926C59.0096 38.8347 57.8909 38.5219 57.2631 35.8168C56.6848 38.3083 55.7592 38.7549 54.4336 39.1926C56.5938 39.9063 56.9197 41.0884 57.2631 42.5682C57.8551 40.017 58.834 39.6083 60.0927 39.1926Z" fill="#FFC01F"/>
<path d="M51.2012 31.3772V45.4018C49.6803 45.4018 48.1742 45.7015 46.7691 46.2836C45.364 46.8657 44.0874 47.7189 43.012 48.7945C41.9367 49.87 41.0838 51.1469 40.5019 52.5521C39.9201 53.9573 39.6208 55.4634 39.6211 56.9843C39.6199 57.752 39.696 58.5178 39.848 59.2703H8.30703C8.01806 59.2698 7.74109 59.1547 7.53701 58.9501C7.33294 58.7455 7.21846 58.4682 7.21875 58.1792V31.3769C7.21846 31.0879 7.33294 30.8107 7.53701 30.6061C7.74109 30.4015 8.01806 30.2863 8.30703 30.2859H50.1102C50.2535 30.2858 50.3954 30.314 50.5278 30.3688C50.6602 30.4236 50.7805 30.504 50.8819 30.6054C50.9832 30.7067 51.0636 30.8271 51.1183 30.9595C51.1731 31.0919 51.2013 31.2339 51.2012 31.3772Z" fill="#FFC01F"/>
<path d="M51.2012 43.4878V45.4019C49.6803 45.4019 48.1742 45.7015 46.7691 46.2836C45.364 46.8658 44.0874 47.719 43.012 48.7945C41.9367 49.8701 41.0838 51.147 40.5019 52.5522C39.9201 53.9574 39.6208 55.4635 39.6211 56.9844C39.6199 57.7521 39.696 58.5179 39.848 59.2703H37.8984C37.771 58.515 37.707 57.7504 37.707 56.9844C37.7107 53.4064 39.1335 49.976 41.6633 47.4458C44.1931 44.9156 47.6232 43.4921 51.2012 43.4878Z" fill="#FFC01F"/>
<path d="M24.4803 51.1L21.295 47.915C20.9059 47.5455 20.5947 47.1018 20.3799 46.6101C20.165 46.1184 20.0507 45.5887 20.0438 45.0521C20.0369 44.5156 20.1375 43.9831 20.3396 43.486C20.5418 42.989 20.8414 42.5374 21.2209 42.158C21.6003 41.7786 22.0519 41.479 22.549 41.2769C23.0461 41.0748 23.5786 40.9743 24.1151 40.9812C24.6517 40.9882 25.1814 41.1025 25.673 41.3174C26.1647 41.5324 26.6084 41.8436 26.9778 42.2327L27.3216 42.5764L31.4414 38.4562C31.8112 38.0683 32.2549 37.7583 32.7463 37.5443C33.2376 37.3304 33.7669 37.2169 34.3028 37.2105C34.8387 37.2041 35.3704 37.3049 35.8668 37.507C36.3631 37.7092 36.8141 38.0085 37.193 38.3875C37.572 38.7665 37.8714 39.2174 38.0735 39.7137C38.2756 40.2101 38.3764 40.7419 38.37 41.2778C38.3636 41.8137 38.2501 42.3429 38.0362 42.8343C37.8222 43.3257 37.5122 43.7693 37.1243 44.1391L30.1631 51.1003C29.7902 51.4737 29.3472 51.77 28.8596 51.9722C28.3721 52.1743 27.8494 52.2783 27.3216 52.2783C26.7938 52.2783 26.2712 52.1742 25.7836 51.972C25.2961 51.7698 24.8532 51.4735 24.4803 51.1Z" fill="#FFC01F"/>
<path d="M25.8344 49.7468L22.6488 46.5615C22.4414 46.3689 22.275 46.1364 22.1594 45.878C22.0439 45.6196 21.9817 45.3406 21.9764 45.0576C21.9712 44.7746 22.0231 44.4935 22.129 44.231C22.2349 43.9685 22.3926 43.73 22.5928 43.5299C22.7929 43.3298 23.0313 43.172 23.2938 43.0661C23.5563 42.9602 23.8375 42.9083 24.1205 42.9136C24.4035 42.9188 24.6825 42.9811 24.9409 43.0966C25.1993 43.2121 25.4317 43.3785 25.6244 43.586L27.3221 45.2835L32.7953 39.8101C32.9882 39.6039 33.2206 39.4387 33.4787 39.3242C33.7368 39.2097 34.0153 39.1483 34.2976 39.1436C34.5799 39.1389 34.8603 39.1911 35.122 39.297C35.3838 39.4028 35.6215 39.5603 35.8212 39.7599C36.0209 39.9596 36.1783 40.1973 36.2842 40.4591C36.3901 40.7208 36.4423 41.0012 36.4377 41.2835C36.433 41.5658 36.3716 41.8443 36.2572 42.1024C36.1427 42.3605 35.9775 42.5929 35.7714 42.7859L28.8102 49.7471C28.4154 50.1413 27.8802 50.3628 27.3222 50.3627C26.7642 50.3627 26.2291 50.1411 25.8344 49.7468Z" fill="white"/>
<path d="M46.3787 18.4408V24.9374H39.8384V18.4408C39.8241 15.6314 38.6981 12.9418 36.7064 10.9602C34.7148 8.97863 32.0195 7.86623 29.21 7.86623C26.4005 7.86623 23.7053 8.97863 21.7136 10.9602C19.7219 12.9418 18.5959 15.6314 18.5816 18.4408V30.2867H12.041V18.4408C12.041 13.8874 13.8499 9.5204 17.0697 6.30062C20.2894 3.08083 24.6564 1.27197 29.2099 1.27197C33.7633 1.27197 38.1303 3.08083 41.3501 6.30062C44.5699 9.5204 46.3787 13.8874 46.3787 18.4408Z" fill="#EFEFEF"/>
<path d="M18.5816 28.6287H12.041V30.2865H18.5816V28.6287Z" fill="white"/>
<path d="M62.7813 56.9844C62.7817 59.8571 61.7144 62.6275 59.7866 64.7574C57.8588 66.8872 55.2081 68.2245 52.3495 68.5094C49.4909 68.7944 46.6285 68.0066 44.3182 66.2992C42.0079 64.5918 40.4147 62.0866 39.8481 59.2703C39.696 58.5179 39.6199 57.752 39.6211 56.9844C39.6211 55.4637 39.9206 53.9578 40.5026 52.5529C41.0845 51.1479 41.9375 49.8713 43.0128 48.796C44.0881 47.7207 45.3647 46.8677 46.7697 46.2858C48.1746 45.7038 49.6805 45.4043 51.2012 45.4043C52.7219 45.4043 54.2277 45.7038 55.6327 46.2858C57.0377 46.8677 58.3142 47.7207 59.3895 48.796C60.4648 49.8713 61.3178 51.1479 61.8998 52.5529C62.4817 53.9578 62.7813 55.4637 62.7813 56.9844Z" fill="white"/>
<path d="M57.2634 64.452V66.8528C55.4394 67.972 53.3412 68.5645 51.2013 68.5645C49.0613 68.5645 46.9631 67.972 45.1392 66.8528V64.452C45.1392 62.8442 45.7778 61.3023 46.9147 60.1654C48.0516 59.0286 49.5935 58.3899 51.2013 58.3899C52.809 58.3899 54.351 59.0286 55.4878 60.1654C56.6247 61.3023 57.2634 62.8442 57.2634 64.452Z" fill="#E824B1"/>
<path d="M51.2009 58.3909C53.2837 58.3909 54.9722 56.7024 54.9722 54.6196C54.9722 52.5368 53.2837 50.8484 51.2009 50.8484C49.1181 50.8484 47.4297 52.5368 47.4297 54.6196C47.4297 56.7024 49.1181 58.3909 51.2009 58.3909Z" fill="#BC794B"/>
<path d="M49.0225 42.3776C48.8412 42.3776 48.6673 42.3056 48.5391 42.1774C48.4109 42.0492 48.3389 41.8753 48.3389 41.694V40.8737C48.3389 40.6924 48.4109 40.5185 48.5391 40.3903C48.6673 40.2621 48.8412 40.1901 49.0225 40.1901C49.2038 40.1901 49.3776 40.2621 49.5058 40.3903C49.634 40.5185 49.7061 40.6924 49.7061 40.8737V41.694C49.7061 41.8753 49.634 42.0492 49.5058 42.1774C49.3776 42.3056 49.2038 42.3776 49.0225 42.3776ZM49.0225 38.8229C48.8412 38.8229 48.6673 38.7509 48.5391 38.6227C48.4109 38.4945 48.3389 38.3206 48.3389 38.1393V32.4354C48.3389 32.2541 48.4109 32.0802 48.5391 31.9521C48.6673 31.8239 48.8412 31.7518 49.0225 31.7518C49.2038 31.7518 49.3776 31.8239 49.5058 31.9521C49.634 32.0802 49.7061 32.2541 49.7061 32.4354V38.1393C49.7061 38.3206 49.634 38.4945 49.5058 38.6227C49.3776 38.7509 49.2038 38.8229 49.0225 38.8229Z" fill="#FFD35A"/>
<path d="M36.3877 57.7421H12.9541C12.7728 57.7421 12.5989 57.67 12.4707 57.5418C12.3425 57.4136 12.2705 57.2398 12.2705 57.0585C12.2705 56.8772 12.3425 56.7033 12.4707 56.5751C12.5989 56.4469 12.7728 56.3749 12.9541 56.3749H36.3877C36.569 56.3749 36.7429 56.4469 36.8711 56.5751C36.9993 56.7033 37.0713 56.8772 37.0713 57.0585C37.0713 57.2398 36.9993 57.4136 36.8711 57.5418C36.7429 57.67 36.569 57.7421 36.3877 57.7421ZM10.2197 57.7421H9.39941C9.21811 57.7421 9.04424 57.67 8.91604 57.5418C8.78784 57.4136 8.71582 57.2398 8.71582 57.0585C8.71582 56.8772 8.78784 56.7033 8.91604 56.5751C9.04424 56.4469 9.21811 56.3749 9.39941 56.3749H10.2197C10.401 56.3749 10.5749 56.4469 10.7031 56.5751C10.8313 56.7033 10.9033 56.8772 10.9033 57.0585C10.9033 57.2398 10.8313 57.4136 10.7031 57.5418C10.5749 57.67 10.401 57.7421 10.2197 57.7421Z" fill="#FFD35A"/>
<path d="M58.5956 61.8573C58.4373 61.769 58.3206 61.6215 58.2711 61.4471C58.2215 61.2728 58.2433 61.0859 58.3315 60.9276C59.0189 59.6902 59.3731 58.2954 59.3593 56.88C59.3454 55.4645 58.9641 54.077 58.2525 52.8533C57.541 51.6296 56.5237 50.6117 55.3004 49.8995C54.0771 49.1873 52.6898 48.8052 51.2743 48.7905C49.8805 48.7899 48.5088 49.1394 47.2852 49.8069C46.0616 50.4744 45.0252 51.4386 44.2713 52.611C44.1746 52.7644 44.021 52.8731 43.8442 52.9133C43.6673 52.9534 43.4818 52.9216 43.3284 52.825C43.1749 52.7283 43.0662 52.5746 43.0261 52.3978C42.986 52.221 43.0177 52.0354 43.1144 51.882C43.9923 50.5149 45.1995 49.3902 46.6253 48.6112C48.051 47.8321 49.6496 47.4237 51.2743 47.4233C52.928 47.438 54.5494 47.8823 55.9795 48.7129C57.4095 49.5434 58.599 50.7315 59.4312 52.1606C60.2634 53.5897 60.7097 55.2106 60.7262 56.8643C60.7428 58.5179 60.329 60.1474 59.5256 61.5929C59.4819 61.6713 59.4232 61.7404 59.3528 61.7961C59.2824 61.8518 59.2017 61.8931 59.1154 61.9177C59.029 61.9423 58.9387 61.9496 58.8495 61.9392C58.7603 61.9288 58.674 61.901 58.5956 61.8573ZM42.3515 56.2275C42.1725 56.199 42.0122 56.1006 41.9057 55.9539C41.7993 55.8072 41.7554 55.6242 41.7839 55.4452C41.8303 55.1529 41.8899 54.8619 41.9613 54.5817C41.9814 54.4926 42.0191 54.4084 42.0722 54.3341C42.1253 54.2599 42.1928 54.197 42.2706 54.1492C42.3484 54.1014 42.435 54.0697 42.5253 54.056C42.6155 54.0422 42.7077 54.0467 42.7962 54.0691C42.8847 54.0916 42.9678 54.1315 43.0406 54.1866C43.1135 54.2417 43.1745 54.3108 43.2202 54.3899C43.2658 54.469 43.2952 54.5564 43.3065 54.647C43.3179 54.7376 43.3109 54.8296 43.2861 54.9174C43.2254 55.1581 43.174 55.4077 43.1341 55.6598C43.12 55.7485 43.0885 55.8335 43.0416 55.91C42.9946 55.9865 42.933 56.053 42.8604 56.1057C42.7877 56.1584 42.7054 56.1963 42.618 56.2172C42.5307 56.2381 42.4402 56.2416 42.3515 56.2275Z" fill="white"/>
<path d="M39.0355 64.6316C38.0162 64.2958 37.2196 64.0787 36.6864 61.7821C36.6487 61.6226 36.5582 61.4805 36.4297 61.3788C36.3011 61.2771 36.142 61.2218 35.9781 61.2218C35.8142 61.2218 35.6551 61.2771 35.5265 61.3788C35.398 61.4805 35.3075 61.6226 35.2698 61.7821C34.7483 64.0279 34.0212 64.2682 32.9206 64.6319C32.7757 64.6802 32.6496 64.7729 32.5603 64.8968C32.4709 65.0208 32.4229 65.1697 32.4229 65.3225C32.4229 65.4752 32.4709 65.6242 32.5603 65.7481C32.6496 65.872 32.7757 65.9647 32.9206 66.013C34.7489 66.6168 34.9558 67.5101 35.2695 68.8622C35.3068 69.0222 35.3971 69.1648 35.5258 69.267C35.6544 69.3691 35.8138 69.4247 35.9781 69.4247C36.1423 69.4247 36.3018 69.3691 36.4304 69.267C36.5591 69.1648 36.6494 69.0222 36.6867 68.8622C37.2062 66.6168 37.9743 66.3636 39.0355 66.013C39.1805 65.9647 39.3065 65.8719 39.3958 65.748C39.4851 65.624 39.5331 65.4751 39.5331 65.3223C39.5331 65.1695 39.4851 65.0206 39.3958 64.8967C39.3065 64.7727 39.1805 64.68 39.0355 64.6316ZM35.9924 66.5429C35.7068 66.0625 35.318 65.6516 34.8541 65.3398C35.3251 65.0127 35.7113 64.5779 35.9807 64.0716C36.2435 64.5677 36.6154 64.9978 37.0684 65.3294C36.622 65.6467 36.254 66.0618 35.9924 66.5429Z" fill="black"/>
<path d="M54.2058 39.8532C56.034 40.457 56.2413 41.3503 56.5549 42.7025C56.5921 42.8625 56.6823 43.0052 56.811 43.1074C56.9396 43.2096 57.0991 43.2652 57.2634 43.2652C57.4277 43.2652 57.5871 43.2096 57.7158 43.1074C57.8444 43.0052 57.9347 42.8625 57.9719 42.7025C58.4928 40.457 59.2598 40.2035 60.321 39.8532C60.4659 39.8049 60.5919 39.7121 60.6812 39.5882C60.7705 39.4642 60.8186 39.3153 60.8186 39.1625C60.8186 39.0098 60.7705 38.8608 60.6812 38.7369C60.5919 38.6129 60.4659 38.5202 60.321 38.4718C59.3013 38.136 58.5051 37.9189 57.9719 35.6223C57.9341 35.4628 57.8437 35.3207 57.7151 35.219C57.5865 35.1173 57.4274 35.062 57.2635 35.062C57.0996 35.062 56.9405 35.1173 56.8119 35.219C56.6834 35.3207 56.5929 35.4628 56.5552 35.6223C56.0337 37.8681 55.3067 38.1082 54.2058 38.4721C54.0609 38.5204 53.9348 38.6131 53.8454 38.737C53.7561 38.861 53.708 39.0099 53.708 39.1627C53.708 39.3155 53.7561 39.4644 53.8454 39.5883C53.9348 39.7123 54.0609 39.8049 54.2058 39.8532ZM57.2661 37.9118C57.5289 38.408 57.9008 38.8381 58.3539 39.1696C57.9074 39.4871 57.5394 39.9024 57.2779 40.3837C56.9921 39.9033 56.6032 39.4923 56.1393 39.1806C56.6106 38.8531 56.9969 38.4179 57.2661 37.911V37.9118Z" fill="black"/>
<path d="M29.2931 50.2001L36.2546 43.2387C36.5258 42.9826 36.7429 42.6747 36.8931 42.3332C37.0432 41.9918 37.1233 41.6236 37.1287 41.2507C37.134 40.8777 37.0645 40.5074 36.9242 40.1618C36.7839 39.8161 36.5757 39.5021 36.3119 39.2384C36.0481 38.9746 35.7341 38.7665 35.3885 38.6262C35.0428 38.486 34.6725 38.4165 34.2995 38.4219C33.9266 38.4273 33.5584 38.5075 33.217 38.6577C32.8755 38.8078 32.5677 39.025 32.3116 39.2963L27.3217 44.2862L26.1079 43.0727C25.8521 42.8004 25.5442 42.5824 25.2025 42.4314C24.8608 42.2804 24.4923 42.1996 24.1188 42.1937C23.7452 42.1879 23.3744 42.2571 23.0281 42.3974C22.6819 42.5376 22.3673 42.746 22.1032 43.0101C21.839 43.2743 21.6306 43.5888 21.4903 43.935C21.35 44.2812 21.2807 44.6521 21.2865 45.0256C21.2923 45.3991 21.373 45.7677 21.524 46.1094C21.6749 46.4511 21.893 46.759 22.1652 47.0149L25.3507 50.2001C25.8737 50.7226 26.5827 51.0161 27.3219 51.0161C28.0612 51.0161 28.7702 50.7226 29.2931 50.2001ZM23.1329 44.039C23.2648 43.907 23.4214 43.8022 23.5938 43.7307C23.7662 43.6592 23.951 43.6225 24.1376 43.6225C24.3243 43.6225 24.5091 43.6592 24.6815 43.7307C24.8539 43.8022 25.0105 43.907 25.1424 44.039L26.8399 45.7363C26.9681 45.8644 27.1419 45.9364 27.3232 45.9364C27.5044 45.9364 27.6783 45.8644 27.8065 45.7363L33.2774 40.2634C33.4072 40.1223 33.5641 40.0088 33.7389 39.9299C33.9136 39.851 34.1025 39.8082 34.2941 39.8042C34.4858 39.8002 34.6763 39.8349 34.8542 39.9064C35.0321 39.9779 35.1937 40.0846 35.3293 40.2201C35.4649 40.3557 35.5717 40.5172 35.6433 40.6951C35.7148 40.873 35.7497 41.0635 35.7457 41.2552C35.7417 41.4468 35.699 41.6357 35.6202 41.8105C35.5414 41.9853 35.428 42.1423 35.2869 42.2721L28.3255 49.2335C28.1936 49.3655 28.037 49.4703 27.8647 49.5417C27.6923 49.6132 27.5076 49.6499 27.321 49.6499C27.1344 49.6499 26.9497 49.6132 26.7773 49.5417C26.6049 49.4703 26.4484 49.3655 26.3165 49.2335L23.1329 46.0483C23.0008 45.9164 22.8961 45.7598 22.8246 45.5874C22.7531 45.415 22.7163 45.2303 22.7163 45.0436C22.7163 44.857 22.7531 44.6722 22.8246 44.4999C22.8961 44.3275 23.0008 44.1709 23.1329 44.039Z" fill="black"/>
<path d="M7.21895 37.397C7.35426 37.3975 7.4867 37.3579 7.59947 37.2831C7.71225 37.2083 7.80029 37.1017 7.85245 36.9769C7.90461 36.852 7.91854 36.7145 7.89247 36.5817C7.8664 36.4489 7.80151 36.3269 7.70602 36.231C7.61053 36.1351 7.48873 36.0697 7.35605 36.0431C7.22337 36.0165 7.08579 36.0299 6.96072 36.0816C6.83565 36.1332 6.72872 36.2208 6.65349 36.3333C6.57825 36.4458 6.53809 36.5781 6.53809 36.7134C6.53808 36.8942 6.60973 37.0677 6.73734 37.1958C6.86495 37.3239 7.03812 37.3962 7.21895 37.397Z" fill="black"/>
<path d="M31.0901 2.03056C31.2703 2.05086 31.4511 1.99876 31.5929 1.88572C31.7347 1.77267 31.8257 1.60794 31.846 1.42777C31.8663 1.24759 31.8142 1.06673 31.7012 0.924964C31.5881 0.783201 31.4234 0.692153 31.2432 0.671847H31.2405C31.0619 0.654998 30.8838 0.709025 30.7447 0.822274C30.6056 0.935522 30.5166 1.09892 30.4968 1.27721C30.4771 1.45551 30.5282 1.63442 30.6392 1.77535C30.7502 1.91628 30.9121 2.00794 31.0901 2.03056Z" fill="black"/>
<path d="M56.875 46.0758H56.8723C56.738 46.0762 56.6093 46.1298 56.5145 46.225C56.4197 46.3202 56.3665 46.4491 56.3667 46.5834C56.3669 46.7178 56.4204 46.8465 56.5154 46.9415C56.6105 47.0364 56.7393 47.0897 56.8736 47.0897C57.008 47.0897 57.1368 47.0364 57.2319 46.9415C57.3269 46.8465 57.3804 46.7178 57.3806 46.5834C57.3808 46.4491 57.3276 46.3202 57.2328 46.225C57.138 46.1298 57.0094 46.0762 56.875 46.0758Z" fill="black"/>
<path d="M59.258 47.7056C59.1191 47.5913 58.9417 47.5345 58.7623 47.5468C58.5829 47.559 58.4149 47.6394 58.2928 47.7715C58.1747 47.9087 58.1154 48.0869 58.1277 48.2675C58.14 48.4481 58.2229 48.6167 58.3584 48.7367C59.5662 49.7893 60.527 51.0952 61.1725 52.5615C61.8181 54.0277 62.1323 55.6183 62.093 57.2199C62.0537 58.8215 61.6617 60.3947 60.9451 61.8275C60.2284 63.2604 59.2046 64.5176 57.9466 65.5096V64.4208C57.9452 63.0908 57.5514 61.7908 56.8144 60.6837C56.0773 59.5766 55.03 58.7117 53.8035 58.1973C54.5691 57.647 55.1404 56.868 55.4352 55.9724C55.73 55.0768 55.7331 54.1107 55.444 53.2133C55.155 52.3158 54.5886 51.5331 53.8265 50.9779C53.0644 50.4228 52.1458 50.1236 51.2029 50.1236C50.2601 50.1236 49.3415 50.4228 48.5794 50.9779C47.8173 51.5331 47.2509 52.3158 46.9619 53.2133C46.6728 54.1107 46.6759 55.0768 46.9707 55.9724C47.2655 56.868 47.8368 57.647 48.6024 58.1973C47.3751 58.7114 46.3267 59.5762 45.5888 60.6835C44.8508 61.7908 44.4561 63.0912 44.4541 64.4219V65.5102C42.4979 63.9659 41.13 61.798 40.5784 59.3676C40.0267 56.9372 40.3246 54.3911 41.4224 52.1537C42.5201 49.9163 44.3515 48.1226 46.6113 47.0717C48.8711 46.0207 51.4228 45.7759 53.8412 46.378C54.0169 46.4197 54.202 46.3909 54.3568 46.298C54.5117 46.205 54.624 46.0551 54.6697 45.8804C54.6917 45.7933 54.6963 45.7027 54.6832 45.6138C54.67 45.5249 54.6395 45.4395 54.5932 45.3625C54.547 45.2855 54.486 45.2183 54.4137 45.165C54.3414 45.1116 54.2593 45.0731 54.1721 45.0516C53.4225 44.866 52.6572 44.7513 51.8861 44.709L51.8834 31.3469C51.8821 30.8771 51.6951 30.4269 51.3631 30.0945C51.0312 29.7621 50.5813 29.5745 50.1115 29.5725H19.265V18.4097C19.265 15.7722 20.3128 13.2426 22.1778 11.3776C24.0429 9.51257 26.5724 8.46481 29.21 8.46481C31.8475 8.46481 34.3771 9.51257 36.2421 11.3776C38.1071 13.2426 39.1549 15.7722 39.1549 18.4097V24.9102C39.1554 25.0913 39.2276 25.2649 39.3557 25.393C39.4837 25.5211 39.6573 25.5932 39.8385 25.5938H46.3791C46.5602 25.593 46.7336 25.5207 46.8616 25.3927C46.9896 25.2646 47.0619 25.0912 47.0627 24.9102V18.4097C47.0613 14.5151 45.7874 10.7276 43.4348 7.62378C41.0823 4.51996 37.78 2.26985 34.0307 1.21598C33.8559 1.16923 33.6699 1.19287 33.5124 1.28183C33.3549 1.3708 33.2386 1.51798 33.1885 1.69176C33.1638 1.7781 33.1565 1.86848 33.1669 1.95767C33.1774 2.04686 33.2054 2.13309 33.2494 2.21138C33.2934 2.28967 33.3525 2.35846 33.4232 2.41378C33.4939 2.4691 33.5749 2.50985 33.6615 2.53368C37.1205 3.51207 40.1665 5.59111 42.338 8.45586C44.5094 11.3206 45.6881 14.815 45.6955 18.4097V24.2266H40.5234V18.4097C40.5234 15.4096 39.3316 12.5323 37.2102 10.4109C35.0888 8.28943 32.2115 7.09762 29.2113 7.09762C26.2112 7.09762 23.3339 8.28943 21.2125 10.4109C19.091 12.5323 17.8992 15.4096 17.8992 18.4097V29.5714H12.7244V18.4097C12.716 14.1638 14.3496 10.0791 17.2834 7.0098C20.2173 3.94054 24.2242 2.12447 28.4662 1.94141C28.6471 1.9336 28.8175 1.85436 28.94 1.72108C29.0625 1.58779 29.1271 1.41136 29.1197 1.23047C29.1171 1.14028 29.0963 1.05155 29.0588 0.969511C29.0212 0.887476 28.9676 0.813811 28.901 0.752876C28.8345 0.691942 28.7564 0.644976 28.6714 0.614759C28.5863 0.584542 28.4961 0.571688 28.4061 0.576957C23.8149 0.78283 19.48 2.75176 16.3042 6.07376C13.1284 9.39575 11.3564 13.8147 11.3572 18.4106V29.5723H8.30566C7.83623 29.5744 7.38671 29.7622 7.05525 30.0947C6.72379 30.4271 6.53731 30.8772 6.53652 31.3466V33.9828C6.53062 34.076 6.54388 34.1695 6.5755 34.2574C6.60711 34.3453 6.6564 34.4258 6.72033 34.4939C6.78426 34.562 6.86147 34.6163 6.9472 34.6534C7.03292 34.6905 7.12534 34.7096 7.21875 34.7096C7.31216 34.7096 7.40458 34.6905 7.4903 34.6534C7.57603 34.6163 7.65324 34.562 7.71717 34.4939C7.7811 34.4258 7.83039 34.3453 7.862 34.2574C7.89362 34.1695 7.90688 34.076 7.90098 33.9828V31.3466C7.90175 31.2393 7.94456 31.1366 8.02022 31.0604C8.09588 30.9843 8.19835 30.9409 8.30566 30.9395H50.1115C50.2192 30.9399 50.3222 30.983 50.3981 31.0593C50.4739 31.1357 50.5164 31.239 50.5162 31.3466V44.707C47.3867 44.8815 44.4429 46.2479 42.2897 48.5256C40.1364 50.8032 38.9374 53.8191 38.9389 56.9535C38.9396 57.4893 38.9749 58.0245 39.0444 58.5558H8.30566C8.19831 58.5544 8.09579 58.5109 8.02012 58.4347C7.94446 58.3586 7.90168 58.2558 7.90098 58.1484V39.4477C7.88999 39.2743 7.81333 39.1115 7.6866 38.9925C7.55986 38.8736 7.39257 38.8074 7.21875 38.8074C7.04493 38.8074 6.87764 38.8736 6.7509 38.9925C6.62417 39.1115 6.54751 39.2743 6.53652 39.4477V58.1484C6.53616 58.6182 6.72226 59.069 7.05396 59.4017C7.38566 59.7344 7.83584 59.9219 8.30566 59.923H39.3012C39.7679 61.7909 40.6679 63.5227 41.9282 64.9782C43.1886 66.4338 44.7739 67.5721 46.556 68.301C48.338 69.03 50.2666 69.3292 52.1857 69.1743C54.1048 69.0195 55.9605 68.415 57.6026 67.4097C59.2447 66.4044 60.627 65.0266 61.6377 63.3879C62.6484 61.7491 63.259 59.8954 63.4202 57.9768C63.5814 56.0582 63.2886 54.1286 62.5655 52.3442C61.8424 50.5598 60.7093 48.9707 59.258 47.7056ZM48.1127 54.591C48.1118 53.9813 48.2914 53.3849 48.6287 52.877C48.966 52.3691 49.4461 51.9724 50.0085 51.7368C50.5708 51.5011 51.1903 51.4371 51.7889 51.5529C52.3876 51.6686 52.9386 51.9588 53.3726 52.387C53.8067 52.8153 54.1043 53.3623 54.2281 53.9594C54.3518 54.5564 54.2962 55.1767 54.0682 55.7421C53.8401 56.3076 53.4499 56.793 52.9466 57.1371C52.4433 57.4813 51.8494 57.6688 51.2397 57.6762C51.2272 57.6762 51.2151 57.6762 51.2025 57.6762C51.19 57.6762 51.1782 57.6762 51.1659 57.6762C50.3545 57.6637 49.5803 57.3337 49.0095 56.7569C48.4386 56.1801 48.1167 55.4025 48.1127 54.591ZM45.8213 66.4265V64.4219C45.8213 62.9954 46.388 61.6274 47.3966 60.6187C48.4053 59.61 49.7733 59.0434 51.1998 59.0434C52.6263 59.0434 53.9943 59.61 55.003 60.6187C56.0117 61.6274 56.5783 62.9954 56.5783 64.4219V66.4284C54.9391 67.3609 53.0857 67.8512 51.1998 67.8512C49.3139 67.8512 47.4605 67.3609 45.8213 66.4284V66.4265Z" fill="black"/>
</svg>
