<svg width="70" height="70" viewBox="0 0 70 70" fill="none" xmlns="http://www.w3.org/2000/svg">
<path d="M5.81592 7.11512V52.7193C5.81592 53.4931 6.53861 54.2306 7.84564 54.9013C11.7667 56.9136 20.9463 58.3259 31.6459 58.3259C37.9432 58.3259 43.7152 57.837 48.1952 57.024L46.0211 54.8499L50.5374 50.3336L55.219 55.0118C56.6693 54.3113 57.4756 53.535 57.4756 52.7188V7.11512C57.4756 4.01598 45.912 1.505 31.6456 1.505C17.3793 1.505 5.81592 4.01598 5.81592 7.11512Z" fill="#F1EEE8"/>
<path d="M31.6457 52.591C41.1256 52.591 48.8105 44.9061 48.8105 35.4262C48.8105 25.9464 41.1256 18.2615 31.6457 18.2615C22.1659 18.2615 14.481 25.9464 14.481 35.4262C14.481 44.9061 22.1659 52.591 31.6457 52.591Z" fill="#FFC01F"/>
<path d="M31.6459 23.4913C38.2346 23.4913 43.5779 28.8346 43.5779 35.4293C43.5779 42.0255 38.2245 47.3613 31.6459 47.3613C25.0773 47.3613 19.7139 42.035 19.7139 35.4293C19.7141 28.8346 25.0574 23.4913 31.6459 23.4913Z" fill="white"/>
<path d="M31.462 50.8014C23.2257 50.8014 16.2676 43.663 16.2676 35.2135C16.2676 31.2416 17.8398 27.5699 20.8146 24.5951C21.0814 24.328 21.5146 24.328 21.7812 24.5951C22.0483 24.862 22.0483 25.2949 21.7812 25.5617C19.0684 28.2745 17.6345 31.6121 17.6345 35.2135C17.6345 42.922 23.9665 49.4342 31.4617 49.4342C31.661 49.4342 31.8612 49.4298 32.0627 49.4208C32.4409 49.406 32.7591 49.6962 32.7761 50.0732C32.793 50.4503 32.501 50.7697 32.1237 50.7866C31.9022 50.7965 31.6815 50.8014 31.462 50.8014ZM34.1321 49.8829C34.0465 49.5151 34.2754 49.1479 34.6431 49.0623C35.2154 48.9292 35.7946 48.7583 36.3644 48.5543C36.7196 48.4274 37.1112 48.612 37.2383 48.9677C37.3655 49.3232 37.1804 49.7145 36.8249 49.8416C36.2055 50.0631 35.5758 50.249 34.9527 50.394C34.5876 50.479 34.2179 50.2526 34.1321 49.8829Z" fill="white"/>
<path d="M46.021 54.8502L48.1951 57.0243L58.7315 67.5607C59.9803 68.8095 62.0023 68.8095 63.2514 67.5607C64.4969 66.3152 64.4969 64.2931 63.2514 63.0443L55.2194 55.0124L50.5379 50.3341L46.021 54.8502Z" fill="#FFC01F"/>
<path d="M30.0791 31.8716C31.0607 31.8716 31.8564 31.0758 31.8564 30.0942C31.8564 29.1126 31.0607 28.3169 30.0791 28.3169C29.0975 28.3169 28.3018 29.1126 28.3018 30.0942C28.3018 31.0758 29.0975 31.8716 30.0791 31.8716Z" fill="#E824B1"/>
<path d="M34.3003 42.5356C35.2819 42.5356 36.0776 41.7399 36.0776 40.7583C36.0776 39.7767 35.2819 38.981 34.3003 38.981C33.3187 38.981 32.5229 39.7767 32.5229 40.7583C32.5229 41.7399 33.3187 42.5356 34.3003 42.5356Z" fill="#E824B1"/>
<path d="M23.4534 2.47839C23.828 2.45105 24.1124 2.12292 24.0851 1.74831C24.0577 1.37644 23.7351 1.08933 23.3523 1.11667C22.9793 1.13937 22.6927 1.47706 22.7206 1.84675C22.7534 2.27386 23.1614 2.52597 23.4534 2.47839Z" fill="black"/>
<path d="M16.56 56.578C16.1882 56.5178 15.8382 56.7776 15.7807 57.1468C15.7206 57.5061 15.9587 57.864 16.3468 57.9288C16.7192 57.9862 17.07 57.7401 17.1288 57.36C17.1898 56.9944 16.9439 56.6412 16.56 56.578Z" fill="black"/>
<path d="M5.13287 52.7198C5.13287 53.8595 6.11178 54.7619 7.45271 55.4695C9.37033 56.4813 12.0281 57.0948 13.6228 57.4342C13.9641 57.5146 14.3526 57.2879 14.4322 56.9037C14.5079 56.5523 14.2865 56.1728 13.9017 56.0971C11.5037 55.5967 9.55408 54.9924 8.25799 54.3443C7.66928 54.0526 6.49978 53.3772 6.49978 52.7201V39.7266C8.41576 41.122 12.0317 42.0345 15.3064 42.6076C18.1351 49.0328 24.484 53.2752 31.6451 53.2752C35.966 53.2752 40.2119 51.7262 43.5768 48.6987L47.3902 52.5142L45.5374 54.367C45.2702 54.6339 45.2702 55.0668 45.5374 55.3336L46.7741 56.5704C42.4098 57.2641 37.0999 57.6417 31.6448 57.6417C27.3054 57.6417 23.0179 57.4038 19.2444 56.9499C18.8698 56.9062 18.528 57.1769 18.4843 57.5488C18.44 57.9165 18.7038 58.2635 19.0831 58.3089C22.9085 58.7683 27.2507 59.0089 31.6448 59.0089C37.5773 59.0089 43.3501 58.5659 47.9617 57.7579L58.2476 68.0441C59.7602 69.5565 62.2217 69.5565 63.7341 68.0441C65.2437 66.5345 65.244 64.0749 63.7341 62.5609L56.348 55.1767C57.2777 54.6101 58.1573 53.8037 58.1573 52.7198C58.1573 51.8648 58.1573 7.11321 58.1573 7.11321C58.1836 1.6811 37.2861 0.824966 31.6448 0.821411C29.7745 0.821411 27.9097 0.865161 26.1022 0.949927C25.7033 0.973716 25.4299 1.3043 25.4515 1.66633C25.4679 2.04094 25.7823 2.33352 26.1651 2.31711C27.9507 2.23235 29.7937 2.1886 31.6448 2.1886H31.653C36.7625 2.1886 53.1088 2.91293 56.4538 6.45149C56.8987 6.93356 56.9074 7.28875 56.4538 7.77493C53.1562 11.3496 36.5396 12.0378 31.6366 12.0378C22.4253 12.0378 10.5975 10.7795 7.1358 8.04946C6.27994 7.37434 6.32834 6.83895 7.09068 6.21579C9.69955 4.08243 17.3971 3.05594 20.7456 2.71661C21.1224 2.67723 21.3975 2.34036 21.3581 1.96739C21.3198 1.59278 20.9808 1.31661 20.6089 1.35489C16.6758 1.75821 5.17225 3.19786 5.13232 7.11348C5.13232 7.11403 5.13232 7.11457 5.13232 7.11539C5.13232 7.11567 5.13232 7.11621 5.13232 7.11649C5.13287 38.2542 5.13287 21.5649 5.13287 52.7198ZM6.50006 37.5826V24.5859C8.44666 26.0045 12.1668 26.9311 15.6444 27.5196C14.4109 30.0166 13.7981 32.6588 13.7981 35.4252C13.7981 37.3819 14.1131 39.2867 14.7278 41.1121C8.30393 39.8923 6.51838 38.3469 6.50006 37.5826ZM31.6454 51.9077C22.5169 51.9077 15.1653 44.5151 15.1653 35.4249C15.1653 26.375 22.489 18.9448 31.6454 18.9448C40.805 18.9448 48.1227 26.3758 48.1282 35.4249C48.1227 44.5203 40.7738 51.9077 31.6454 51.9077ZM56.7923 37.5703C56.7923 38.3302 55.021 39.8861 48.5627 41.1121C49.1776 39.287 49.4926 37.3819 49.4926 35.4252C49.4926 32.6676 48.8834 30.0262 47.6469 27.5196C51.1256 26.9311 54.8471 26.0039 56.7931 24.5848C56.7934 39.337 56.7923 37.3915 56.7923 37.5703ZM62.768 67.0772C61.7883 68.0567 60.1942 68.0567 59.2147 67.0772L46.9879 54.8502C48.4355 53.4026 47.9909 53.847 50.5377 51.3004L62.7675 63.5269C63.7447 64.5072 63.745 66.1 62.768 67.0772ZM55.348 54.1764L51.0206 49.8504C50.7535 49.5835 50.3209 49.5835 50.054 49.8507L48.357 51.5476L44.5557 47.7441C45.9954 46.2366 47.1482 44.5104 47.9838 42.6079C51.2599 42.0345 54.8774 41.1217 56.7931 39.7253V52.7201C56.7934 53.2995 55.8569 53.8975 55.348 54.1764ZM56.7934 9.28157C56.7934 24.3904 56.7926 22.2009 56.7926 22.4219C56.7926 23.5088 53.7085 25.1527 46.956 26.2473C43.7893 20.9666 38.0479 17.5777 31.6456 17.5777C25.2499 17.5777 19.505 20.9642 16.3364 26.2473C9.60439 25.1563 6.51947 23.5195 6.50006 22.4325V9.27774C11.2387 12.7274 25.7771 13.4053 31.6454 13.4053C37.8724 13.405 52.078 12.6861 56.7934 9.28157Z" fill="black"/>
<path d="M40.1056 42.8406C39.8527 43.1337 39.8872 43.5584 40.1685 43.8058C40.4411 44.0486 40.8756 44.0333 41.1338 43.7429C41.3826 43.4585 41.3525 43.0265 41.0709 42.7777C40.7974 42.5398 40.3435 42.5699 40.1056 42.8406Z" fill="black"/>
<path d="M31.6454 22.8085C24.6572 22.8085 19.0317 28.4725 19.0317 35.4303C19.0317 42.3661 24.6468 48.044 31.6481 48.044C34.306 48.044 36.8462 47.2264 38.9981 45.6815C39.2976 45.4652 39.3812 45.0419 39.154 44.7272C38.9407 44.4319 38.495 44.3581 38.1997 44.5714H38.197C36.2774 45.9495 34.0134 46.6768 31.6454 46.6768C26.2822 46.6768 21.8968 42.9499 20.7175 38.1018H25.4138C25.6489 38.1018 25.8649 37.9843 25.9907 37.7874L29.3865 32.4545C29.7048 32.5483 29.9917 32.5705 30.2845 32.5456L32.7906 38.8199C32.2131 39.2702 31.8396 39.9705 31.8396 40.7594C31.8396 42.1156 32.9442 43.2176 34.3005 43.2203C36.2105 43.2165 37.4026 41.1217 36.3997 39.4808L40.2067 35.3344H42.8922C42.9078 37.1937 42.4902 39.0088 41.5712 40.7266C41.385 41.0697 41.5285 41.4818 41.8501 41.6508C42.1654 41.826 42.5941 41.7156 42.7743 41.3719C43.7478 39.5562 44.2618 37.5027 44.2618 35.4301C44.2615 28.4708 38.6298 22.8085 31.6454 22.8085ZM30.0786 31.1893C29.4771 31.1866 28.9876 30.6971 28.9849 30.0928C28.9876 29.4913 29.4771 29.0018 30.0786 28.9991C30.6802 29.0018 31.1724 29.4913 31.1724 30.0928C31.1724 30.6971 30.6802 31.1866 30.0786 31.1893ZM34.3005 41.8507C33.6989 41.8507 33.2067 41.3612 33.2067 40.7596C33.2067 40.1433 33.7137 39.6659 34.3005 39.6632C34.9021 39.6659 35.3942 40.1553 35.3942 40.7596C35.3942 41.3612 34.9018 41.8507 34.3005 41.8507ZM39.906 33.9675C39.7146 33.9675 39.5313 34.0495 39.4028 34.1889L35.3912 38.5568C34.9885 38.3567 34.5356 38.2643 34.058 38.3113L31.5593 32.055C32.1532 31.6052 32.5396 30.8948 32.5396 30.0931C32.5396 28.7369 31.4349 27.6349 30.0786 27.6322C28.7224 27.6349 27.6177 28.7369 27.6177 30.0931C27.6177 30.7163 27.8517 31.2837 28.234 31.7173L25.0392 36.7349H20.4747C20.4249 36.3048 20.3965 35.87 20.3962 35.4306C20.4017 29.2036 25.434 24.1759 31.6454 24.1759C37.4013 24.1759 42.0891 28.4711 42.7978 33.9677H39.906V33.9675Z" fill="black"/>
</svg>
