<svg width="61" height="70" viewBox="0 0 61 70" fill="none" xmlns="http://www.w3.org/2000/svg">
<g clip-path="url(#clip0_866_14750)">
<path d="M36.1227 27.9359C37.7052 27.6148 39.6043 27.4543 40.8704 28.4176C42.1364 29.3809 42.4529 31.3075 42.1364 32.7524C41.8199 34.1974 40.8704 35.6423 39.9208 37.0873C41.5034 36.9268 43.2442 36.9268 44.6685 37.4084C46.2511 37.8901 47.5172 39.335 47.5172 40.9405C47.5172 43.0277 45.6181 44.4726 44.6685 46.2387C46.2511 45.757 47.8337 47.0414 48.3084 48.6469C48.7832 50.2524 48.1502 51.8579 47.3589 53.3029C45.4598 56.5139 42.1364 58.6011 38.813 60.3671C31.5332 64.5414 27.102 64.8625 19.664 68.5552C19.0309 68.8763 18.3979 69.1974 17.7649 69.1974C17.1318 69.1974 14.2832 69.5185 13.1754 68.3946C10.9598 65.9864 9.06074 63.257 7.16166 60.6882C5.42083 58.1194 3.83826 55.069 3.36349 52.0185C2.88872 48.4864 4.94606 44.9543 5.57909 41.4222C5.73735 39.9772 5.73735 38.5323 5.73735 37.2479C5.73735 32.913 5.73735 28.5781 4.47129 24.4038C3.68001 20.3901 1.46441 16.6974 1.30615 12.6836C1.30615 11.5598 1.78092 10.5965 2.57221 10.1148C3.20523 9.79372 4.7878 9.95427 5.10432 10.1148C8.90248 11.7203 10.1685 15.413 12.5424 18.9451C13.4919 20.3901 13.9667 21.3534 14.4415 22.9589C14.5997 23.6011 15.391 25.6882 15.7075 26.1699C16.4988 27.2937 18.8727 27.1332 20.1387 26.491C31.5332 21.3534 41.9782 13.1653 53.3727 7.70657C54.3222 7.22491 55.1135 6.90381 56.063 6.74326C57.0126 6.58271 58.1204 6.90381 58.5951 7.70657C59.2282 8.50932 59.2282 9.63317 58.9117 10.5965C58.4369 12.3625 57.0126 13.8075 55.43 14.9313C53.0562 16.6974 50.524 18.1423 47.9919 19.5873C44.0355 22.3167 39.9208 25.046 36.1227 27.9359Z" fill="#BC794B"/>
<path d="M52.7394 9.7933C52.2646 11.5594 53.8472 13.8071 55.7462 13.0043C57.6453 12.3621 57.0123 9.63275 55.9045 8.50889C55.1132 7.86669 54.0054 8.99054 54.7967 9.63275C55.1132 9.95385 55.9045 10.9171 55.4297 11.3988C55.1132 11.7199 54.6384 11.3988 54.4802 11.0777C54.3219 10.7566 54.3219 10.4355 54.4802 10.1144C54.6384 9.15109 53.0559 8.66944 52.7394 9.7933Z" fill="#010101"/>
<path d="M59.3862 7.38612C58.7532 6.42281 57.4871 5.94116 56.2211 6.10171C55.1133 6.26226 54.1637 6.58337 53.2142 7.06502C47.6752 9.63382 42.2945 13.0054 37.072 16.2164C31.533 19.588 25.8357 23.1201 19.822 25.8494C18.7142 26.4916 16.8151 26.4916 16.3403 25.6889C16.3403 25.6889 16.0238 25.0467 15.2325 22.6384C14.7578 20.8724 14.283 19.7485 13.1752 18.3035C12.5422 17.3402 11.9091 16.5375 11.4344 15.5742C10.0101 13.0054 8.42749 10.4366 5.42061 9.31272C4.94584 9.15217 3.20502 8.83107 2.25547 9.47327C1.14768 10.1155 0.514648 11.2393 0.514648 12.6843C0.672905 15.5742 1.62245 18.143 2.57199 20.7118C3.04676 21.9962 3.52153 23.2806 3.9963 24.565C5.26235 28.5788 5.26235 32.9136 5.26235 37.088C5.26235 38.5329 5.26235 39.8173 5.1041 41.2623C4.94584 42.5467 4.47107 43.6705 4.15456 45.1155C3.36327 47.3632 2.73024 49.7714 3.04676 52.0191C3.36327 54.7485 4.62933 57.799 7.00318 61.01C8.90226 63.7393 10.9596 66.3081 13.0169 68.8769C13.65 69.6797 14.916 70.1613 16.8151 70.1613C17.2899 70.1613 17.7646 70.1613 18.2394 70.1613C19.0307 70.1613 19.822 69.6797 20.455 69.5191C23.7784 67.9136 26.4688 66.9503 29.0009 65.987C32.3243 64.7026 35.4894 63.5788 39.7624 61.3311C43.0857 59.4045 46.4091 57.3173 48.4665 53.9458C49.2578 52.6613 50.049 50.7347 49.5743 48.6476C49.2578 47.5237 48.4665 46.5604 47.5169 46.0788C47.2004 45.9182 46.8839 45.7577 46.7257 45.7577C46.8839 45.5971 46.8839 45.5971 47.0422 45.4366C47.9917 44.1522 48.9413 43.0283 48.9413 41.2623C48.9413 39.1751 47.2004 37.5696 45.4596 37.088C44.3518 36.7669 43.0858 36.6063 41.978 36.6063C42.611 35.643 43.0858 34.5191 43.4023 33.3953C43.877 31.3081 43.244 29.221 41.8197 28.2577C41.0284 27.6155 40.2371 27.4549 39.2876 27.2944C42.7692 24.7256 45.9344 22.6384 49.0995 20.8724L50.5238 20.0696C52.5812 18.9458 54.7968 17.6613 56.6958 16.0558C57.9619 15.0925 59.7027 13.487 60.494 11.2393C60.3358 9.63382 60.1775 8.34942 59.3862 7.38612ZM2.41373 14.932C3.52153 14.7714 4.47107 14.7714 4.78758 15.8953C4.94584 16.3769 4.94584 16.8586 4.62933 17.3402C4.31281 17.6613 3.83804 17.8219 3.36327 17.8219H3.20502C2.8885 16.8586 2.57199 15.8953 2.41373 14.932ZM58.4367 10.5971C57.9619 12.3632 56.3793 13.6476 55.2715 14.6109C53.3724 16.0558 51.3151 17.3402 49.2578 18.4641L47.8335 19.2669C44.0353 21.5146 40.2371 24.0834 35.6477 27.4549C35.3312 27.6155 35.1729 28.0971 35.3312 28.4182C35.4894 28.7393 35.8059 28.8999 36.2807 28.8999C37.3885 28.5788 39.2876 28.4182 40.3954 29.221C41.5032 30.0237 41.6614 31.6292 41.3449 32.7531C41.0284 34.198 40.0789 35.4824 39.2876 36.7669C39.1293 37.088 39.1293 37.4091 39.2876 37.5696C39.4458 37.8907 39.7624 38.0513 40.0789 37.8907C41.5032 37.7302 43.0857 37.7302 44.5101 38.2118C45.6179 38.5329 46.8839 39.6568 46.8839 40.9412C46.8839 42.065 46.0926 43.0283 45.3013 43.9916C44.8266 44.4733 44.5101 45.1155 44.0353 45.7577C43.877 46.0788 43.877 46.3999 44.0353 46.721C44.1935 47.0421 44.5101 47.0421 44.8266 47.0421C45.3013 46.8815 45.9344 47.0421 46.2509 47.2026C46.8839 47.5237 47.3587 48.1659 47.5169 48.8081C47.9917 50.4136 47.2004 52.0191 46.5674 52.8219C44.6683 55.8724 41.5032 57.799 38.338 59.565C34.3816 61.8127 31.2165 62.9366 27.8931 64.221C25.2027 65.1843 22.5124 66.1476 19.189 67.7531C18.7142 68.0742 18.0812 68.2347 17.6064 68.3953C14.7578 68.5558 13.9665 68.0742 13.8082 67.7531C11.7509 65.3448 9.69355 62.776 7.79446 60.0467C5.57887 56.9962 4.47107 54.2669 4.15456 51.698C3.83804 49.6109 4.62933 47.5237 5.26235 45.4366C5.73713 44.1522 6.05364 42.7072 6.37015 41.4228C6.84492 39.9779 6.84492 38.5329 6.84492 37.088C6.84492 32.7531 6.84492 28.4182 5.57887 24.0834C5.1041 22.6384 4.62933 21.354 4.15456 20.0696C3.9963 19.7485 3.9963 19.588 3.83804 19.2669C4.62933 19.1063 5.57887 18.7852 6.05364 17.9824C6.52841 17.1797 6.52841 16.2164 6.2119 15.4136C5.73713 13.3265 3.9963 13.0054 2.25547 13.3265C2.09722 13.0054 2.09722 12.8448 2.09722 12.5237C2.09722 11.721 2.41373 11.0788 3.04676 10.7577C3.20502 10.5971 3.52153 10.5971 3.83804 10.5971C4.31281 10.5971 4.62933 10.5971 4.78758 10.7577C7.31969 11.721 8.58575 13.9687 10.0101 16.3769C10.6431 17.3402 11.1179 18.3035 11.7509 19.2669C12.7004 20.5513 13.0169 21.5146 13.65 23.1201C14.5995 26.01 14.916 26.4916 15.0743 26.6522C16.1821 28.2577 19.0307 28.0971 20.455 27.2944C26.4688 24.565 32.166 21.0329 37.705 17.6613C42.9275 14.4503 48.15 11.2393 53.689 8.67052C54.4802 8.18887 55.2715 7.86777 56.2211 7.86777C56.8541 7.86777 57.6454 8.02832 58.1202 8.50997C58.5949 8.83107 58.5949 9.63382 58.4367 10.5971Z" fill="#010101"/>
<path d="M42.9271 17.018C43.2437 17.6602 44.0349 19.5868 45.1427 18.784C45.934 18.1418 45.1427 16.8574 44.3515 17.3391C44.5097 17.3391 44.8262 17.3391 44.9845 17.1785C45.301 17.3391 44.8262 16.8574 44.8262 16.6969C44.668 16.5363 44.5097 16.2152 44.3515 16.0547C43.7184 15.4125 42.2941 16.2152 42.9271 17.018Z" fill="#010101"/>
<path d="M44.3519 15.7337C44.6684 16.3759 45.1432 17.0181 45.4597 17.8209C45.9345 18.7842 47.3588 17.9814 46.884 17.0181C46.5675 16.3759 46.0927 15.7337 45.7762 14.9309C45.3014 13.9676 43.8771 14.7704 44.3519 15.7337Z" fill="#010101"/>
<path d="M14.9162 8.18738C16.4988 9.47179 17.6066 12.0406 18.3978 13.8067C18.8726 14.77 20.1387 13.9672 19.8222 13.0039C18.8726 10.7562 17.7648 8.18738 15.8657 6.74243C14.9162 6.10023 14.1249 7.54518 14.9162 8.18738Z" fill="#E824B1"/>
<path d="M23.9364 0.802363C24.0947 4.33447 24.2529 8.02713 24.0947 11.5592C24.0947 12.5225 25.6772 12.5225 25.6772 11.5592C25.8355 8.02713 25.6772 4.33447 25.519 0.802363C25.3607 -0.321491 23.7781 -0.321491 23.9364 0.802363Z" fill="#E824B1"/>
<path d="M32.641 7.0642C30.9002 9.15136 29.7924 11.5596 29.0011 14.1284C28.6846 15.0917 30.2671 15.5734 30.5837 14.6101C31.2167 12.2018 32.3245 10.1147 33.7488 8.34861C34.3818 7.3853 33.274 6.26145 32.641 7.0642Z" fill="#E824B1"/>
</g>
<defs>
<clipPath id="clip0_866_14750">
<rect width="59.6628" height="70" fill="white" transform="translate(0.514648)"/>
</clipPath>
</defs>
</svg>
