<svg width="47" height="51" viewBox="0 0 47 51" fill="none" xmlns="http://www.w3.org/2000/svg">
<path fill-rule="evenodd" clip-rule="evenodd" d="M3.27566 45.5993C5.20205 45.296 9.95078 44.0192 16.7235 44.2008C17.7532 44.2329 18.1609 44.0292 17.9124 43.6156C17.4612 42.901 16.1489 42.7092 12.3116 42.8618C8.65956 42.9938 10.3257 42.9292 13.9091 41.1609C32.1974 32.1569 30.4939 27.6395 31.9314 25.6585L33.2218 24.9958C39.8247 21.5811 48.2679 9.35128 46.0467 6.42168C45.2971 5.43883 44.9481 5.77201 43.6238 8.83269C41.0771 14.6484 37.2687 19.6709 33.232 22.549C32.2402 23.2518 32.2978 23.2748 32.1142 21.9272C31.3862 16.2637 19.8781 14.5476 16.4899 19.6114C13.5207 24.0474 19.8588 28.7019 26.9511 27.2995C28.7173 26.9442 28.6355 26.8723 27.8431 28.2407C23.5807 35.6198 12.1932 39.5614 8.16636 41.5741C6.78025 42.2695 6.78211 42.2545 8.53038 40.2241C11.6998 36.5602 11.9794 36.0657 11.2421 35.5559C10.1744 34.7887 9.38299 35.2448 7.18582 37.8991C4.53686 41.0856 3.24554 42.4324 1.58687 43.6842C-0.967913 45.6061 1.19389 45.9274 3.27566 45.5993ZM19.6081 25.1404C17.2525 22.9834 18.5176 19.4586 22.0275 18.3495C26.6471 16.9032 29.9048 19.136 29.3598 23.4116C29.1516 25.0715 27.5101 25.2915 27.3298 25.3889C24.2542 26.4347 20.8923 26.332 19.6081 25.1404Z" fill="black"/>
</svg>
