<svg width="21" height="21" viewBox="0 0 21 21" fill="none" xmlns="http://www.w3.org/2000/svg">
<path d="M11.2928 10.2213L16.5428 4.97968C16.6997 4.82276 16.7879 4.60993 16.7879 4.38801C16.7879 4.16609 16.6997 3.95327 16.5428 3.79635C16.3859 3.63943 16.173 3.55127 15.9511 3.55127C15.7292 3.55127 15.5164 3.63943 15.3595 3.79635L10.1178 9.04635L4.87612 3.79635C4.7192 3.63943 4.50637 3.55127 4.28445 3.55127C4.06254 3.55127 3.84971 3.63943 3.69279 3.79635C3.53587 3.95327 3.44771 4.16609 3.44771 4.38801C3.44771 4.60993 3.53587 4.82276 3.69279 4.97968L8.94279 10.2213L3.69279 15.463C3.61468 15.5405 3.55269 15.6326 3.51038 15.7342C3.46807 15.8357 3.44629 15.9447 3.44629 16.0547C3.44629 16.1647 3.46807 16.2736 3.51038 16.3752C3.55269 16.4767 3.61468 16.5689 3.69279 16.6463C3.77026 16.7245 3.86242 16.7864 3.96397 16.8288C4.06552 16.8711 4.17444 16.8928 4.28445 16.8928C4.39446 16.8928 4.50339 16.8711 4.60493 16.8288C4.70648 16.7864 4.79865 16.7245 4.87612 16.6463L10.1178 11.3963L15.3595 16.6463C15.4369 16.7245 15.5291 16.7864 15.6306 16.8288C15.7322 16.8711 15.8411 16.8928 15.9511 16.8928C16.0611 16.8928 16.1701 16.8711 16.2716 16.8288C16.3732 16.7864 16.4653 16.7245 16.5428 16.6463C16.6209 16.5689 16.6829 16.4767 16.7252 16.3752C16.7675 16.2736 16.7893 16.1647 16.7893 16.0547C16.7893 15.9447 16.7675 15.8357 16.7252 15.7342C16.6829 15.6326 16.6209 15.5405 16.5428 15.463L11.2928 10.2213Z" fill="black" fill-opacity="0.4"/>
</svg>
