<svg width="57" height="56" viewBox="0 0 57 56" fill="none" xmlns="http://www.w3.org/2000/svg">
<path d="M28.6599 7.28003C23.1647 7.28003 17.8944 9.46302 14.0087 13.3488C10.1229 17.2345 7.93994 22.5047 7.93994 28C7.93994 33.4953 10.1229 38.7655 14.0087 42.6513C17.8944 46.537 23.1647 48.72 28.6599 48.72C34.1552 48.72 39.4254 46.537 43.3112 42.6513C47.1969 38.7655 49.3799 33.4953 49.3799 28C49.3799 22.5047 47.1969 17.2345 43.3112 13.3488C39.4254 9.46302 34.1552 7.28003 28.6599 7.28003Z" fill="#FFC01F" fill-opacity="0.5"/>
<path d="M33.6129 38.2262H18.1406C17.0693 38.2262 16.1924 37.3459 16.1924 36.269V18.0186C16.1924 16.9053 17.0996 15.9937 18.2078 15.9937H33.6123C36.2023 15.9937 38.3208 18.1228 38.3208 20.7245V33.4953C38.3213 36.0971 36.2029 38.2262 33.6129 38.2262Z" fill="#9F8066"/>
<path d="M33.6124 38.64H18.1407C16.8392 38.64 15.7803 37.576 15.7803 36.2684V18.018C15.7803 16.674 16.87 15.5792 18.2079 15.5792H33.6124C36.4359 15.5792 38.733 17.8875 38.733 20.7239V33.4947C38.733 36.3317 36.4359 38.64 33.6124 38.64ZM18.2079 16.4075C17.3236 16.4075 16.6046 17.1299 16.6046 18.0186V36.269C16.6046 37.1196 17.294 37.8118 18.1401 37.8118H33.6118C35.9812 37.8118 37.9087 35.8759 37.9087 33.4947V20.7245C37.9087 18.3445 35.9817 16.4075 33.6118 16.4075H18.2079Z" fill="black"/>
<path d="M17.881 27.6786C17.7752 27.6786 17.6895 27.5924 17.6895 27.4865V19.3777C17.6895 18.3406 18.5295 17.4967 19.5616 17.4967H33.2586C33.3645 17.4967 33.4502 17.5829 33.4502 17.6888C33.4502 17.7946 33.3645 17.8809 33.2586 17.8809H19.561C18.7395 17.8809 18.072 18.5523 18.072 19.3772V27.486C18.0726 27.5924 17.9863 27.6786 17.881 27.6786ZM17.881 31.4469C17.7752 31.4469 17.6895 31.3606 17.6895 31.2548V29.7473C17.6895 29.6409 17.7752 29.5552 17.881 29.5552C17.9863 29.5552 18.0726 29.6414 18.0726 29.7473V31.2548C18.0726 31.3606 17.9863 31.4469 17.881 31.4469ZM33.0458 36.7221H19.6434C18.5659 36.7221 17.689 35.8249 17.689 34.7234V32.008C17.689 31.9016 17.7746 31.8159 17.8805 31.8159C17.9858 31.8159 18.072 31.9021 18.072 32.008V34.7234C18.072 35.6133 18.7765 36.3373 19.6434 36.3373H33.0458C34.9185 36.3373 36.4428 34.7738 36.4428 32.8525V25.979C36.4428 25.8726 36.5285 25.7869 36.6343 25.7869C36.7396 25.7869 36.8258 25.8732 36.8258 25.979V32.853C36.8253 34.9861 35.129 36.7221 33.0458 36.7221ZM36.6338 23.9104C36.5279 23.9104 36.4422 23.8241 36.4422 23.7183V22.2108C36.4422 22.1044 36.5279 22.0187 36.6338 22.0187C36.739 22.0187 36.8253 22.1049 36.8253 22.2108V23.7183C36.8253 23.8241 36.7396 23.9104 36.6338 23.9104ZM36.6338 21.6497C36.5279 21.6497 36.4422 21.5634 36.4422 21.4576V20.7044C36.4422 20.598 36.5279 20.5123 36.6338 20.5123C36.739 20.5123 36.8253 20.5985 36.8253 20.7044V21.4576C36.8253 21.5634 36.7396 21.6497 36.6338 21.6497Z" fill="black"/>
<path d="M40.0101 29.747H32.0312C30.6436 29.747 29.5073 28.6057 29.5073 27.2113V27.0075C29.5073 25.6131 30.6436 24.4718 32.0312 24.4718H40.1753C40.4979 24.4718 40.7594 24.7344 40.7594 25.0587V28.9949C40.7588 29.4082 40.4223 29.747 40.0101 29.747Z" fill="#BD977C"/>
<path d="M40.01 29.969H32.0317C30.5186 29.969 29.2871 28.7319 29.2871 27.2121V27.0077C29.2871 25.4873 30.5186 24.2502 32.0317 24.2502H40.1758C40.6193 24.2502 40.9805 24.6126 40.9805 25.0589V28.9951C40.9805 29.5322 40.5448 29.969 40.01 29.969ZM32.0317 24.6938C30.7621 24.6938 29.7284 25.732 29.7284 27.0077V27.2121C29.7284 28.4878 30.7621 29.5254 32.0317 29.5254H40.0105C40.3017 29.5254 40.5392 29.2874 40.5392 28.9951V25.0589C40.5392 24.8578 40.3762 24.6938 40.1763 24.6938H32.0317Z" fill="black"/>
<path d="M32.8831 26.3564C32.7847 26.3564 32.6872 26.3759 32.5962 26.4138C32.5052 26.4516 32.4226 26.5071 32.3529 26.5771C32.2833 26.647 32.2281 26.73 32.1904 26.8214C32.1527 26.9128 32.1333 27.0107 32.1333 27.1096C32.1333 27.2086 32.1527 27.3065 32.1904 27.3979C32.2281 27.4893 32.2833 27.5723 32.3529 27.6422C32.4226 27.7122 32.5052 27.7677 32.5962 27.8055C32.6872 27.8434 32.7847 27.8628 32.8831 27.8628C32.9816 27.8628 33.0791 27.8434 33.1701 27.8055C33.2611 27.7677 33.3437 27.7122 33.4134 27.6422C33.483 27.5723 33.5382 27.4893 33.5759 27.3979C33.6136 27.3065 33.633 27.2086 33.633 27.1096C33.633 27.0107 33.6136 26.9128 33.5759 26.8214C33.5382 26.73 33.483 26.647 33.4134 26.5771C33.3437 26.5071 33.2611 26.4516 33.1701 26.4138C33.0791 26.3759 32.9816 26.3564 32.8831 26.3564Z" fill="#FDFCEE"/>
<path d="M32.8833 28.056C32.3642 28.056 31.9414 27.6315 31.9414 27.1096C31.9414 26.5882 32.3642 26.1632 32.8833 26.1632C33.4024 26.1632 33.8252 26.5877 33.8252 27.1096C33.8247 27.6315 33.4024 28.056 32.8833 28.056ZM32.8833 26.5485C32.5753 26.5485 32.325 26.8005 32.325 27.1096C32.325 27.4187 32.5759 27.6707 32.8833 27.6707C33.1908 27.6707 33.4416 27.4187 33.4416 27.1096C33.4416 26.8005 33.1908 26.5485 32.8833 26.5485Z" fill="black"/>
<path d="M31.6613 13.7491L31.3958 12.5636L17.4048 15.8049L33.5199 13.5755L34.2485 15.8049L17.5056 16.0026" fill="#C3D343"/>
<path d="M17.5055 16.1947C17.4008 16.1947 17.3157 16.1096 17.314 16.0048C17.314 15.9948 17.3146 15.9847 17.3162 15.9752C17.2658 15.9483 17.2278 15.8996 17.2166 15.8396C17.1981 15.7383 17.2619 15.6408 17.3616 15.6179L31.3526 12.3772C31.4025 12.3654 31.4551 12.3749 31.4977 12.4012C31.5408 12.4287 31.571 12.4724 31.5828 12.5216L31.8275 13.6164L33.4946 13.3852C33.5854 13.3745 33.6738 13.4272 33.7024 13.5156L34.431 15.745C34.45 15.8038 34.4405 15.8671 34.4052 15.9169C34.3694 15.9668 34.3128 15.997 34.2518 15.9976L17.5089 16.1952C17.5072 16.1947 17.5061 16.1947 17.5055 16.1947ZM33.3871 13.7884L18.8859 15.7943L33.9846 15.6162L33.3871 13.7884ZM31.2507 12.7944L21.5969 15.031L31.4462 13.6685L31.2507 12.7944Z" fill="black"/>
<path d="M32.3546 34.9569C31.8343 34.9569 31.3191 35.0587 30.8384 35.2565C30.3577 35.4544 29.9209 35.7443 29.553 36.1098C29.1851 36.4753 28.8933 36.9092 28.6942 37.3868C28.4951 37.8644 28.3926 38.3762 28.3926 38.8932C28.3926 39.4101 28.4951 39.9219 28.6942 40.3995C28.8933 40.8771 29.1851 41.311 29.553 41.6765C29.9209 42.042 30.3577 42.3319 30.8384 42.5298C31.3191 42.7276 31.8343 42.8294 32.3546 42.8294C32.8749 42.8294 33.3901 42.7276 33.8708 42.5298C34.3515 42.3319 34.7882 42.042 35.1561 41.6765C35.524 41.311 35.8159 40.8771 36.015 40.3995C36.2141 39.9219 36.3166 39.4101 36.3166 38.8932C36.3166 38.3762 36.2141 37.8644 36.015 37.3868C35.8159 36.9092 35.524 36.4753 35.1561 36.1098C34.7882 35.7443 34.3515 35.4544 33.8708 35.2565C33.3901 35.0587 32.8749 34.9569 32.3546 34.9569Z" fill="#FFC01F"/>
<path d="M32.3539 43.1199C30.008 43.1199 28.1001 41.2238 28.1001 38.8931C28.1001 36.5624 30.0086 34.6667 32.3539 34.6667C34.6991 34.6667 36.6082 36.5629 36.6082 38.8931C36.6082 41.2232 34.6997 43.1199 32.3539 43.1199ZM32.3539 35.2463C30.33 35.2463 28.6836 36.8821 28.6836 38.8931C28.6836 40.9046 30.33 42.5403 32.3539 42.5403C34.3783 42.5403 36.0247 40.9046 36.0247 38.8931C36.0247 36.8821 34.3783 35.2463 32.3539 35.2463Z" fill="black"/>
<path d="M32.3543 36.3188C32.014 36.3188 31.6771 36.3854 31.3627 36.5148C31.0484 36.6442 30.7627 36.8338 30.5221 37.0728C30.2815 37.3119 30.0906 37.5957 29.9604 37.908C29.8302 38.2203 29.7632 38.5551 29.7632 38.8932C29.7632 39.2312 29.8302 39.566 29.9604 39.8783C30.0906 40.1906 30.2815 40.4744 30.5221 40.7135C30.7627 40.9525 31.0484 41.1422 31.3627 41.2715C31.6771 41.4009 32.014 41.4675 32.3543 41.4675C32.6946 41.4675 33.0315 41.4009 33.3459 41.2715C33.6603 41.1422 33.9459 40.9525 34.1865 40.7135C34.4271 40.4744 34.618 40.1906 34.7482 39.8783C34.8784 39.566 34.9454 39.2312 34.9454 38.8932C34.9454 38.5551 34.8784 38.2203 34.7482 37.908C34.618 37.5957 34.4271 37.3119 34.1865 37.0728C33.9459 36.8338 33.6603 36.6442 33.3459 36.5148C33.0315 36.3854 32.6946 36.3188 32.3543 36.3188Z" fill="#FFC01F"/>
<path d="M32.3538 41.6124C30.8452 41.6124 29.6177 40.3927 29.6177 38.8936C29.6177 37.3945 30.8452 36.1748 32.3538 36.1748C33.8625 36.1748 35.09 37.3945 35.09 38.8936C35.09 40.3927 33.8625 41.6124 32.3538 41.6124ZM32.3538 36.4643C31.0054 36.4643 29.9094 37.5541 29.9094 38.893C29.9094 40.232 31.0065 41.3218 32.3538 41.3218C33.7018 41.3218 34.7982 40.232 34.7982 38.893C34.7982 37.5541 33.7023 36.4643 32.3538 36.4643Z" fill="black"/>
<path d="M38.9664 31.6506C38.4461 31.6506 37.9309 31.7524 37.4502 31.9503C36.9695 32.1481 36.5327 32.438 36.1648 32.8035C35.7969 33.169 35.5051 33.603 35.306 34.0805C35.1069 34.5581 35.0044 35.07 35.0044 35.5869C35.0044 36.1038 35.1069 36.6156 35.306 37.0932C35.5051 37.5708 35.7969 38.0047 36.1648 38.3702C36.5327 38.7357 36.9695 39.0257 37.4502 39.2235C37.9309 39.4213 38.4461 39.5231 38.9664 39.5231C39.4867 39.5231 40.0019 39.4213 40.4826 39.2235C40.9633 39.0257 41.4 38.7357 41.768 38.3702C42.1359 38.0047 42.4277 37.5708 42.6268 37.0932C42.8259 36.6156 42.9284 36.1038 42.9284 35.5869C42.9284 35.07 42.8259 34.5581 42.6268 34.0805C42.4277 33.603 42.1359 33.169 41.768 32.8035C41.4 32.438 40.9633 32.1481 40.4826 31.9503C40.0019 31.7524 39.4867 31.6506 38.9664 31.6506Z" fill="#FFC01F"/>
<path d="M38.9657 39.8132C36.6198 39.8132 34.7119 37.917 34.7119 35.5869C34.7119 33.2567 36.6204 31.36 38.9657 31.36C41.311 31.36 43.22 33.2561 43.22 35.5869C43.22 37.9176 41.3115 39.8132 38.9657 39.8132ZM38.9657 31.9396C36.9418 31.9396 35.2954 33.5753 35.2954 35.5869C35.2954 37.5978 36.9418 39.2336 38.9657 39.2336C40.9901 39.2336 42.6365 37.5978 42.6365 35.5869C42.6365 33.5753 40.9901 31.9396 38.9657 31.9396Z" fill="black"/>
<path d="M38.9661 33.0126C38.6258 33.0126 38.2889 33.0792 37.9745 33.2085C37.6602 33.3379 37.3745 33.5275 37.1339 33.7666C36.8933 34.0056 36.7025 34.2894 36.5722 34.6017C36.442 34.9141 36.375 35.2488 36.375 35.5869C36.375 35.925 36.442 36.2597 36.5722 36.572C36.7025 36.8844 36.8933 37.1682 37.1339 37.4072C37.3745 37.6463 37.6602 37.8359 37.9745 37.9653C38.2889 38.0946 38.6258 38.1612 38.9661 38.1612C39.3064 38.1612 39.6433 38.0946 39.9577 37.9653C40.2721 37.8359 40.5577 37.6463 40.7983 37.4072C41.0389 37.1682 41.2298 36.8844 41.36 36.572C41.4902 36.2597 41.5572 35.925 41.5572 35.5869C41.5572 35.2488 41.4902 34.9141 41.36 34.6017C41.2298 34.2894 41.0389 34.0056 40.7983 33.7666C40.5577 33.5275 40.2721 33.3379 39.9577 33.2085C39.6433 33.0792 39.3064 33.0126 38.9661 33.0126Z" fill="#FFC01F"/>
<path d="M38.9657 38.3056C37.457 38.3056 36.2295 37.086 36.2295 35.5868C36.2295 34.0877 37.457 32.868 38.9657 32.868C40.4743 32.868 41.7018 34.0877 41.7018 35.5868C41.7018 37.086 40.4743 38.3056 38.9657 38.3056ZM38.9657 33.1581C37.6172 33.1581 36.5213 34.2479 36.5213 35.5868C36.5213 36.9258 37.6183 38.0156 38.9657 38.0156C40.3136 38.0156 41.4101 36.9258 41.4101 35.5868C41.4101 34.2479 40.3141 33.1581 38.9657 33.1581Z" fill="black"/>
<path d="M38.57 36.2746C38.5734 36.2746 38.5807 36.2779 38.5919 36.2852L38.5868 36.2824C38.6389 36.3177 38.6854 36.3462 38.7263 36.3664C38.7677 36.3866 38.8114 36.4011 38.8573 36.4106V35.5818L38.8091 35.5555C38.7503 35.5236 38.6938 35.49 38.64 35.4542C38.5863 35.4183 38.5381 35.3791 38.4956 35.3371C38.4524 35.2946 38.416 35.2492 38.3869 35.2016C38.3572 35.1534 38.3371 35.1014 38.3264 35.0442C38.3191 35.0157 38.3152 34.9894 38.3141 34.9642C38.313 34.939 38.313 34.9126 38.313 34.8841C38.313 34.8006 38.327 34.7278 38.3544 34.6657C38.3824 34.6035 38.4205 34.5503 38.4687 34.5066C38.5168 34.463 38.5745 34.4282 38.64 34.4025C38.7061 34.3767 38.7789 34.3594 38.8573 34.351V34.2759C38.8573 34.2406 38.8657 34.2104 38.8819 34.1858C38.8982 34.1606 38.9273 34.1488 38.9704 34.1488H38.9816C39.0746 34.1488 39.1255 34.1942 39.1345 34.2843L39.1317 34.3554C39.1821 34.3644 39.2331 34.3778 39.2857 34.3963C39.3389 34.4148 39.3977 34.4389 39.4643 34.4669L39.4565 34.4618C39.4867 34.4725 39.5103 34.4854 39.5276 34.5016C39.545 34.5178 39.5551 34.5436 39.5584 34.5789V34.5951C39.5584 34.608 39.5551 34.6237 39.5489 34.6433C39.5427 34.6629 39.5332 34.6814 39.5209 34.6993C39.508 34.7172 39.494 34.7329 39.4778 34.7458C39.4615 34.7592 39.4442 34.7659 39.424 34.7659C39.4078 34.7659 39.3932 34.7642 39.3798 34.762C39.3663 34.7598 39.3507 34.7514 39.3333 34.7396V34.7418L39.3036 34.7256C39.2515 34.6987 39.1944 34.6774 39.1323 34.6618V35.3892L39.1429 35.3942C39.2874 35.467 39.3994 35.5477 39.4783 35.6367C39.5573 35.7252 39.6088 35.8176 39.634 35.9139C39.6447 35.9542 39.6519 35.9923 39.657 36.0259C39.6615 36.0595 39.6637 36.0942 39.6637 36.1295C39.6637 36.2113 39.6503 36.2846 39.6234 36.3507C39.5965 36.4162 39.5595 36.4734 39.5136 36.5226C39.4671 36.5714 39.4117 36.6111 39.3462 36.6425C39.2807 36.6738 39.2095 36.6946 39.1328 36.7052V36.8973C39.1328 36.9326 39.1261 36.9628 39.111 36.9874C39.097 37.0126 39.0673 37.0244 39.0225 37.0244H39.0063C38.9615 37.0244 38.9256 37.0121 38.8987 36.9886C38.8719 36.965 38.8584 36.9292 38.8584 36.8838V36.7052C38.7621 36.6946 38.6787 36.6733 38.6092 36.6414C38.5392 36.6094 38.4681 36.5697 38.3948 36.5215C38.3752 36.5058 38.3617 36.4902 38.3544 36.4762C38.3471 36.4622 38.3393 36.4426 38.3303 36.4174V36.4011C38.3303 36.3854 38.3348 36.367 38.3449 36.3468C38.355 36.3261 38.3667 36.307 38.3813 36.288C38.3959 36.2695 38.411 36.2533 38.4267 36.2398C38.4429 36.2264 38.458 36.2202 38.472 36.2202C38.4916 36.2202 38.5095 36.2258 38.5247 36.2376C38.5398 36.2494 38.5543 36.2606 38.5689 36.2734L38.57 36.2746C38.5734 36.2762 38.5756 36.2768 38.5779 36.2768L38.57 36.2746ZM38.7072 35.1417C38.7492 35.1803 38.7991 35.215 38.8562 35.2453V34.6618C38.7884 34.6763 38.7313 34.7038 38.6859 34.7446C38.6406 34.7855 38.6176 34.841 38.6176 34.9098C38.6176 34.9205 38.6182 34.9322 38.6187 34.9446C38.6199 34.9569 38.6215 34.9726 38.626 34.9899C38.6389 35.0521 38.6652 35.1025 38.7072 35.1417ZM39.2588 35.8439C39.223 35.8002 39.1799 35.7627 39.13 35.7308V36.3944C39.1922 36.3692 39.2448 36.3311 39.2868 36.2796C39.3288 36.2281 39.3501 36.1676 39.3501 36.0987C39.3501 36.0791 39.3484 36.0618 39.3451 36.0455C39.3417 36.0293 39.3383 36.0125 39.3344 35.9946C39.3193 35.9374 39.2947 35.8876 39.2588 35.8439Z" fill="black"/>
<path d="M31.9372 39.5814C31.9406 39.5814 31.9479 39.5848 31.9591 39.592L31.954 39.5892C32.0061 39.6245 32.0526 39.6531 32.0935 39.6732C32.1349 39.6934 32.1786 39.708 32.2245 39.7175V38.8887L32.1763 38.8618C32.1175 38.8299 32.061 38.7963 32.0072 38.7604C31.9535 38.7246 31.9053 38.6854 31.8627 38.6434C31.8196 38.6008 31.7832 38.5555 31.7541 38.5079C31.7244 38.4597 31.7043 38.4076 31.6936 38.3505C31.6863 38.322 31.6824 38.2956 31.6813 38.2704C31.6807 38.2452 31.6802 38.2189 31.6802 38.1904C31.6802 38.1069 31.6942 38.0341 31.7216 37.972C31.7496 37.9098 31.7877 37.8566 31.8359 37.8129C31.884 37.7692 31.9417 37.7345 32.0072 37.7088C32.0733 37.683 32.1461 37.6656 32.2245 37.6572V37.5822C32.2245 37.5469 32.2329 37.5167 32.2491 37.492C32.2654 37.4668 32.2945 37.4551 32.3376 37.4551H32.3488C32.4418 37.4551 32.4927 37.5004 32.5017 37.5906L32.4995 37.6623C32.5499 37.6712 32.6008 37.6847 32.6535 37.7032C32.7067 37.7216 32.7655 37.7457 32.8321 37.7737L32.8243 37.7687C32.8545 37.7793 32.878 37.7922 32.8954 37.8084C32.9122 37.8247 32.9228 37.8504 32.9262 37.8857V37.902C32.9262 37.9148 32.9228 37.9305 32.9167 37.9501C32.9105 37.9697 32.901 37.9882 32.8887 38.0061C32.8758 38.024 32.8618 38.0397 32.8455 38.0526C32.8293 38.066 32.8119 38.0728 32.7918 38.0728C32.7755 38.0728 32.761 38.0711 32.7475 38.0688C32.7341 38.0666 32.7184 38.0582 32.7011 38.0464V38.0487L32.6714 38.0324C32.6193 38.0056 32.5622 37.9843 32.5 37.9686V38.696L32.5107 38.7011C32.6551 38.7739 32.7671 38.8545 32.8461 38.9436C32.9251 39.0326 32.9766 39.1244 33.0018 39.2208C33.0124 39.2611 33.0197 39.2992 33.0247 39.3328C33.0287 39.3664 33.032 39.4011 33.032 39.4364C33.032 39.5181 33.0186 39.5915 32.9917 39.6576C32.9648 39.7231 32.9279 39.7802 32.8819 39.8295C32.8355 39.8782 32.7795 39.918 32.7145 39.9493C32.649 39.9807 32.5779 40.0014 32.5011 40.012V40.2041C32.5011 40.2394 32.4939 40.2696 32.4793 40.2943C32.4653 40.3195 32.4356 40.3312 32.3908 40.3312H32.3729C32.3281 40.3312 32.2923 40.3189 32.2654 40.2954C32.2385 40.2713 32.2251 40.236 32.2251 40.1907V40.012C32.1287 40.0014 32.0453 39.9801 31.9759 39.9482C31.9059 39.9163 31.8347 39.8765 31.7614 39.8284C31.7418 39.8127 31.7283 39.797 31.7211 39.783C31.7138 39.769 31.7059 39.7494 31.697 39.7242V39.708C31.697 39.6923 31.7015 39.6738 31.7115 39.6536C31.7216 39.6329 31.7334 39.6139 31.7479 39.5948C31.7625 39.5758 31.7776 39.5601 31.7933 39.5467C31.8095 39.5332 31.8247 39.5271 31.8387 39.5271C31.8583 39.5271 31.8762 39.5327 31.8913 39.5444C31.9064 39.5562 31.921 39.5674 31.9355 39.5803L31.9372 39.5814C31.9406 39.5831 31.9428 39.5836 31.9451 39.5836L31.9372 39.5814ZM32.075 38.448C32.117 38.4866 32.1668 38.5213 32.2239 38.5516V37.968C32.1562 37.9826 32.0991 38.01 32.0537 38.0509C32.0083 38.0918 31.9854 38.1472 31.9854 38.2161C31.9854 38.2268 31.9859 38.2385 31.9865 38.2508C31.9871 38.2632 31.9893 38.2788 31.9938 38.2962C32.0061 38.3589 32.033 38.4093 32.075 38.448ZM32.6266 39.1508C32.5907 39.1071 32.5476 39.0696 32.4978 39.0376V39.7012C32.5599 39.676 32.6126 39.638 32.6546 39.5864C32.6966 39.5349 32.7179 39.4744 32.7179 39.4056C32.7179 39.386 32.7162 39.3686 32.7128 39.3524C32.7095 39.3361 32.7055 39.3193 32.7022 39.3014C32.6871 39.2443 32.6619 39.1939 32.6266 39.1508Z" fill="black"/>
</svg>
