<svg width="57" height="56" viewBox="0 0 57 56" fill="none" xmlns="http://www.w3.org/2000/svg">
<path d="M28.6599 7.28003C23.1647 7.28003 17.8944 9.46302 14.0087 13.3488C10.1229 17.2345 7.93994 22.5047 7.93994 28C7.93994 33.4953 10.1229 38.7655 14.0087 42.6513C17.8944 46.537 23.1647 48.72 28.6599 48.72C34.1552 48.72 39.4254 46.537 43.3112 42.6513C47.1969 38.7655 49.3799 33.4953 49.3799 28C49.3799 22.5047 47.1969 17.2345 43.3112 13.3488C39.4254 9.46302 34.1552 7.28003 28.6599 7.28003Z" fill="#FFC01F" fill-opacity="0.5"/>
<path d="M28.66 12.6006C28.502 12.6006 28.3447 12.6437 28.2064 12.7305L15.0704 21.0247C14.8991 21.1327 14.9316 21.2996 14.9456 21.3483C14.9596 21.3982 15.0228 21.56 15.2317 21.56H42.0809C42.2909 21.56 42.3548 21.3965 42.3693 21.3467C42.3833 21.2979 42.4158 21.1294 42.2433 21.0202L29.113 12.7305C28.9752 12.6437 28.8179 12.6006 28.66 12.6006Z" fill="white"/>
<path d="M16.0601 21.5601H41.2601V23.2401H16.0601V21.5601Z" fill="white"/>
<path d="M17.7402 23.24H21.1002V34.44H17.7402V23.24ZM23.9002 23.24H27.2602V34.44H23.9002V23.24ZM30.0602 23.24H33.4202V34.44H30.0602V23.24ZM36.2202 23.24H39.5802V34.44H36.2202V23.24Z" fill="white"/>
<path d="M17.1802 34.4401H21.6602V36.1201H17.1802V34.4401ZM23.3402 34.4401H27.8202V36.1201H23.3402V34.4401ZM29.5002 34.4401H33.9802V36.1201H29.5002V34.4401ZM35.6602 34.4401H40.1402V36.1201H35.6602V34.4401Z" fill="white"/>
<path d="M15.5454 36.12C15.4127 36.12 15.2951 36.213 15.2666 36.3401L14.3874 40.2601C14.3622 40.3726 14.4109 40.4544 14.4417 40.493C14.496 40.5614 14.5778 40.6 14.6657 40.6H42.6545C42.7424 40.6 42.8242 40.5608 42.8785 40.493C42.9098 40.4544 42.958 40.3726 42.9328 40.2601L42.0536 36.3401C42.025 36.213 41.9074 36.12 41.7747 36.12H15.5454Z" fill="white"/>
<path d="M39.1142 21.28L28.6601 14.6798L18.2061 21.28H39.1142Z" fill="white"/>
<path d="M28.6602 13.1039C28.7257 13.1039 28.7895 13.1224 28.8444 13.1571L41.3554 21.0559H15.965L28.4759 13.1571C28.5308 13.1224 28.5946 13.1039 28.6602 13.1039ZM28.6602 12.3199C28.4507 12.3199 28.2413 12.3782 28.0576 12.4941L14.9211 20.7877C14.4345 21.0951 14.6546 21.8399 15.2319 21.8399H42.0811C42.6607 21.8399 42.8814 21.0918 42.393 20.7838L29.2627 12.4941C29.079 12.3782 28.8696 12.3199 28.6602 12.3199Z" fill="black"/>
<path d="M41.2603 23.5199H16.0603C15.9057 23.5199 15.7803 23.3945 15.7803 23.2399V21.5599C15.7803 21.4053 15.9057 21.2799 16.0603 21.2799H41.2603C41.4148 21.2799 41.5403 21.4053 41.5403 21.5599V23.2399C41.5403 23.3945 41.4148 23.5199 41.2603 23.5199ZM16.3403 22.9599H40.9803V21.8399H16.3403V22.9599Z" fill="black"/>
<path d="M21.1004 34.72H17.7404C17.5859 34.72 17.4604 34.5945 17.4604 34.44V23.24C17.4604 23.0854 17.5859 22.96 17.7404 22.96H21.1004C21.255 22.96 21.3804 23.0854 21.3804 23.24V34.44C21.3804 34.5945 21.255 34.72 21.1004 34.72ZM18.0204 34.16H20.8204V23.52H18.0204V34.16ZM27.2604 34.72H23.9004C23.7459 34.72 23.6204 34.5945 23.6204 34.44V23.24C23.6204 23.0854 23.7459 22.96 23.9004 22.96H27.2604C27.415 22.96 27.5404 23.0854 27.5404 23.24V34.44C27.5404 34.5945 27.415 34.72 27.2604 34.72ZM24.1804 34.16H26.9804V23.52H24.1804V34.16ZM33.4204 34.72H30.0604C29.9059 34.72 29.7804 34.5945 29.7804 34.44V23.24C29.7804 23.0854 29.9059 22.96 30.0604 22.96H33.4204C33.575 22.96 33.7004 23.0854 33.7004 23.24V34.44C33.7004 34.5945 33.575 34.72 33.4204 34.72ZM30.3404 34.16H33.1404V23.52H30.3404V34.16ZM39.5805 34.72H36.2204C36.0659 34.72 35.9404 34.5945 35.9404 34.44V23.24C35.9404 23.0854 36.0659 22.96 36.2204 22.96H39.5805C39.735 22.96 39.8604 23.0854 39.8604 23.24V34.44C39.8604 34.5945 39.735 34.72 39.5805 34.72ZM36.5005 34.16H39.3004V23.52H36.5005V34.16Z" fill="black"/>
<path d="M21.6604 36.3999H17.1804C17.0258 36.3999 16.9004 36.2745 16.9004 36.1199V34.4399C16.9004 34.2854 17.0258 34.1599 17.1804 34.1599H21.6604C21.815 34.1599 21.9404 34.2854 21.9404 34.4399V36.1199C21.9404 36.2745 21.815 36.3999 21.6604 36.3999ZM17.4604 35.8399H21.3804V34.7199H17.4604V35.8399ZM27.8204 36.3999H23.3404C23.1858 36.3999 23.0604 36.2745 23.0604 36.1199V34.4399C23.0604 34.2854 23.1858 34.1599 23.3404 34.1599H27.8204C27.975 34.1599 28.1004 34.2854 28.1004 34.4399V36.1199C28.1004 36.2745 27.975 36.3999 27.8204 36.3999ZM23.6204 35.8399H27.5404V34.7199H23.6204V35.8399ZM33.9804 36.3999H29.5004C29.3458 36.3999 29.2204 36.2745 29.2204 36.1199V34.4399C29.2204 34.2854 29.3458 34.1599 29.5004 34.1599H33.9804C34.135 34.1599 34.2604 34.2854 34.2604 34.4399V36.1199C34.2604 36.2745 34.135 36.3999 33.9804 36.3999ZM29.7804 35.8399H33.7004V34.7199H29.7804V35.8399ZM40.1404 36.3999H35.6604C35.5058 36.3999 35.3804 36.2745 35.3804 36.1199V34.4399C35.3804 34.2854 35.5058 34.1599 35.6604 34.1599H40.1404C40.295 34.1599 40.4204 34.2854 40.4204 34.4399V36.1199C40.4204 36.2745 40.295 36.3999 40.1404 36.3999ZM35.9404 35.8399H39.8604V34.7199H35.9404V35.8399Z" fill="black"/>
<path d="M41.6014 36.624L42.3803 40.096H14.9403L15.7193 36.624H41.6014ZM41.7755 35.84H15.5451C15.2802 35.84 15.0506 36.0225 14.993 36.2784L14.1138 40.1984C14.0354 40.5484 14.3042 40.88 14.6659 40.88H42.6547C43.0165 40.88 43.2853 40.5484 43.2069 40.1984L42.3277 36.2784C42.2694 36.0225 42.0404 35.84 41.7755 35.84Z" fill="black"/>
<path d="M40.7701 38.6399H32.7901C32.6742 38.6399 32.5801 38.5458 32.5801 38.4299C32.5801 38.314 32.6742 38.2199 32.7901 38.2199H40.7701C40.8861 38.2199 40.9801 38.314 40.9801 38.4299C40.9801 38.5458 40.8861 38.6399 40.7701 38.6399ZM29.0101 38.6399H28.3101C28.1942 38.6399 28.1001 38.5458 28.1001 38.4299C28.1001 38.314 28.1942 38.2199 28.3101 38.2199H29.0101C29.1261 38.2199 29.2201 38.314 29.2201 38.4299C29.2201 38.5458 29.1261 38.6399 29.0101 38.6399ZM31.8101 38.6399H29.9901C29.8742 38.6399 29.7801 38.5458 29.7801 38.4299C29.7801 38.314 29.8742 38.2199 29.9901 38.2199H31.8101C31.9261 38.2199 32.0201 38.314 32.0201 38.4299C32.0201 38.5458 31.9261 38.6399 31.8101 38.6399ZM37.4006 20.1599C37.3625 20.1599 37.3233 20.1493 37.2886 20.1274L28.5481 14.6086C28.4501 14.547 28.4205 14.4171 28.4826 14.3191C28.5442 14.2211 28.6741 14.1914 28.7721 14.2536L37.5126 19.7718C37.6106 19.8334 37.6403 19.9634 37.5781 20.0614C37.5384 20.1252 37.4701 20.1599 37.4006 20.1599ZM19.9197 20.1599C19.8497 20.1599 19.7819 20.1252 19.7421 20.0619C19.68 19.9639 19.7091 19.834 19.8077 19.7724L24.3549 16.9018C24.4529 16.8397 24.5828 16.8694 24.6444 16.9674C24.7065 17.0654 24.6774 17.1953 24.5789 17.2569L20.0317 20.1274C19.9969 20.1493 19.9577 20.1599 19.9197 20.1599ZM25.2363 16.8033C25.1663 16.8033 25.0985 16.7686 25.0588 16.7053C24.9966 16.6073 25.0257 16.4774 25.1243 16.4158L26.0959 15.8026C26.1933 15.741 26.3233 15.7701 26.386 15.8681C26.4476 15.9661 26.4185 16.096 26.3205 16.1582L25.3489 16.7708C25.313 16.7926 25.2744 16.8033 25.2363 16.8033ZM27.0154 15.6799C26.9454 15.6799 26.8777 15.6452 26.8379 15.5819C26.7757 15.4839 26.8049 15.354 26.9034 15.2924L27.1252 15.1524C27.2232 15.0902 27.3531 15.1199 27.4147 15.2179C27.4769 15.3159 27.4477 15.4458 27.3492 15.5074L27.1274 15.6474C27.0927 15.6693 27.0535 15.6799 27.0154 15.6799Z" fill="black"/>
</svg>
