<svg width="57" height="56" viewBox="0 0 57 56" fill="none" xmlns="http://www.w3.org/2000/svg">
<path d="M28.6604 6.71997C16.9077 6.71997 7.38037 16.2473 7.38037 28C7.38037 39.7527 16.9077 49.28 28.6604 49.28C40.4131 49.28 49.9404 39.7527 49.9404 28C49.9404 16.2473 40.4131 6.71997 28.6604 6.71997Z" fill="#FFC01F" fill-opacity="0.5"/>
<path d="M20.2604 40.488C18.0064 40.488 16.1724 38.6545 16.1724 36.4V19.6C16.1724 17.346 18.0058 15.512 20.2604 15.512H37.0604C39.3144 15.512 41.1484 17.3454 41.1484 19.6V36.4C41.1484 38.654 39.3149 40.488 37.0604 40.488H20.2604Z" fill="#363839"/>
<path d="M37.0603 15.904C39.0981 15.904 40.7563 17.5622 40.7563 19.6V36.4C40.7563 38.4378 39.0981 40.096 37.0603 40.096H20.2603C18.2224 40.096 16.5643 38.4378 16.5643 36.4V19.6C16.5643 17.5622 18.2224 15.904 20.2603 15.904H37.0603ZM37.0603 15.12H20.2603C17.7963 15.12 15.7803 17.136 15.7803 19.6V36.4C15.7803 38.864 17.7963 40.88 20.2603 40.88H37.0603C39.5243 40.88 41.5403 38.864 41.5403 36.4V19.6C41.5403 17.136 39.5243 15.12 37.0603 15.12Z" fill="black"/>
<path opacity="0.47" d="M35.585 38.64H21.7351C19.6922 38.64 18.02 36.9678 18.02 34.9249V21.075C18.02 19.0321 19.6922 17.36 21.7351 17.36H35.585C37.6279 17.36 39.3 19.0321 39.3 21.075V34.9244C39.3006 36.9678 37.6284 38.64 35.585 38.64Z" fill="#828282"/>
<path d="M39.0202 26.53C38.8657 26.53 38.7402 26.4046 38.7402 26.25V24.08C38.7402 23.9255 38.8657 23.8 39.0202 23.8C39.1748 23.8 39.3002 23.9255 39.3002 24.08V26.25C39.3002 26.4046 39.1748 26.53 39.0202 26.53Z" fill="black"/>
<path d="M39.0202 22.68C38.8657 22.68 38.7402 22.5546 38.7402 22.4V21.28C38.7402 21.1254 38.8657 21 39.0202 21C39.1748 21 39.3002 21.1254 39.3002 21.28V22.4C39.3002 22.5546 39.1748 22.68 39.0202 22.68Z" fill="black"/>
<path d="M36.5 38.64H20.82C19.2761 38.64 18.02 37.3839 18.02 35.84V20.16C18.02 18.6161 19.2761 17.36 20.82 17.36H35.03C35.1846 17.36 35.31 17.4854 35.31 17.64C35.31 17.7945 35.1846 17.92 35.03 17.92H20.82C19.5847 17.92 18.58 18.9246 18.58 20.16V35.84C18.58 37.0753 19.5847 38.08 20.82 38.08H36.5C37.7354 38.08 38.74 37.0753 38.74 35.84V27.79C38.74 27.6354 38.8655 27.51 39.02 27.51C39.1746 27.51 39.3 27.6354 39.3 27.79V35.84C39.3 37.3839 38.0439 38.64 36.5 38.64Z" fill="black"/>
<path d="M29.6997 31.2009C29.5838 31.2009 29.4897 31.1068 29.4897 30.9909L29.5267 20.3896C29.5267 20.2736 29.6208 20.1796 29.7367 20.1796C29.8526 20.1796 29.9467 20.2736 29.9467 20.3896L29.9097 30.9909C29.9097 31.1074 29.8157 31.2009 29.6997 31.2009ZM29.7367 36.2779C29.6208 36.2779 29.5267 36.1838 29.5267 36.0679L29.4897 31.7206C29.4897 31.6047 29.5838 31.5106 29.6997 31.5106C29.8157 31.5106 29.9097 31.6047 29.9097 31.7206L29.9467 36.0679C29.9467 36.1838 29.8526 36.2779 29.7367 36.2779Z" fill="black"/>
<path d="M29.6996 28.8036C29.0954 28.8036 28.606 29.293 28.606 29.8973C28.606 30.5015 29.0954 30.9909 29.6996 30.9909C30.3039 30.9909 30.7933 30.5015 30.7933 29.8973C30.7933 29.293 30.3033 28.8036 29.6996 28.8036Z" fill="#FDFCEF"/>
<path d="M29.6997 31.201C28.9806 31.201 28.396 30.6163 28.396 29.8973C28.396 29.1783 28.9806 28.5936 29.6997 28.5936C30.4187 28.5936 31.0034 29.1783 31.0034 29.8973C31.0039 30.6163 30.4193 31.201 29.6997 31.201ZM29.6997 29.0136C29.2125 29.0136 28.816 29.4101 28.816 29.8973C28.816 30.3845 29.2125 30.781 29.6997 30.781C30.1869 30.781 30.5834 30.3845 30.5834 29.8973C30.5839 29.4101 30.1874 29.0136 29.6997 29.0136Z" fill="black"/>
<path d="M35.9346 31.1903C35.8187 31.1903 35.7246 31.0962 35.7246 30.9803V20.3896C35.7246 20.2736 35.8187 20.1796 35.9346 20.1796C36.0505 20.1796 36.1446 20.2736 36.1446 20.3896V30.9803C36.1446 31.0962 36.0505 31.1903 35.9346 31.1903ZM35.9346 36.2779C35.8187 36.2779 35.7246 36.1838 35.7246 36.0679V31.71C35.7246 31.594 35.8187 31.5 35.9346 31.5C36.0505 31.5 36.1446 31.594 36.1446 31.71V36.0679C36.1446 36.1838 36.0505 36.2779 35.9346 36.2779Z" fill="black"/>
<path d="M32.6529 26.498C32.537 26.498 32.4429 26.404 32.4429 26.288V20.3896C32.4429 20.2736 32.537 20.1796 32.6529 20.1796C32.7688 20.1796 32.8629 20.2736 32.8629 20.3896V26.288C32.8629 26.404 32.7688 26.498 32.6529 26.498ZM32.6529 36.2779C32.537 36.2779 32.4429 36.1838 32.4429 36.0679V27.0166C32.4429 26.9007 32.537 26.8066 32.6529 26.8066C32.7688 26.8066 32.8629 26.9007 32.8629 27.0166V36.0673C32.8629 36.1838 32.7688 36.2779 32.6529 36.2779Z" fill="black"/>
<path d="M35.9345 28.793C35.3303 28.793 34.8408 29.2824 34.8408 29.8866C34.8408 30.4909 35.3303 30.9803 35.9345 30.9803C36.5387 30.9803 37.0282 30.4909 37.0282 29.8866C37.0282 29.2824 36.5387 28.793 35.9345 28.793Z" fill="#FDFCEF"/>
<path d="M35.9345 31.1904C35.2155 31.1904 34.6309 30.6057 34.6309 29.8867C34.6309 29.1676 35.2155 28.583 35.9345 28.583C36.6536 28.583 37.2382 29.1676 37.2382 29.8867C37.2382 30.6057 36.6536 31.1904 35.9345 31.1904ZM35.9345 29.003C35.4473 29.003 35.0509 29.3995 35.0509 29.8867C35.0509 30.3739 35.4473 30.7704 35.9345 30.7704C36.4217 30.7704 36.8182 30.3739 36.8182 29.8867C36.8182 29.3995 36.4217 29.003 35.9345 29.003Z" fill="black"/>
<path d="M32.6528 24.1001C32.0485 24.1001 31.5591 24.5895 31.5591 25.1938C31.5591 25.798 32.0485 26.2875 32.6528 26.2875C33.257 26.2875 33.7464 25.798 33.7464 25.1938C33.7464 24.5895 33.257 24.1001 32.6528 24.1001Z" fill="#E824B1"/>
<path d="M32.6528 26.4981C31.9338 26.4981 31.3491 25.9135 31.3491 25.1944C31.3491 24.4754 31.9338 23.8907 32.6528 23.8907C33.3718 23.8907 33.957 24.4754 33.957 25.1944C33.957 25.9135 33.3718 26.4981 32.6528 26.4981ZM32.6528 24.3102C32.1656 24.3102 31.7691 24.7067 31.7691 25.1939C31.7691 25.6811 32.1656 26.0775 32.6528 26.0775C33.1406 26.0775 33.537 25.6811 33.537 25.1939C33.537 24.7067 33.1406 24.3102 32.6528 24.3102Z" fill="black"/>
<path d="M26.7814 24.64H21.019C21.019 23.0148 22.3076 21.7 23.9002 21.7C25.4929 21.7 26.7814 23.0148 26.7814 24.64Z" fill="white" stroke="black" stroke-width="0.375" stroke-miterlimit="10" stroke-linecap="round" stroke-linejoin="round"/>
<path d="M23.9004 24.64L25.0904 23.52" stroke="black" stroke-width="0.375" stroke-miterlimit="10" stroke-linecap="round" stroke-linejoin="round"/>
<path d="M21.0303 27.16H26.7703" stroke="black" stroke-width="0.375" stroke-miterlimit="10" stroke-linecap="round" stroke-linejoin="round"/>
<path d="M21.0303 28.84H26.7703" stroke="black" stroke-width="0.375" stroke-miterlimit="10" stroke-linecap="round" stroke-linejoin="round"/>
<path d="M21.0303 30.66H24.7403" stroke="black" stroke-width="0.375" stroke-miterlimit="10" stroke-linecap="round" stroke-linejoin="round"/>
</svg>
