<svg width="57" height="56" viewBox="0 0 57 56" fill="none" xmlns="http://www.w3.org/2000/svg">
<path d="M28.451 7C22.9557 7 17.6855 9.18299 13.7997 13.0687C9.91395 16.9545 7.73096 22.2247 7.73096 27.72C7.73096 33.2153 9.91395 38.4855 13.7997 42.3713C17.6855 46.257 22.9557 48.44 28.451 48.44C33.9462 48.44 39.2165 46.257 43.1022 42.3713C46.988 38.4855 49.171 33.2153 49.171 27.72C49.171 22.2247 46.988 16.9545 43.1022 13.0687C39.2165 9.18299 33.9462 7 28.451 7Z" fill="#FFC01F" fill-opacity="0.5"/>
<path d="M40.292 39.2H16.6785C15.8732 39.2 15.2202 38.5471 15.2202 37.7418V18.2583C15.2202 17.453 15.8732 16.8 16.6785 16.8H40.292C41.0973 16.8 41.7502 17.453 41.7502 18.2583V37.7418C41.7502 38.5471 41.0973 39.2 40.292 39.2Z" fill="white"/>
<path d="M41.5402 20.72H15.2202V18.6436C15.2202 17.6255 16.0457 16.8 17.0637 16.8H39.5102C40.6313 16.8 41.5402 17.7089 41.5402 18.83V20.72Z" fill="white"/>
<path d="M32.6189 37.8577L31.0918 41.6371L34.8712 40.11" fill="white"/>
<path d="M31.0916 42.0297C30.9897 42.0297 30.8894 41.9899 30.8144 41.9149C30.7035 41.8034 30.6693 41.6365 30.7281 41.4904L32.2558 37.7109L32.9833 38.0049L31.8017 40.9281L34.7249 39.7465L35.0189 40.474L31.2394 42.0017C31.1913 42.0201 31.1409 42.0297 31.0916 42.0297Z" fill="black"/>
<path d="M42.1351 32.1603C41.7145 32.1603 41.3209 31.9979 41.0263 31.7033C40.7317 31.4088 40.5693 31.0151 40.5693 30.5951C40.5693 30.1745 40.7317 29.7808 41.0263 29.4863L42.2141 28.2985C42.5086 28.004 42.9023 27.8416 43.3229 27.8416C43.7429 27.8416 44.1365 28.004 44.4311 28.2985C44.7257 28.5931 44.8881 28.9868 44.8881 29.4068C44.8881 29.8273 44.7257 30.221 44.4311 30.515L43.2433 31.7033C42.9493 31.9979 42.5551 32.1603 42.1351 32.1603Z" fill="#FFC01F"/>
<path d="M43.3226 28.2324C43.6385 28.2324 43.9336 28.3539 44.1542 28.5745C44.6129 29.0332 44.6129 29.7791 44.1542 30.2377L42.9665 31.4255C42.7458 31.6461 42.4507 31.7676 42.1349 31.7676C41.819 31.7676 41.5239 31.6461 41.3033 31.4255C40.8446 30.9668 40.8446 30.2209 41.3033 29.7623L42.491 28.5745C42.7117 28.3539 43.0073 28.2324 43.3226 28.2324ZM43.3226 27.4484C42.8203 27.4484 42.318 27.6388 41.9366 28.0201L40.7489 29.2079C39.9867 29.97 39.9867 31.2177 40.7489 31.9799C41.1302 32.3612 41.6325 32.5516 42.1349 32.5516C42.6372 32.5516 43.1395 32.3612 43.5209 31.9799L44.7086 30.7921C45.4708 30.03 45.4708 28.7823 44.7086 28.0201C44.3278 27.6388 43.8249 27.4484 43.3226 27.4484Z" fill="black"/>
<path d="M32.7891 37.722L40.9461 29.5647L43.1636 31.7822L35.0066 39.9395L32.7891 37.722Z" fill="#E824B1"/>
<path d="M40.9468 30.1191L42.61 31.7823L35.0069 39.3848L33.3437 37.7216L40.9468 30.1191ZM40.9468 29.0103L32.2349 37.7216L35.0069 40.4936L43.7182 31.7823L40.9468 29.0103Z" fill="black"/>
<path d="M40.3125 30.1978L41.7376 28.7726L43.9551 30.99L42.53 32.4152L40.3125 30.1978Z" fill="#300038"/>
<path d="M41.739 29.3272L43.4021 30.9904L42.5308 31.8617L40.8676 30.1985L41.739 29.3272ZM41.739 28.2184L39.7588 30.1985L42.5308 32.9705L44.5109 30.9904L41.739 28.2184Z" fill="black"/>
<path d="M31.7399 25.2H22.2199C22.0654 25.2 21.9399 25.0746 21.9399 24.92C21.9399 24.7655 22.0654 24.64 22.2199 24.64H31.7399C31.8945 24.64 32.0199 24.7655 32.0199 24.92C32.0199 25.0746 31.8945 25.2 31.7399 25.2Z" fill="black"/>
<path d="M30.6201 20.72H15.1501C14.9956 20.72 14.8701 20.5946 14.8701 20.44C14.8701 20.2855 14.9956 20.16 15.1501 20.16H30.6201C30.7747 20.16 30.9001 20.2855 30.9001 20.44C30.9001 20.5946 30.7747 20.72 30.6201 20.72Z" fill="black"/>
<path d="M37.3402 25.2H33.9802C33.8256 25.2 33.7002 25.0746 33.7002 24.92C33.7002 24.7655 33.8256 24.64 33.9802 24.64H37.3402C37.4948 24.64 37.6202 24.7655 37.6202 24.92C37.6202 25.0746 37.4948 25.2 37.3402 25.2Z" fill="black"/>
<path d="M35.66 20.72H32.3C32.1455 20.72 32.02 20.5946 32.02 20.44C32.02 20.2855 32.1455 20.16 32.3 20.16H35.66C35.8146 20.16 35.94 20.2855 35.94 20.44C35.94 20.5946 35.8146 20.72 35.66 20.72Z" fill="black"/>
<path d="M39.0201 20.72H37.3401C37.1855 20.72 37.0601 20.5946 37.0601 20.44C37.0601 20.2855 37.1855 20.16 37.3401 20.16H39.0201C39.1746 20.16 39.3001 20.2855 39.3001 20.44C39.3001 20.5946 39.1746 20.72 39.0201 20.72Z" fill="black"/>
<path d="M37.3399 30.2401H26.6999C26.5454 30.2401 26.4199 30.1146 26.4199 29.9601C26.4199 29.8055 26.5454 29.6801 26.6999 29.6801H37.3399C37.4945 29.6801 37.6199 29.8055 37.6199 29.9601C37.6199 30.1146 37.4945 30.2401 37.3399 30.2401Z" fill="black"/>
<path d="M25.0199 30.2401H22.2199C22.0654 30.2401 21.9399 30.1146 21.9399 29.9601C21.9399 29.8055 22.0654 29.6801 22.2199 29.6801H25.0199C25.1745 29.6801 25.2999 29.8055 25.2999 29.9601C25.2999 30.1146 25.1745 30.2401 25.0199 30.2401Z" fill="black"/>
<path d="M33.4199 34.72H22.2199C22.0654 34.72 21.9399 34.5946 21.9399 34.44C21.9399 34.2855 22.0654 34.16 22.2199 34.16H33.4199C33.5745 34.16 33.6999 34.2855 33.6999 34.44C33.6999 34.5946 33.5745 34.72 33.4199 34.72Z" fill="black"/>
<path d="M18.8038 25.8719C18.7299 25.8719 18.6582 25.8423 18.6056 25.7902L17.2616 24.4462C17.1524 24.337 17.1524 24.1595 17.2616 24.0503C17.3708 23.9411 17.5483 23.9411 17.6575 24.0503L18.7736 25.1663L20.5953 22.7365C20.6888 22.6127 20.8641 22.5881 20.9873 22.6799C21.111 22.7729 21.1362 22.9482 21.0438 23.0719L19.0278 25.7599C18.9791 25.8249 18.9041 25.8652 18.8234 25.8714C18.8173 25.8719 18.8105 25.8719 18.8038 25.8719Z" fill="black"/>
<path d="M18.8038 30.912C18.7299 30.912 18.6582 30.8823 18.6056 30.8302L17.2616 29.4862C17.1524 29.377 17.1524 29.1995 17.2616 29.0903C17.3708 28.9811 17.5483 28.9811 17.6575 29.0903L18.7736 30.2064L20.5953 27.7765C20.6888 27.6528 20.8641 27.6281 20.9873 27.72C21.111 27.8129 21.1362 27.9882 21.0438 28.112L19.0278 30.8C18.9791 30.8649 18.9041 30.9053 18.8234 30.9114C18.8173 30.912 18.8105 30.912 18.8038 30.912Z" fill="black"/>
<path d="M18.8038 35.3921C18.7299 35.3921 18.6582 35.3624 18.6056 35.3103L17.2616 33.9663C17.1524 33.8571 17.1524 33.6796 17.2616 33.5704C17.3708 33.4612 17.5483 33.4612 17.6575 33.5704L18.7736 34.6865L20.5953 32.2566C20.6888 32.1329 20.8641 32.1077 20.9873 32.2001C21.111 32.293 21.1362 32.4683 21.0438 32.5921L19.0278 35.2801C18.9791 35.345 18.9041 35.3854 18.8234 35.3915C18.8173 35.3921 18.8105 35.3921 18.8038 35.3921Z" fill="black"/>
<path d="M39.4922 39.732H37.5736C37.3569 39.732 37.1816 39.5567 37.1816 39.34C37.1816 39.1233 37.3569 38.948 37.5736 38.948H39.4922C40.4571 38.948 41.2416 38.1539 41.2416 37.1784V35.4665C41.2416 35.2497 41.4169 35.0745 41.6336 35.0745C41.8504 35.0745 42.0256 35.2497 42.0256 35.4665V37.1784C42.0256 38.5862 40.8894 39.732 39.4922 39.732Z" fill="black"/>
<path d="M29.0722 39.7785H17.2501C15.812 39.7785 14.6416 38.6059 14.6416 37.165V18.8351C14.6416 17.3942 15.812 16.2216 17.2501 16.2216H39.4166C40.8552 16.2216 42.0256 17.3942 42.0256 18.8351V26.0563C42.0256 26.273 41.8503 26.4483 41.6336 26.4483C41.4169 26.4483 41.2416 26.273 41.2416 26.0563V18.8351C41.2416 17.826 40.4229 17.0056 39.4166 17.0056H17.2501C16.2438 17.0056 15.4256 17.826 15.4256 18.8351V37.165C15.4256 38.1741 16.2438 38.9945 17.2501 38.9945H29.0722C29.289 38.9945 29.4642 39.1698 29.4642 39.3865C29.4642 39.6032 29.289 39.7785 29.0722 39.7785Z" fill="black"/>
</svg>
