<svg width="57" height="56" viewBox="0 0 57 56" fill="none" xmlns="http://www.w3.org/2000/svg">
<path d="M28.5896 7.28003C23.0943 7.28003 17.8241 9.46302 13.9384 13.3488C10.0526 17.2345 7.86963 22.5047 7.86963 28C7.86963 33.4953 10.0526 38.7655 13.9384 42.6513C17.8241 46.537 23.0943 48.72 28.5896 48.72C34.0849 48.72 39.3551 46.537 43.2409 42.6513C47.1266 38.7655 49.3096 33.4953 49.3096 28C49.3096 22.5047 47.1266 17.2345 43.2409 13.3488C39.3551 9.46302 34.0849 7.28003 28.5896 7.28003Z" fill="#FFC01F" fill-opacity="0.5"/>
<path d="M28.0898 39.2683C27.7898 39.2683 27.4903 39.1908 27.2228 39.0353L20.9498 35.3928C20.4193 35.0848 20.0898 34.5128 20.0898 33.8993V26.6003C20.0898 25.9868 20.4193 25.4148 20.9498 25.1068L27.2228 21.4643C27.7578 21.1538 28.4218 21.1538 28.9573 21.4643L35.2303 25.1068C35.7603 25.4148 36.0898 25.9868 36.0898 26.6003V33.8993C36.0898 34.5128 35.7603 35.0848 35.2298 35.3928L28.9568 39.0353C28.6893 39.1908 28.3898 39.2683 28.0898 39.2683ZM28.0898 21.7313C27.8768 21.7313 27.6633 21.7863 27.4738 21.8968L21.2008 25.5393C20.8238 25.7578 20.5898 26.1643 20.5898 26.6003V33.8993C20.5898 34.3348 20.8238 34.7418 21.2008 34.9608L27.4738 38.6033C27.8538 38.8238 28.3263 38.8243 28.7063 38.6033L34.9793 34.9608C35.3558 34.7418 35.5898 34.3353 35.5898 33.8993V26.6003C35.5898 26.1648 35.3558 25.7578 34.9788 25.5393L28.7058 21.8968C28.5163 21.7863 28.3028 21.7313 28.0898 21.7313Z" fill="black"/>
<path d="M20.3398 38L15.8398 35.5V30L20.3398 32.5V38Z" fill="#A8A8A8"/>
<path d="M20.3398 38L24.8398 35.5V30L20.3398 32.5V38Z" fill="#656565"/>
<path d="M15.9023 30L20.3713 32.5L24.8398 30L20.3398 27.75L15.9023 30Z" fill="#F1F1F1"/>
<path d="M35.8398 38L31.3398 35.5V30L35.8398 32.5V38Z" fill="#A8A8A8"/>
<path d="M35.8398 38L40.3398 35.5V30L35.8398 32.5" fill="#656565"/>
<path d="M31.4023 30L35.8713 32.5L40.3398 30L35.8398 27.75L31.4023 30Z" fill="#F1F1F1"/>
<path d="M35.8398 38.25C35.7983 38.25 35.7568 38.24 35.7183 38.2185L31.2183 35.7185C31.1393 35.6745 31.0898 35.591 31.0898 35.5V30C31.0898 29.9115 31.1368 29.8295 31.2128 29.7845C31.2888 29.7395 31.3833 29.7385 31.4613 29.7815L35.9613 32.2815C36.0818 32.3485 36.1253 32.5005 36.0583 32.6215C35.9903 32.743 35.8378 32.785 35.7178 32.7185L31.5898 30.425V35.353L35.9613 37.7815C36.0818 37.8485 36.1253 38.0005 36.0583 38.1215C36.0128 38.2035 35.9273 38.25 35.8398 38.25Z" fill="black"/>
<path d="M35.8398 38.25C35.7958 38.25 35.7518 38.2385 35.7128 38.2155C35.6368 38.1705 35.5898 38.0885 35.5898 38V35.5625C35.5898 35.4245 35.7018 35.3125 35.8398 35.3125C35.9778 35.3125 36.0898 35.4245 36.0898 35.5625V37.575L40.0898 35.353V30.425L36.0898 32.647V33.958C36.0898 34.096 35.9778 34.208 35.8398 34.208C35.7018 34.208 35.5898 34.096 35.5898 33.958V32.5C35.5898 32.409 35.6393 32.3255 35.7183 32.2815L40.2183 29.7815C40.2963 29.7385 40.3908 29.7395 40.4668 29.7845C40.5428 29.8295 40.5898 29.9115 40.5898 30V35.5C40.5898 35.591 40.5403 35.6745 40.4613 35.7185L35.9613 38.2185C35.9233 38.2395 35.8818 38.25 35.8398 38.25Z" fill="black"/>
<path d="M35.8714 32.7501C35.8294 32.7501 35.7874 32.7396 35.7494 32.7181L31.2804 30.2181C31.1999 30.1731 31.1504 30.0871 31.1524 29.9946C31.1544 29.9021 31.2069 29.8186 31.2889 29.7766L35.7264 27.5266C35.7974 27.4906 35.8809 27.4906 35.9514 27.5261L40.4514 29.7761C40.5344 29.8176 40.5869 29.9011 40.5894 29.9941C40.5914 30.0866 40.5419 30.1731 40.4614 30.2181L35.9924 32.7181C35.9549 32.7396 35.9129 32.7501 35.8714 32.7501ZM31.9339 30.0111L35.8714 32.2136L39.8059 30.0126L35.8409 28.0301L31.9339 30.0111Z" fill="black"/>
<path d="M28.3398 26.5L23.8398 24V18.5L28.3398 21V26.5Z" fill="#A8A8A8"/>
<path d="M28.3398 26.5L32.8398 24V18.5L28.3398 21V26.5Z" fill="#656565"/>
<path d="M23.9023 18.5L28.3713 21L32.8398 18.5L28.3398 16.25L23.9023 18.5Z" fill="#F1F1F1"/>
<path d="M20.3398 38.25C20.2978 38.25 20.2563 38.2395 20.2183 38.2185L15.7183 35.7185C15.6393 35.6745 15.5898 35.591 15.5898 35.5V30C15.5898 29.9115 15.6368 29.8295 15.7128 29.7845C15.7888 29.7395 15.8838 29.7385 15.9613 29.7815L20.4613 32.2815C20.5403 32.3255 20.5898 32.409 20.5898 32.5V38C20.5898 38.0885 20.5428 38.1705 20.4668 38.2155C20.4278 38.2385 20.3838 38.25 20.3398 38.25ZM16.0898 35.353L20.0898 37.575V32.647L16.0898 30.425V35.353Z" fill="black"/>
<path d="M20.3398 38.25C20.2958 38.25 20.2518 38.2385 20.2128 38.2155C20.1368 38.1705 20.0898 38.0885 20.0898 38V32.5C20.0898 32.409 20.1393 32.3255 20.2183 32.2815L22.4178 31.0595C22.5373 30.993 22.6903 31.0355 22.7583 31.1565C22.8253 31.277 22.7818 31.4295 22.6613 31.4965L20.5898 32.647V37.575L24.5898 35.353V30.425L23.8708 30.8245C23.7518 30.891 23.5983 30.8485 23.5303 30.7275C23.4633 30.607 23.5068 30.4545 23.6273 30.3875L24.7178 29.7815C24.7953 29.7385 24.8903 29.7395 24.9663 29.7845C25.0423 29.8295 25.0898 29.9115 25.0898 30V35.5C25.0898 35.591 25.0403 35.6745 24.9613 35.7185L20.4613 38.2185C20.4233 38.2395 20.3818 38.25 20.3398 38.25Z" fill="black"/>
<path d="M20.3714 32.7501C20.3299 32.7501 20.2879 32.7396 20.2494 32.7181L15.7804 30.2181C15.6999 30.1731 15.6504 30.0871 15.6524 29.9946C15.6544 29.9021 15.7069 29.8186 15.7889 29.7766L20.2264 27.5266C20.2974 27.4906 20.3809 27.4906 20.4514 27.5261L24.9514 29.7761C25.0749 29.8376 25.1249 29.9881 25.0634 30.1116C25.0014 30.2351 24.8524 30.2851 24.7279 30.2236L20.3409 28.0301L16.4339 30.0111L20.4934 32.2821C20.6139 32.3496 20.6569 32.5016 20.5894 32.6221C20.5434 32.7041 20.4584 32.7501 20.3714 32.7501Z" fill="black"/>
<path d="M28.3398 26.75C28.2978 26.75 28.2563 26.7395 28.2183 26.7185L23.7183 24.2185C23.6393 24.1745 23.5898 24.091 23.5898 24V18.5C23.5898 18.4115 23.6368 18.3295 23.7128 18.2845C23.7888 18.2395 23.8833 18.2385 23.9613 18.2815L25.3328 19.0435C25.4533 19.1105 25.4968 19.263 25.4298 19.3835C25.3623 19.5045 25.2098 19.547 25.0893 19.4805L24.0893 18.925V23.853L28.0893 26.075V21.147L26.2993 20.1525C26.1788 20.0855 26.1353 19.9335 26.2023 19.8125C26.2698 19.691 26.4218 19.649 26.5428 19.7155L28.4613 20.781C28.5403 20.8255 28.5898 20.909 28.5898 21V26.5C28.5898 26.5885 28.5428 26.6705 28.4668 26.7155C28.4278 26.7385 28.3838 26.75 28.3398 26.75Z" fill="black"/>
<path d="M28.3398 26.75C28.2958 26.75 28.2518 26.7385 28.2128 26.7155C28.1368 26.6705 28.0898 26.5885 28.0898 26.5V21C28.0898 20.909 28.1393 20.8255 28.2183 20.7815L32.7183 18.2815C32.7963 18.2385 32.8908 18.2395 32.9668 18.2845C33.0428 18.3295 33.0898 18.4115 33.0898 18.5V24C33.0898 24.091 33.0403 24.1745 32.9613 24.2185L28.4613 26.7185C28.4233 26.7395 28.3818 26.75 28.3398 26.75ZM28.5898 21.147V26.075L32.5898 23.853V18.925L28.5898 21.147Z" fill="black"/>
<path d="M28.3714 21.2501C28.2839 21.2501 28.1989 21.2041 28.1529 21.1221C28.0854 21.0016 28.1284 20.8491 28.2489 20.7821L32.3054 18.5126L28.3404 16.5301L24.0154 18.7231C23.8914 18.7851 23.7419 18.7366 23.6789 18.6131C23.6164 18.4901 23.6659 18.3396 23.7889 18.2771L28.2264 16.0271C28.2974 15.9911 28.3809 15.9911 28.4514 16.0266L32.9514 18.2766C33.0344 18.3181 33.0869 18.4016 33.0894 18.4946C33.0914 18.5871 33.0419 18.6736 32.9614 18.7186L28.4924 21.2186C28.4544 21.2401 28.4129 21.2501 28.3714 21.2501Z" fill="black"/>
</svg>
