<svg width="168" height="241" viewBox="0 0 168 241" fill="none"
    xmlns="http://www.w3.org/2000/svg">
    <path d="M151.857 108.918L151.071 108.132C151.071 108.132 151.07 108.918 151.857 108.918Z" fill="#3784AA"/>
    <path opacity="0.7" d="M164.89 192.446C162.447 183.319 149.015 185.145 152.068 176.627C149.626 175.41 146.573 175.41 148.404 170.542C145.351 169.325 146.573 166.283 143.52 166.892C147.184 163.85 142.299 161.416 144.131 160.807C148.405 158.982 148.404 149.247 148.404 144.379C139.246 147.422 144.131 136.47 145.963 132.819C149.015 129.777 144.741 119.434 145.963 117C147.794 115.783 145.352 115.174 145.963 113.349C147.184 113.349 147.794 113.349 147.183 112.132C152.068 112.741 150.847 107.265 147.794 106.048C147.183 99.9636 136.804 99.355 137.415 91.4453C139.246 90.8369 139.857 93.8792 139.857 90.837C142.91 92.6623 141.078 89.0116 142.91 89.6201C144.131 87.1863 140.468 84.7525 139.857 82.3188C142.299 78.0597 142.909 73.192 144.131 67.7161C141.688 67.7161 142.299 65.8908 141.078 64.6739C136.193 62.8486 135.583 69.5416 131.919 67.1078C129.477 64.6741 133.751 66.4994 134.362 64.0656C130.698 64.6741 130.699 62.2403 133.751 61.0234C134.362 61.6319 135.583 62.2403 134.972 61.0234C136.193 61.0234 136.194 62.2403 137.415 61.0234C136.804 59.1981 136.194 60.415 134.362 61.0234C132.53 59.1981 132.53 55.5474 135.583 58.5895C136.804 56.1558 135.583 55.5474 135.583 52.5052C136.804 51.8967 136.804 50.0714 135.583 49.463C136.804 46.4208 134.972 42.7703 138.635 42.7703C136.804 40.3366 136.194 38.5111 137.415 34.252C138.025 33.0352 137.414 33.6438 138.025 31.8185C137.414 31.8185 135.583 33.0354 135.583 31.8185C133.14 29.9932 134.972 29.3845 134.362 28.1677C129.477 31.2099 127.646 20.8665 121.54 20.258C116.656 16.6074 125.203 11.7399 122.761 8.0893C130.088 0.17961 111.161 -2.8625 109.94 3.22187C108.718 0.788121 106.276 2.00507 106.887 4.43882C105.055 6.26413 100.781 5.04711 100.781 8.0893C99.5601 8.0893 98.3388 9.91476 98.3388 7.48101C97.1177 8.08945 97.7284 6.26406 97.7284 6.26406C97.1179 6.8725 97.118 7.48093 97.118 6.26406C91.0124 6.8725 87.3485 5.65577 81.2429 5.65577C61.7051 7.48108 36.6729 5.04704 14.6928 6.87235C18.3561 9.91454 6.14486 19.6498 15.3032 26.9511C14.6927 27.5595 17.135 28.1677 17.7456 28.1677C17.7456 29.3845 14.6927 28.7761 15.3032 31.2099C13.4715 33.6436 22.0192 34.252 15.9136 37.2942C18.9664 47.0292 17.1344 53.1138 17.1344 61.0234C22.6295 63.4572 20.7979 68.3248 19.5768 71.367C24.4613 72.5838 18.9664 73.8007 18.9664 77.4513C17.1347 77.4513 18.356 78.668 18.356 79.8849C17.7454 80.4933 17.1349 81.7103 18.356 82.3188C22.0193 82.9272 23.24 85.3608 23.24 89.0114C23.24 89.0114 32.3988 117.608 24.4616 115.783C21.4088 116.391 25.0721 118.825 24.4616 120.65C18.9666 120.65 17.7454 125.518 15.3032 128.56C11.0293 138.295 11.0289 148.639 7.97608 157.765C-3.01394 162.024 -0.57127 180.277 3.09207 188.795C6.75541 197.313 9.19734 207.657 10.4185 212.525C11.029 213.133 13.4711 213.741 14.0817 211.916C14.6922 212.524 15.3029 212.525 16.524 212.525C17.7451 213.133 17.7453 213.741 18.9664 213.741C15.9136 216.175 24.4616 223.476 18.356 222.868C20.7982 231.386 18.356 234.428 9.19764 230.778C43.9994 255.115 89.1803 228.344 129.477 208.265C139.857 206.44 151.457 202.181 149.626 207.048C156.952 211.308 175.269 188.187 164.89 192.446ZM133.751 173.584C125.814 176.018 131.309 182.103 126.424 185.753C128.256 173.584 125.204 190.012 118.488 179.06C111.161 171.759 86.1274 168.108 102.612 166.283C105.665 174.193 107.497 170.542 108.718 165.675C110.55 169.325 109.329 173.584 114.824 170.542C119.708 167.5 114.824 176.018 122.151 174.801C123.372 172.368 124.593 168.717 121.54 168.717C119.709 163.241 126.424 167.5 128.867 162.633C123.372 165.066 124.593 158.373 129.477 161.416C125.203 157.765 128.866 158.374 127.035 153.506C122.15 153.506 128.867 152.289 130.699 149.855C128.867 143.771 121.54 140.12 115.435 139.512C117.877 137.078 121.54 140.12 124.593 138.903C125.204 137.078 117.877 132.211 113.603 135.861C112.992 135.253 106.276 134.644 105.665 138.295C101.391 133.428 117.266 135.253 120.319 130.385C116.045 132.211 115.435 111.524 109.329 122.475C108.719 120.65 108.718 113.958 102.612 121.867C108.718 109.698 94.0651 123.693 94.6756 115.783C102.002 118.825 100.781 111.524 94.6756 110.915C94.6756 107.873 86.7385 92.6623 78.8013 90.837C86.128 91.4455 75.7485 86.5779 78.8013 83.5357C81.2435 86.5779 78.8007 76.2342 81.2429 79.8849C82.464 82.927 80.0221 83.5357 80.0221 86.5779C83.0749 87.7948 95.286 109.698 92.2332 95.0958C93.4544 94.4874 96.507 100.572 95.8964 97.5297C98.3387 99.9634 87.3485 101.789 99.5596 109.698C103.834 112.132 102.002 115.174 106.276 113.958C110.55 117 106.887 112.132 110.55 112.741C111.771 112.132 122.761 115.175 113.603 115.175C106.276 115.175 119.708 121.867 120.319 122.475C120.929 129.777 123.372 133.428 127.646 129.169C124.593 127.343 128.256 123.693 128.256 121.867C124.593 121.867 125.814 120.042 128.867 118.217C134.972 123.084 127.035 113.349 128.867 113.349C131.919 112.132 135.583 106.048 127.646 108.481C127.646 101.789 128.256 95.7043 128.867 105.439C125.203 110.307 135.583 104.223 133.751 109.698C139.857 109.698 130.698 110.307 133.14 110.915C130.698 111.524 128.867 118.825 134.362 118.217C134.972 121.259 131.92 117 131.309 120.65C123.982 127.343 133.141 126.126 133.751 130.994C135.583 132.211 136.193 140.729 132.53 139.512C132.53 141.337 134.973 144.988 133.751 142.554C138.636 139.512 131.309 155.331 136.193 158.373C133.751 158.982 130.698 172.976 134.972 173.584C136.804 174.193 134.972 170.542 136.193 169.934C134.972 169.934 136.194 176.627 133.751 173.584Z" fill="#FFC01F"/>
    <path d="M159.718 116.779V117.565C161.291 118.351 159.718 117.565 159.718 116.779Z" fill="#3784AA"/>
    <path d="M153.427 94.7612C153.427 95.5476 153.427 95.5474 154.213 95.5474C154.999 94.761 154.213 94.7612 153.427 94.7612Z" fill="#3784AA"/>
    <path d="M51.7273 177.596C51.6477 177.319 51.536 177.075 51.392 176.863C51.2481 176.647 51.072 176.465 50.8636 176.317C50.6591 176.166 50.4242 176.05 50.1591 175.971C49.8977 175.891 49.608 175.851 49.2898 175.851C48.6951 175.851 48.1723 175.999 47.7216 176.295C47.2746 176.59 46.9261 177.02 46.6761 177.584C46.4261 178.145 46.3011 178.831 46.3011 179.641C46.3011 180.452 46.4242 181.141 46.6705 181.709C46.9167 182.278 47.2652 182.711 47.7159 183.01C48.1667 183.306 48.6989 183.454 49.3125 183.454C49.8693 183.454 50.3447 183.355 50.7386 183.158C51.1364 182.957 51.4394 182.675 51.6477 182.312C51.8598 181.948 51.9659 181.518 51.9659 181.022L52.4659 181.096H49.4659V179.243H54.3352V180.709C54.3352 181.732 54.1193 182.611 53.6875 183.346C53.2557 184.077 52.661 184.641 51.9034 185.039C51.1458 185.433 50.2784 185.63 49.3011 185.63C48.2102 185.63 47.2519 185.389 46.4261 184.908C45.6004 184.423 44.9564 183.736 44.4943 182.846C44.036 181.952 43.8068 180.891 43.8068 179.664C43.8068 178.721 43.9432 177.88 44.2159 177.141C44.4924 176.399 44.8788 175.77 45.375 175.255C45.8712 174.74 46.4489 174.348 47.108 174.079C47.767 173.81 48.4811 173.675 49.25 173.675C49.9091 173.675 50.5227 173.772 51.0909 173.965C51.6591 174.154 52.1629 174.423 52.6023 174.772C53.0455 175.12 53.4072 175.535 53.6875 176.016C53.9678 176.493 54.1477 177.02 54.2273 177.596H51.7273ZM58.5582 180.425V185.471H56.1378V173.834H58.4901V178.283H58.5923C58.7893 177.768 59.1075 177.365 59.5469 177.073C59.9863 176.778 60.5374 176.63 61.2003 176.63C61.8063 176.63 62.3348 176.762 62.7855 177.028C63.2401 177.289 63.5923 177.666 63.8423 178.158C64.0961 178.647 64.2211 179.232 64.2173 179.914V185.471H61.7969V180.346C61.8007 179.808 61.6643 179.389 61.3878 179.09C61.1151 178.791 60.7325 178.641 60.2401 178.641C59.9105 178.641 59.6188 178.711 59.3651 178.851C59.1151 178.992 58.9181 179.196 58.7741 179.465C58.634 179.73 58.562 180.05 58.5582 180.425ZM68.6108 185.635C68.054 185.635 67.5578 185.539 67.1222 185.346C66.6866 185.149 66.3419 184.859 66.0881 184.476C65.8381 184.09 65.7131 183.609 65.7131 183.033C65.7131 182.548 65.8021 182.141 65.9801 181.812C66.1581 181.482 66.4006 181.217 66.7074 181.016C67.0142 180.815 67.3627 180.664 67.7528 180.562C68.1468 180.459 68.5597 180.387 68.9915 180.346C69.4991 180.293 69.9081 180.243 70.2188 180.198C70.5294 180.149 70.7547 180.077 70.8949 179.982C71.035 179.887 71.1051 179.747 71.1051 179.562V179.528C71.1051 179.168 70.9915 178.889 70.7642 178.692C70.5407 178.495 70.2225 178.397 69.8097 178.397C69.3741 178.397 69.0275 178.493 68.7699 178.687C68.5123 178.876 68.3419 179.115 68.2585 179.403L66.0199 179.221C66.1335 178.69 66.357 178.232 66.6903 177.846C67.0237 177.456 67.4536 177.156 67.9801 176.948C68.5104 176.736 69.1241 176.63 69.821 176.63C70.3059 176.63 70.7699 176.687 71.2131 176.8C71.66 176.914 72.0559 177.09 72.4006 177.329C72.7491 177.567 73.0237 177.874 73.2244 178.249C73.4252 178.62 73.5256 179.065 73.5256 179.584V185.471H71.2301V184.26H71.1619C71.0218 184.533 70.8343 184.774 70.5994 184.982C70.3646 185.187 70.0824 185.348 69.7528 185.465C69.4233 185.579 69.0426 185.635 68.6108 185.635ZM69.304 183.965C69.66 183.965 69.9744 183.895 70.2472 183.755C70.5199 183.611 70.7339 183.418 70.8892 183.175C71.0445 182.933 71.1222 182.658 71.1222 182.351V181.425C71.0464 181.474 70.9422 181.52 70.8097 181.562C70.6809 181.599 70.535 181.635 70.3722 181.67C70.2093 181.7 70.0464 181.728 69.8835 181.755C69.7206 181.778 69.5729 181.798 69.4403 181.817C69.1563 181.859 68.9081 181.925 68.696 182.016C68.4839 182.107 68.3191 182.23 68.2017 182.385C68.0843 182.537 68.0256 182.726 68.0256 182.954C68.0256 183.283 68.1449 183.535 68.3835 183.709C68.6259 183.88 68.9328 183.965 69.304 183.965ZM77.8239 180.425V185.471H75.4034V176.743H77.7102V178.283H77.8125C78.0057 177.776 78.3295 177.374 78.7841 177.079C79.2386 176.779 79.7898 176.63 80.4375 176.63C81.0436 176.63 81.572 176.762 82.0227 177.028C82.4735 177.293 82.8239 177.671 83.0739 178.164C83.3239 178.653 83.4489 179.236 83.4489 179.914V185.471H81.0284V180.346C81.0322 179.812 80.8958 179.395 80.6193 179.096C80.3428 178.793 79.9621 178.641 79.4773 178.641C79.1515 178.641 78.8636 178.711 78.6136 178.851C78.3674 178.992 78.1742 179.196 78.0341 179.465C77.8977 179.73 77.8277 180.05 77.8239 180.425ZM87.8452 185.635C87.2884 185.635 86.7921 185.539 86.3565 185.346C85.9209 185.149 85.5762 184.859 85.3224 184.476C85.0724 184.09 84.9474 183.609 84.9474 183.033C84.9474 182.548 85.0365 182.141 85.2145 181.812C85.3925 181.482 85.6349 181.217 85.9418 181.016C86.2486 180.815 86.5971 180.664 86.9872 180.562C87.3812 180.459 87.794 180.387 88.2259 180.346C88.7334 180.293 89.1425 180.243 89.4531 180.198C89.7637 180.149 89.9891 180.077 90.1293 179.982C90.2694 179.887 90.3395 179.747 90.3395 179.562V179.528C90.3395 179.168 90.2259 178.889 89.9986 178.692C89.7751 178.495 89.4569 178.397 89.044 178.397C88.6084 178.397 88.2618 178.493 88.0043 178.687C87.7467 178.876 87.5762 179.115 87.4929 179.403L85.2543 179.221C85.3679 178.69 85.5914 178.232 85.9247 177.846C86.258 177.456 86.688 177.156 87.2145 176.948C87.7448 176.736 88.3584 176.63 89.0554 176.63C89.5402 176.63 90.0043 176.687 90.4474 176.8C90.8944 176.914 91.2902 177.09 91.6349 177.329C91.9834 177.567 92.258 177.874 92.4588 178.249C92.6596 178.62 92.7599 179.065 92.7599 179.584V185.471H90.4645V184.26H90.3963C90.2562 184.533 90.0687 184.774 89.8338 184.982C89.599 185.187 89.3168 185.348 88.9872 185.465C88.6577 185.579 88.277 185.635 87.8452 185.635ZM88.5384 183.965C88.8944 183.965 89.2088 183.895 89.4815 183.755C89.7543 183.611 89.9683 183.418 90.1236 183.175C90.2789 182.933 90.3565 182.658 90.3565 182.351V181.425C90.2808 181.474 90.1766 181.52 90.044 181.562C89.9152 181.599 89.7694 181.635 89.6065 181.67C89.4437 181.7 89.2808 181.728 89.1179 181.755C88.955 181.778 88.8073 181.798 88.6747 181.817C88.3906 181.859 88.1425 181.925 87.9304 182.016C87.7183 182.107 87.5535 182.23 87.4361 182.385C87.3187 182.537 87.2599 182.726 87.2599 182.954C87.2599 183.283 87.3793 183.535 87.6179 183.709C87.8603 183.88 88.1671 183.965 88.5384 183.965Z" fill="#300038"/>
    <g clip-path="url(#clip0_337_2906)">
        <ellipse cx="68.1462" cy="134.164" rx="7.25" ry="7.25" fill="#FDD362"/>
        <path d="M82.8067 132.636C81.5989 124.596 73.3699 118.966 65.4509 120.828C55.5899 123.147 51.0017 133.713 56.1033 142.457C58.0527 145.803 60.1211 149.082 62.1746 152.368C64.2257 155.652 66.3239 158.903 68.4419 162.231C68.6552 161.981 68.804 161.842 68.9106 161.673C72.9507 155.208 77.0181 148.755 81.0161 142.262C82.834 139.308 83.3226 136.079 82.8067 132.636ZM68.4369 141.433C64.9201 141.374 62.1101 138.512 62.1151 134.995C62.1201 131.394 64.9524 128.599 68.5733 128.616C72.105 128.636 74.8976 131.456 74.8952 135.007C74.8952 138.561 71.9488 141.493 68.4369 141.433Z" fill="#300038"/>
    </g>
    <defs>
        <clipPath id="clip0_337_2906">
            <rect width="29" height="41.7602" fill="white" transform="translate(54 120.471)"/>
        </clipPath>
    </defs>
</svg>
    