<svg width="256" height="205" viewBox="0 0 256 205" fill="none"
    xmlns="http://www.w3.org/2000/svg">
    <path d="M124.664 196.348C123.221 195.425 121.986 194.638 120.348 193.592C120.589 194.76 120.706 195.528 120.914 196.277C121.551 198.548 120.439 199.413 118.333 199.522C114.271 199.742 110.196 199.845 106.154 200.239C103.912 200.458 101.578 200.845 99.5442 201.742C97.5944 202.607 96.2426 203.072 94.1693 201.742C93.3244 201.2 91.1797 203.014 89.5484 203.246C84.128 204.007 78.6232 205.285 73.2418 204.943C68.2699 204.627 64.3443 200.794 61.7576 196.773C59.4568 193.192 58.4755 188.759 57.0456 184.648C56.7337 183.745 57.0001 182.648 56.3372 182.119C54.5174 179.428 52.5677 176.814 50.9104 174.033C43.6702 161.856 32.5955 158.41 19.1487 159.804C12.9809 160.443 6.75463 160.572 0.0929004 160.953C0.391865 159.372 0.768822 158.178 0.814316 156.971C0.996294 151.357 0.677832 145.698 1.32775 140.142C1.93868 134.908 -0.531025 130.12 0.105899 124.88C0.957299 117.892 1.06779 110.813 1.51623 103.514C3.28402 103.418 4.79834 103.334 6.31916 103.256C7.96349 103.179 10.5762 99.9523 9.78977 97.8809C8.52892 94.5705 11.3496 93.3703 12.2985 91.2279C12.8704 89.9308 13.1759 88.324 14.1507 87.4593C15.2426 86.4849 17.3614 86.5559 18.2843 85.5105C19.4801 84.1618 19.9416 82.1614 19.9611 80.4513C19.9611 78.5606 19.7336 76.6182 20.1105 74.7985C20.2145 74.3016 22.1188 74.1661 23.4576 73.7918C24.0621 71.7268 25.2579 69.2682 22.7817 66.8483C22.1838 66.2676 22.8727 64.5704 22.4698 63.5831C21.5339 61.2729 20.52 58.9305 19.1292 56.8655C16.055 52.3032 16.276 49.8253 20.091 46.4568C20.091 43.0367 20.091 40.0167 20.091 37.0031C20.091 36.8999 20.195 36.7966 20.182 36.6998C19.5126 31.389 21.5924 27.7624 25.9598 24.3939C30.7043 20.7286 30.9837 14.7466 30.7433 9.18414C32.0041 8.53238 33.3495 8.19683 34.1619 7.35148C38.2174 3.13124 43.0268 2.0794 48.7591 2.69243C51.3978 2.97637 54.7059 4.07983 57.0391 0.737167C57.6761 -0.179164 60.4967 -0.12754 62.115 0.279C65.0138 1.01465 67.711 2.48594 70.5706 3.38936C72.1889 3.89915 74.0087 3.75718 75.6725 4.16372C76.9919 4.48637 78.5517 4.88001 79.4096 5.78988C82.0483 8.58401 84.4205 11.6298 86.8642 14.6047C87.6766 15.5984 88.19 16.9923 89.1974 17.6311C90.3608 18.3732 92.7135 19.2379 93.2009 18.7475C96.4051 15.5016 101.312 16.7923 104.705 13.9142C110.326 9.14542 115.617 12.0428 120.368 15.321C126.464 19.5219 132.898 22.8839 140.762 22.9097C145.624 22.9226 149.64 22.5677 152.662 18.0183C155.106 14.3401 159.331 13.1398 163.627 12.0945C172.855 9.8488 182.013 10.7651 191.196 11.9396C192.958 12.1654 194.914 12.7656 196.285 13.8239C200.055 16.7148 204.5 16.4502 208.588 17.1214C212.969 12.0041 217.135 6.90622 224.791 6.93204C227.631 2.02132 232.115 1.74384 235.566 6.46742C237.783 9.50034 240.649 12.288 242.014 15.6694C244.1 20.8448 245.14 26.4395 246.765 32.3698C250.183 31.9052 253.576 33.4604 256 37.2419C255.337 40.0554 254.57 43.3013 253.81 46.5536C253.784 46.6504 253.764 46.7988 253.81 46.8633C257.891 51.7096 252.627 52.0193 250.385 53.7423C249.117 54.7167 247.752 55.562 246.394 56.4009C245.861 56.7236 245.146 57.1624 244.639 57.0397C242.735 56.5816 240.889 55.8201 239.602 58.1497C238.693 59.7887 237.679 61.3697 236.71 62.9765C236.327 63.6154 236.047 64.351 235.56 64.8931C232.096 68.752 231.03 73.5079 230.159 78.4057C229.958 79.5221 228.84 81.2192 227.962 81.3418C224.277 81.8452 225.278 84.9297 225.512 86.4591C226.162 90.7955 225.408 92.6992 221.216 94.4737C220.072 94.9577 219.136 95.9192 218.032 96.7129C218.077 96.9775 218.233 97.3002 218.155 97.5518C216.576 102.521 218.454 109.354 212.93 112.032C209.875 113.51 207.867 115.911 205.053 117.388C204.637 117.608 204.169 118.118 204.117 118.55C203.792 121.002 203.616 123.467 203.304 125.919C203.22 126.597 202.992 127.345 202.589 127.881C201.049 129.927 199.21 131.733 199.561 134.715C199.652 135.483 198.475 136.438 197.806 137.238C196.578 138.696 195.291 140.103 194.056 141.503C195.076 142.923 195.869 144.02 196.695 145.169C194.875 146.408 193.211 147.479 191.612 148.64C190.325 149.576 188.947 150.538 189.929 152.499C190.013 152.667 189.955 152.925 189.929 153.138C189.61 155.487 184.801 159.385 182.364 159.623C179.738 159.882 178.835 158.701 178.861 156.352C178.887 154.3 178.627 152.448 176.008 152.131C175.715 152.099 175.41 151.854 175.189 151.628C173.161 149.557 171.146 147.472 169.092 145.349C167.273 147.143 168.507 150.667 164.887 150.312C162.619 150.086 159.909 151.009 159.396 147.995C156.919 149.344 154.463 150.667 152.025 152.028C151.791 152.157 151.525 152.486 151.512 152.738C151.265 157.507 146.625 158.565 144.064 161.353C141.204 164.463 137.968 167.232 134.88 170.142C134.549 170.452 134.179 170.787 133.763 170.942C131.351 171.845 131.917 173.762 132.073 175.575C132.164 176.601 132.417 177.698 132.164 178.647C131.338 181.764 130.558 184.926 129.298 187.875C128.069 190.766 126.275 193.424 124.631 196.354L124.664 196.348Z" fill="#FFD363"/>
    <g clip-path="url(#clip0_337_2906)">
        <ellipse cx="113.146" cy="80.6935" rx="7.25" ry="7.25" fill="#FDD362"/>
        <path d="M127.807 79.1655C126.599 71.125 118.37 65.4951 110.451 67.3577C100.59 69.6766 96.0017 80.2419 101.103 88.9868C103.053 92.3325 105.121 95.6112 107.175 98.8973C109.226 102.181 111.324 105.432 113.442 108.761C113.655 108.51 113.804 108.371 113.911 108.203C117.951 101.737 122.018 95.2838 126.016 88.7909C127.834 85.837 128.323 82.6079 127.807 79.1655ZM113.437 87.9625C109.92 87.903 107.11 85.0409 107.115 81.5241C107.12 77.923 109.952 75.1279 113.573 75.1453C117.105 75.1651 119.898 77.985 119.895 81.5365C119.895 85.0905 116.949 88.022 113.437 87.9625Z" fill="#300038"/>
    </g>
    <path d="M95.7443 117.364V129H93.6193L88.5568 121.676H88.4716V129H86.0114V117.364H88.1705L93.1932 124.682H93.2955V117.364H95.7443ZM97.7315 129V120.273H100.152V129H97.7315ZM98.9474 119.148C98.5876 119.148 98.2789 119.028 98.0213 118.79C97.7675 118.547 97.6406 118.258 97.6406 117.92C97.6406 117.587 97.7675 117.301 98.0213 117.062C98.2789 116.82 98.5876 116.699 98.9474 116.699C99.3073 116.699 99.6141 116.82 99.8679 117.062C100.125 117.301 100.254 117.587 100.254 117.92C100.254 118.258 100.125 118.547 99.8679 118.79C99.6141 119.028 99.3073 119.148 98.9474 119.148ZM106.023 132.455C105.239 132.455 104.566 132.347 104.006 132.131C103.449 131.919 103.006 131.629 102.676 131.261C102.347 130.894 102.133 130.481 102.034 130.023L104.273 129.722C104.341 129.896 104.449 130.059 104.597 130.21C104.744 130.362 104.939 130.483 105.182 130.574C105.428 130.669 105.727 130.716 106.08 130.716C106.606 130.716 107.04 130.587 107.381 130.33C107.725 130.076 107.898 129.65 107.898 129.051V127.455H107.795C107.689 127.697 107.53 127.926 107.318 128.142C107.106 128.358 106.833 128.534 106.5 128.67C106.167 128.807 105.769 128.875 105.307 128.875C104.652 128.875 104.055 128.723 103.517 128.42C102.983 128.114 102.557 127.646 102.239 127.017C101.924 126.384 101.767 125.585 101.767 124.619C101.767 123.631 101.928 122.805 102.25 122.142C102.572 121.479 103 120.983 103.534 120.653C104.072 120.324 104.661 120.159 105.301 120.159C105.79 120.159 106.199 120.242 106.528 120.409C106.858 120.572 107.123 120.777 107.324 121.023C107.528 121.265 107.686 121.504 107.795 121.739H107.886V120.273H110.29V129.085C110.29 129.828 110.108 130.449 109.744 130.949C109.381 131.449 108.877 131.824 108.233 132.074C107.593 132.328 106.856 132.455 106.023 132.455ZM106.074 127.057C106.464 127.057 106.794 126.96 107.062 126.767C107.335 126.57 107.544 126.29 107.688 125.926C107.835 125.559 107.909 125.119 107.909 124.608C107.909 124.097 107.837 123.653 107.693 123.278C107.549 122.9 107.341 122.606 107.068 122.398C106.795 122.189 106.464 122.085 106.074 122.085C105.676 122.085 105.341 122.193 105.068 122.409C104.795 122.621 104.589 122.917 104.449 123.295C104.309 123.674 104.239 124.112 104.239 124.608C104.239 125.112 104.309 125.547 104.449 125.915C104.593 126.278 104.799 126.561 105.068 126.761C105.341 126.958 105.676 127.057 106.074 127.057ZM116.193 129.17C115.295 129.17 114.523 128.989 113.875 128.625C113.231 128.258 112.735 127.739 112.386 127.068C112.038 126.394 111.864 125.597 111.864 124.676C111.864 123.778 112.038 122.991 112.386 122.312C112.735 121.634 113.225 121.106 113.858 120.727C114.494 120.348 115.241 120.159 116.097 120.159C116.672 120.159 117.208 120.252 117.705 120.438C118.205 120.619 118.64 120.894 119.011 121.261C119.386 121.629 119.678 122.091 119.886 122.648C120.095 123.201 120.199 123.848 120.199 124.591V125.256H112.83V123.756H117.92C117.92 123.407 117.845 123.098 117.693 122.83C117.542 122.561 117.331 122.35 117.062 122.199C116.797 122.044 116.489 121.966 116.136 121.966C115.769 121.966 115.443 122.051 115.159 122.222C114.879 122.388 114.659 122.614 114.5 122.898C114.341 123.178 114.259 123.491 114.256 123.835V125.261C114.256 125.693 114.335 126.066 114.494 126.381C114.657 126.695 114.886 126.938 115.182 127.108C115.477 127.278 115.828 127.364 116.233 127.364C116.502 127.364 116.748 127.326 116.972 127.25C117.195 127.174 117.386 127.061 117.545 126.909C117.705 126.758 117.826 126.572 117.909 126.352L120.148 126.5C120.034 127.038 119.801 127.508 119.449 127.909C119.1 128.307 118.65 128.617 118.097 128.841C117.547 129.061 116.913 129.17 116.193 129.17ZM121.778 129V120.273H124.125V121.795H124.216C124.375 121.254 124.642 120.845 125.017 120.568C125.392 120.288 125.824 120.148 126.312 120.148C126.434 120.148 126.564 120.155 126.705 120.17C126.845 120.186 126.968 120.206 127.074 120.233V122.381C126.96 122.347 126.803 122.316 126.602 122.29C126.402 122.263 126.218 122.25 126.051 122.25C125.695 122.25 125.377 122.328 125.097 122.483C124.82 122.634 124.6 122.847 124.438 123.119C124.278 123.392 124.199 123.706 124.199 124.062V129H121.778ZM128.325 129V120.273H130.746V129H128.325ZM129.541 119.148C129.181 119.148 128.873 119.028 128.615 118.79C128.361 118.547 128.234 118.258 128.234 117.92C128.234 117.587 128.361 117.301 128.615 117.062C128.873 116.82 129.181 116.699 129.541 116.699C129.901 116.699 130.208 116.82 130.462 117.062C130.719 117.301 130.848 117.587 130.848 117.92C130.848 118.258 130.719 118.547 130.462 118.79C130.208 119.028 129.901 119.148 129.541 119.148ZM135.173 129.165C134.616 129.165 134.12 129.068 133.685 128.875C133.249 128.678 132.904 128.388 132.651 128.006C132.401 127.619 132.276 127.138 132.276 126.562C132.276 126.078 132.365 125.67 132.543 125.341C132.721 125.011 132.963 124.746 133.27 124.545C133.577 124.345 133.925 124.193 134.315 124.091C134.709 123.989 135.122 123.917 135.554 123.875C136.062 123.822 136.471 123.773 136.781 123.727C137.092 123.678 137.317 123.606 137.457 123.511C137.598 123.417 137.668 123.277 137.668 123.091V123.057C137.668 122.697 137.554 122.419 137.327 122.222C137.103 122.025 136.785 121.926 136.372 121.926C135.937 121.926 135.59 122.023 135.332 122.216C135.075 122.405 134.904 122.644 134.821 122.932L132.582 122.75C132.696 122.22 132.92 121.761 133.253 121.375C133.586 120.985 134.016 120.686 134.543 120.477C135.073 120.265 135.687 120.159 136.384 120.159C136.868 120.159 137.332 120.216 137.776 120.33C138.223 120.443 138.618 120.619 138.963 120.858C139.312 121.097 139.586 121.403 139.787 121.778C139.988 122.15 140.088 122.595 140.088 123.114V129H137.793V127.79H137.724C137.584 128.062 137.397 128.303 137.162 128.511C136.927 128.716 136.645 128.877 136.315 128.994C135.986 129.108 135.605 129.165 135.173 129.165ZM135.866 127.494C136.223 127.494 136.537 127.424 136.81 127.284C137.082 127.14 137.296 126.947 137.452 126.705C137.607 126.462 137.685 126.187 137.685 125.881V124.955C137.609 125.004 137.505 125.049 137.372 125.091C137.243 125.129 137.098 125.165 136.935 125.199C136.772 125.229 136.609 125.258 136.446 125.284C136.283 125.307 136.135 125.328 136.003 125.347C135.719 125.388 135.471 125.455 135.259 125.545C135.046 125.636 134.882 125.759 134.764 125.915C134.647 126.066 134.588 126.256 134.588 126.483C134.588 126.812 134.707 127.064 134.946 127.239C135.188 127.409 135.495 127.494 135.866 127.494Z" fill="#300038"/>
    <defs>
        <clipPath id="clip0_337_2906">
            <rect width="29" height="41.7602" fill="white" transform="translate(99 67)"/>
        </clipPath>
    </defs>
</svg>
    