<svg width="201" height="243" viewBox="0 0 201 243" fill="none"
    xmlns="http://www.w3.org/2000/svg">
    <path opacity="0.7" d="M201 17.2668H198.902L198.482 16.4245L198.062 16.8458L197.643 16.4245H197.223L196.384 16.8458H195.964L195.545 16.4245C194.286 16.8456 193.447 16.8458 192.188 16.8458L191.768 17.2668H188.411L187.572 17.6881L187.152 17.2668L186.733 17.6881L185.894 17.2668H185.474L184.635 17.6881H184.215L183.796 17.2668H183.375C182.536 16.4245 181.697 15.5822 181.277 14.3187L180.438 13.8977V13.4767C179.599 13.0555 178.76 12.6343 177.921 12.6343L177.501 12.213L177.081 10.5286H176.662L176.242 10.1073H175.823L174.983 9.26521L174.144 9.68626H173.724L173.305 10.5286C170.787 10.9497 167.85 11.7919 165.332 13.0554C163.653 13.8976 161.975 14.7401 160.296 15.5824H159.877C156.939 16.8458 154.422 18.5303 151.484 20.2148L149.386 25.2686L144.351 29.9011L143.511 32.4281H142.672L142.253 32.0068V31.1645H137.637V30.3224H137.217L136.797 30.7434H134.28L131.343 29.0588L130.922 29.4801L130.503 29.0588L130.083 29.4801H129.244L128.824 29.0588L128.405 29.4801C126.307 29.0589 124.208 28.6377 122.53 27.7954L121.691 26.111V26.953H120.012L119.593 26.532H117.914V26.111L117.495 25.6897H117.075V26.111L114.977 26.953C112.04 26.5319 109.522 26.532 106.585 26.532C106.165 26.1109 105.745 25.6897 104.906 25.6897C97.3528 19.3725 88.5406 13.8976 80.1481 8.84392V8.00158H79.309L78.4695 7.1595H77.6304L77.2109 6.7382L74.6933 5.89586H69.238L68.8184 5.47482L58.7474 5.89586L58.3278 5.47482H57.4883L57.0688 6.31716L57.4883 6.7382L57.0688 7.1595V7.58054L56.6492 8.00158H57.0688L57.4883 8.84392V11.792L58.3278 12.6343V13.4767L57.4883 14.3187L57.9083 15.1611L57.0688 15.5824V16.4245L56.6492 16.8458L57.0688 17.2668V17.6881L57.4883 18.1091V18.5302L57.9083 18.9515V19.7938L58.3278 20.2148V21.0572L58.7474 21.4782V21.8995L58.3278 22.3206V22.7416H57.4883V24.4263L57.0688 25.2686L57.4883 26.111L57.0688 26.953L57.4883 27.3743V28.2167L57.9083 28.6377V29.4801L58.3278 29.9011V30.7434L57.4883 31.1645V31.5858C57.9079 32.4281 58.7472 32.8491 59.5864 33.2702C60.006 33.6913 60.0064 34.5336 60.0064 35.3759L60.426 34.9549L60.8455 36.6396L61.6845 37.0606V39.5874L62.1046 40.0087H62.5241V40.4297C63.7829 41.272 64.622 41.6933 65.4612 42.9567H69.6575V43.7988H70.077C69.6574 44.2199 69.6575 44.22 69.6575 44.6411L70.077 45.0624L69.6575 45.4835L70.077 45.9045V46.7469H69.6575C69.6575 47.5891 69.6574 48.4316 70.077 49.2739L69.6575 50.9583L70.077 53.4853H69.6575L69.238 53.9064V54.3274C68.8183 54.7485 68.3986 55.1697 67.5594 55.1697V54.7487H67.1398L66.3008 55.1697L65.4612 54.3274C65.4612 53.4851 65.8808 52.6429 65.8808 51.8006L65.4612 51.3796V50.9583C65.0416 50.9583 64.2023 50.5371 63.7826 50.116V49.6949L63.3631 49.2739V47.1682L62.9436 46.7469L62.5241 45.0624L62.1046 44.6411V43.7988H61.6845C60.8453 42.9565 59.5866 42.1143 58.7474 41.272V40.4297H58.3278V40.851H57.9083L57.0688 40.4297H56.2297L55.8102 40.0087V39.5874H56.2297V37.4816L56.6492 37.0606L56.2297 36.6396V34.5338H55.8102L55.3902 34.1125H54.5511L54.1316 33.6915H53.7121V33.2702L52.0335 31.5858H51.614V29.9011L51.1939 29.0588V30.7434L51.614 30.3224V28.2167L51.1939 27.7954V29.9011H50.7744V29.4801H50.3549V29.0588L50.7744 28.6377L50.3549 28.2167V27.7954H49.9354C49.5157 27.3742 49.0958 26.9533 49.0958 26.111V23.1629L49.5158 22.3206V20.2148L49.9354 19.7938L49.5158 19.3725V17.6881L49.9354 17.2668V16.4245C50.355 16.0033 50.7744 15.5823 50.7744 14.74V13.8977L51.1939 13.4767V12.6343L50.7744 11.792V4.63248L51.1939 4.21144C51.1939 2.94801 51.1943 2.10567 51.614 1.26338L52.0335 0.842339L51.614 0.421041V0L10.9101 0.421041L0.839043 10.1073V10.5286C1.25867 10.9497 1.67839 11.3709 2.51764 11.3709V13.0554C2.51764 13.4765 2.93757 14.3189 3.3572 14.74V15.1611H2.93716V16.8458C3.35679 16.8458 4.19614 17.2669 4.61576 17.6881C4.61576 18.1092 4.19634 18.9514 3.77672 19.3725V19.7938L4.19624 20.2148L4.61576 19.7938H5.45532L5.87484 19.3725L6.29436 19.7938H6.71388V20.6359H5.03528L4.61576 21.0572L5.45532 21.4782L5.03528 21.8995L5.45532 22.3206L5.87484 21.8995H7.55344V22.3206L7.97296 22.7416V23.5839H8.39248C8.8121 23.1628 9.23183 22.7416 10.0711 22.7416C10.4907 23.1628 10.9101 23.584 10.9101 24.4263H11.7497L12.1692 24.8473V29.0588L11.7497 29.4801H10.9101V30.3224L11.3296 30.7434L10.9101 31.5858V32.0068L11.7497 32.8492V33.6915L12.1692 34.5338V37.0606L12.5887 37.9029H14.2673C14.6869 38.3241 15.1064 38.7451 15.1064 39.5874V41.272L15.5259 41.6931V43.7988L16.3654 44.2201C16.3654 44.6412 16.7849 45.4834 17.2045 45.9045L18.044 45.0624V45.4835L18.4636 45.9045H19.3026V46.7469L19.7221 47.1682V50.116L21.4007 52.643H21.8202L22.2403 52.2217L22.6598 52.643V54.3274H23.0793V54.7487H23.4988V56.8544H23.0793L22.2403 57.2754V58.9601L23.9184 61.9082V62.7503L25.597 65.6983V66.1196L25.1774 66.5407C25.1774 67.383 25.1774 67.8041 25.1774 68.6464L26.856 70.3311L26.0165 71.1731V76.6482L25.1774 78.7539V79.175L24.7579 79.596H23.9184L23.4988 80.0173C23.4988 80.8596 23.0793 82.1231 23.0793 82.9654H22.6598L22.2403 83.3864H21.8202L21.4007 83.8075L21.8202 84.2288V85.0711L22.2403 85.4921V87.5979L21.8202 88.0189H19.3026L18.8831 88.4402H18.4636L18.044 88.8612V89.2825H16.3654V90.967L15.9459 91.3882L14.2673 90.5459L13.4278 92.6516C13.4278 93.9151 13.4279 95.1785 13.0082 96.8631C12.169 97.2842 11.7493 98.1265 11.3296 98.9688C10.4904 99.3899 9.65125 99.8109 8.812 100.653V102.338L7.97296 103.18V103.601H7.55344L5.45532 104.444H5.03528C5.03528 105.707 4.61586 106.971 4.19624 108.234L3.77672 108.655V111.182C2.93747 112.024 2.09832 113.288 1.25908 114.13L0.839043 114.972V117.078L0 117.499C0.419624 118.341 0.83935 119.184 1.6786 120.026L1.25908 120.447L2.09812 121.289V121.71H2.93716V121.289H3.77672L4.19624 121.71V121.289H4.61576V121.71L4.19624 122.132V122.553H4.61576L4.19624 122.974H3.3572V123.395C3.77682 123.816 4.19604 124.237 5.03528 124.237V124.658L5.45532 124.237H6.29436L5.87484 124.658H6.29436V125.08H7.1334L7.55344 125.501V125.922L7.1334 126.343V126.764H7.55344V127.607H7.97296L8.39248 128.028L7.97296 128.449V128.87H8.39248L8.812 128.449V127.607H9.23152L9.65156 127.185H10.0711V126.764H10.4906V127.607H9.65156V126.764H10.0711L10.4906 126.343L10.9101 126.764V126.343H13.0082V126.764H13.4278C13.8474 126.343 14.2671 125.922 15.1064 125.922V125.501H15.5259L15.9459 125.922L16.3654 125.501L18.044 125.08V124.658H19.7221V126.343H20.1422L20.5617 127.185L21.4007 127.607V128.449L21.8202 128.87H22.2403V129.712L21.8202 130.133L21.4007 129.712H20.9812V129.291H20.1422V130.133H20.5617L20.1422 130.555H15.5259V130.133C14.267 130.133 13.0084 130.555 12.1692 130.555V132.239L13.8478 133.924V134.345C13.4282 135.187 12.5889 135.608 11.7497 136.029H11.3296V135.187H11.7497L11.3296 134.766V134.345L10.4906 133.924V134.766H10.0711V135.187L9.65156 134.766V134.345H9.23152V134.766H8.812L7.1334 133.081L6.71388 133.503V133.081H6.29436L5.45532 135.187V136.029H3.77672V136.45H2.93716V136.872L3.3572 137.293V137.714L2.93716 138.135H2.51764V140.662H2.93716V141.504L3.3572 141.926L2.93716 142.347H3.77672L4.61576 143.189H5.03528L5.45532 143.61V144.031L4.61576 144.873V145.295L4.19624 146.137V146.558L3.3572 146.137H2.93716V146.979H3.77672V147.4H3.3572C34.829 165.088 66.3008 182.776 97.7726 200.464L98.6116 207.624H98.1921V208.466H97.7726L97.3526 208.887H96.933L96.094 209.73V210.572H96.5135V212.256H98.1921L98.6116 212.678H99.4507L99.8707 213.099V215.204L100.29 215.626V216.047C113.299 224.891 125.468 234.156 138.056 243V242.579H138.476V241.736H139.315L140.155 240.894L140.574 241.315V241.736H140.155V242.158H143.092C142.252 240.894 143.092 240.473 143.931 239.21C142.672 241.315 144.77 240.473 144.351 238.789C144.77 237.525 153.582 225.312 146.868 227.418C146.868 224.891 151.064 229.523 151.904 224.47C154.841 220.258 155.261 214.362 157.359 209.309C159.037 208.045 161.975 207.203 161.975 204.676C161.136 203.412 163.234 198.78 164.912 198.78C162.814 198.359 161.555 197.938 163.234 194.99C160.296 186.145 185.474 187.409 178.34 181.092C177.501 181.092 179.179 178.986 178.76 180.671C180.019 178.565 179.599 179.407 179.599 181.513C180.858 179.828 181.697 181.092 182.956 181.092C183.795 179.828 183.795 178.144 182.536 178.565C181.278 173.932 182.956 173.511 179.179 170.984C181.697 170.563 181.278 173.511 183.796 174.353C184.215 173.511 183.376 171.405 184.215 169.721C185.894 168.879 185.893 168.457 184.635 170.142C183.376 171.405 184.215 175.617 185.474 172.669C195.545 164.667 186.313 178.144 198.902 163.825C195.125 156.665 189.67 148.664 183.796 142.347C183.796 109.918 183.796 77.4905 183.796 45.0624C187.153 38.3241 194.706 28.2165 201 17.2668ZM176.242 181.934C176.242 181.513 175.403 181.092 175.823 180.249C176.242 181.092 177.081 181.513 176.242 181.934Z" fill="#FFC01F"/>
    <path d="M102.011 154V142.364H104.472V147.494H104.625L108.812 142.364H111.761L107.443 147.574L111.812 154H108.869L105.682 149.216L104.472 150.693V154H102.011ZM116.334 154.17C115.436 154.17 114.663 153.989 114.016 153.625C113.372 153.258 112.875 152.739 112.527 152.068C112.179 151.394 112.004 150.597 112.004 149.676C112.004 148.778 112.179 147.991 112.527 147.312C112.875 146.634 113.366 146.106 113.999 145.727C114.635 145.348 115.381 145.159 116.237 145.159C116.813 145.159 117.349 145.252 117.845 145.438C118.345 145.619 118.781 145.894 119.152 146.261C119.527 146.629 119.819 147.091 120.027 147.648C120.235 148.201 120.339 148.848 120.339 149.591V150.256H112.97V148.756H118.061C118.061 148.407 117.985 148.098 117.834 147.83C117.682 147.561 117.472 147.35 117.203 147.199C116.938 147.044 116.629 146.966 116.277 146.966C115.91 146.966 115.584 147.051 115.3 147.222C115.019 147.388 114.8 147.614 114.641 147.898C114.482 148.178 114.4 148.491 114.396 148.835V150.261C114.396 150.693 114.476 151.066 114.635 151.381C114.798 151.695 115.027 151.938 115.322 152.108C115.618 152.278 115.968 152.364 116.374 152.364C116.643 152.364 116.889 152.326 117.112 152.25C117.336 152.174 117.527 152.061 117.686 151.909C117.845 151.758 117.966 151.572 118.05 151.352L120.288 151.5C120.175 152.038 119.942 152.508 119.589 152.909C119.241 153.307 118.79 153.617 118.237 153.841C117.688 154.061 117.054 154.17 116.334 154.17ZM124.339 148.955V154H121.919V145.273H124.226V146.812H124.328C124.521 146.305 124.845 145.903 125.3 145.608C125.754 145.309 126.305 145.159 126.953 145.159C127.559 145.159 128.088 145.292 128.538 145.557C128.989 145.822 129.339 146.201 129.589 146.693C129.839 147.182 129.964 147.765 129.964 148.443V154H127.544V148.875C127.548 148.341 127.411 147.924 127.135 147.625C126.858 147.322 126.478 147.17 125.993 147.17C125.667 147.17 125.379 147.241 125.129 147.381C124.883 147.521 124.69 147.725 124.55 147.994C124.413 148.259 124.343 148.58 124.339 148.955ZM133.054 157.273C132.747 157.273 132.459 157.248 132.19 157.199C131.925 157.153 131.705 157.095 131.531 157.023L132.077 155.216C132.361 155.303 132.616 155.35 132.844 155.358C133.075 155.366 133.274 155.313 133.44 155.199C133.611 155.085 133.749 154.892 133.855 154.619L133.997 154.25L130.866 145.273H133.412L135.219 151.682H135.31L137.134 145.273H139.696L136.304 154.943C136.141 155.413 135.92 155.822 135.639 156.17C135.363 156.523 135.012 156.794 134.588 156.983C134.164 157.176 133.652 157.273 133.054 157.273ZM143.189 154.165C142.632 154.165 142.136 154.068 141.7 153.875C141.265 153.678 140.92 153.388 140.666 153.006C140.416 152.619 140.291 152.138 140.291 151.562C140.291 151.078 140.38 150.67 140.558 150.341C140.736 150.011 140.979 149.746 141.286 149.545C141.592 149.345 141.941 149.193 142.331 149.091C142.725 148.989 143.138 148.917 143.57 148.875C144.077 148.822 144.486 148.773 144.797 148.727C145.107 148.678 145.333 148.606 145.473 148.511C145.613 148.417 145.683 148.277 145.683 148.091V148.057C145.683 147.697 145.57 147.419 145.342 147.222C145.119 147.025 144.801 146.926 144.388 146.926C143.952 146.926 143.606 147.023 143.348 147.216C143.09 147.405 142.92 147.644 142.837 147.932L140.598 147.75C140.712 147.22 140.935 146.761 141.268 146.375C141.602 145.985 142.032 145.686 142.558 145.477C143.089 145.265 143.702 145.159 144.399 145.159C144.884 145.159 145.348 145.216 145.791 145.33C146.238 145.443 146.634 145.619 146.979 145.858C147.327 146.097 147.602 146.403 147.803 146.778C148.003 147.15 148.104 147.595 148.104 148.114V154H145.808V152.79H145.74C145.6 153.062 145.412 153.303 145.178 153.511C144.943 153.716 144.661 153.877 144.331 153.994C144.001 154.108 143.621 154.165 143.189 154.165ZM143.882 152.494C144.238 152.494 144.553 152.424 144.825 152.284C145.098 152.14 145.312 151.947 145.467 151.705C145.623 151.462 145.7 151.187 145.7 150.881V149.955C145.625 150.004 145.52 150.049 145.388 150.091C145.259 150.129 145.113 150.165 144.95 150.199C144.787 150.229 144.625 150.258 144.462 150.284C144.299 150.307 144.151 150.328 144.018 150.347C143.734 150.388 143.486 150.455 143.274 150.545C143.062 150.636 142.897 150.759 142.78 150.915C142.662 151.066 142.604 151.256 142.604 151.483C142.604 151.812 142.723 152.064 142.962 152.239C143.204 152.409 143.511 152.494 143.882 152.494Z" fill="#300038"/>
    <g clip-path="url(#clip0_337_2906)">
        <ellipse cx="125.146" cy="102.694" rx="7.25" ry="7.25" fill="#FDD362"/>
        <path d="M139.807 101.166C138.599 93.125 130.37 87.4951 122.451 89.3577C112.59 91.6766 108.002 102.242 113.103 110.987C115.053 114.332 117.121 117.611 119.175 120.897C121.226 124.181 123.324 127.432 125.442 130.761C125.655 130.51 125.804 130.371 125.911 130.203C129.951 123.737 134.018 117.284 138.016 110.791C139.834 107.837 140.323 104.608 139.807 101.166ZM125.437 109.963C121.92 109.903 119.11 107.041 119.115 103.524C119.12 99.923 121.952 97.1279 125.573 97.1453C129.105 97.1651 131.898 99.985 131.895 103.537C131.895 107.091 128.949 110.022 125.437 109.963Z" fill="#300038"/>
    </g>
    <defs>
        <clipPath id="clip0_337_2906">
            <rect width="29" height="41.7602" fill="white" transform="translate(111 89)"/>
        </clipPath>
    </defs>
</svg>
    