<svg width="278" height="233" viewBox="0 0 278 233" fill="none"
    xmlns="http://www.w3.org/2000/svg">
    <path opacity="0.7" d="M255.747 84.5807C255.204 84.3096 254.39 84.0383 253.847 84.3094L253.576 84.5807L252.49 84.3094L251.948 83.7673L251.405 84.0383L251.133 83.7673H250.862C251.133 84.5806 250.862 85.394 250.591 85.9362H250.862C250.319 87.8338 250.048 90.0023 250.319 92.1711L250.591 92.4421V92.9845C245.706 93.5267 241.092 92.9843 236.75 91.0866L235.393 89.1891H235.122L234.851 88.6471L233.494 88.1047L233.222 86.7492L233.494 86.4782V85.1228H233.222C232.68 84.8517 232.408 84.3095 232.137 83.7673V83.2253L231.594 83.7673H231.323L231.051 84.0383C230.508 81.5985 230.508 78.8875 231.051 76.1766C232.951 74.0079 234.579 71.8392 235.936 69.1283C235.936 68.5861 235.936 68.044 236.207 67.5018C237.293 66.6886 238.379 65.6042 239.464 64.5199L241.092 64.2489L248.962 69.1283L250.591 68.0439L249.505 65.6043L250.862 62.8934H251.133L251.405 62.622L251.133 62.08V60.4535H250.862V58.5557L251.133 58.2846C251.676 53.9472 251.405 49.3386 250.862 45.0011C251.133 43.9167 251.405 42.5615 251.405 41.4771C249.776 38.4951 248.962 35.2421 248.962 31.7179L247.334 30.3624L245.706 27.1091V26.0247C245.163 24.9403 244.349 24.1273 243.535 23.5851L243.263 22.5007C243.535 21.1453 243.535 19.7898 243.806 18.4343L239.193 4.60875L238.65 4.06637V3.79535H237.293L237.022 3.52432V3.2533H236.479L235.936 3.52432C235.393 3.25323 234.579 2.9822 234.037 3.2533L233.765 2.98194H233.494L233.222 2.71091H232.951L232.68 2.98194H232.408L232.137 2.71091H231.051L230.78 2.98194H228.88V3.2533C227.795 3.2533 226.981 3.25303 225.895 2.98194V3.2533C224.81 3.52439 223.724 3.79541 222.638 3.52432C222.367 3.25323 222.096 2.98194 221.553 2.98194V2.71091H220.468L220.196 2.98194H219.925C219.11 2.71085 218.568 2.43976 218.025 1.62648H217.754L216.397 1.08443H215.311V0.813407H214.768C214.497 0.542315 214.226 0.271025 213.683 0.271025H211.783L211.512 0L210.969 0.542381L210.698 0.271025H210.426L209.884 0.813407H209.612L209.069 0.542381H208.527C208.255 0.542381 207.713 0.81334 207.441 1.08443H205.542L205.27 0.813407H204.999L204.727 1.08443H204.456V1.35546H203.37L202.828 1.62648L202.556 1.35546L201.471 1.62648V1.89784C201.2 2.44002 200.928 2.9822 200.385 3.2533V4.60875L199.842 5.96421H199.571L199.3 5.69285H198.757L198.486 5.96421V6.23523L196.857 6.50626L196.315 7.04831H196.043L195.772 7.31967H194.144L193.601 7.86172L193.33 7.59069H190.616C189.802 7.86178 189.259 8.4039 188.716 9.21717H188.173V9.4882L187.63 10.0306V10.5726L186.273 11.9281H185.731V13.2835C185.459 13.8257 184.917 14.0969 184.374 14.368H183.831V15.4524L184.103 15.9945H183.831C183.289 16.5366 182.745 16.8078 182.203 17.0789H181.931V17.6209H181.66L181.389 17.3499V18.4343L181.117 18.7054V18.9764L180.846 19.2474H180.575L180.303 18.9764V18.7054L179.761 19.2474H178.675L178.404 19.5188V19.7898H178.132V21.1453C177.861 21.4164 177.589 21.6875 177.589 22.2297H175.961V22.5007L175.69 22.7717V22.2297H175.418L175.147 22.5007V22.7717H174.876V22.5007H174.333V22.7717C173.79 23.3139 173.247 23.585 172.704 24.1272L172.433 23.8562L172.162 24.1272V24.3982H172.433V24.6693H172.162L171.891 24.3982L171.619 24.6693V24.3982L171.348 24.6693V24.9406L171.619 25.2116H171.076L170.534 25.7537H170.262V26.0247L170.534 26.2961V26.5671L169.991 26.8381V26.5671H169.719V26.2961H169.448V26.8381L169.177 27.1091H168.905V28.4646L168.634 28.7356V30.3624L168.362 30.9045C168.362 31.9888 168.091 33.0731 167.82 34.1574L167.548 34.4288C167.548 35.2421 167.548 36.0554 167.277 37.1397L166.734 37.6818C166.191 37.9529 165.649 37.9528 165.106 37.9528L164.02 39.0372V39.3083L163.749 39.5793H163.478C162.664 40.1215 161.849 40.6638 161.307 41.4771C161.035 41.7482 161.035 42.2904 161.035 42.8326L160.764 43.3746L160.221 43.6456L159.135 43.3746C157.236 44.1879 155.065 44.7303 152.894 45.2725V45.5435H152.623L152.351 45.2725L151.808 45.5435H151.266L150.994 46.6279L151.266 46.8989V48.7965L150.723 49.8809C150.451 51.5074 149.909 53.1341 149.366 54.7607L148.823 55.0317C148.552 55.845 148.552 56.3869 148.552 57.2002C148.009 58.8268 147.466 60.1824 146.652 61.809C145.295 62.6222 143.938 63.1642 142.853 63.9775H139.054L138.511 63.7065H137.154L136.882 63.9775L135.526 64.2489L135.254 64.7909H133.897L133.626 65.0619H133.354L132.812 64.7909H132.54L131.997 65.0619H130.912L130.369 64.5199H130.098C129.284 63.9777 128.47 63.7065 127.384 63.4355V63.7065H126.027L125.485 63.1644H124.942V62.8934H124.67V62.622C124.399 62.0799 123.856 61.809 123.313 61.5379H123.042L122.771 61.2666L122.499 61.5379H121.414L121.142 61.809H120.871L120.328 62.08V61.809H120.6V61.2666C120.328 61.2666 120.057 61.2666 120.057 61.2666L119.514 61.5379H118.971L118.7 60.4535H118.157C117.886 59.9113 117.614 59.3691 117.072 59.0981H116.8V58.827L116.258 58.2846H115.172V57.7426H114.901L114.629 57.4716H114.358V57.2002L114.086 57.4716C113.815 57.2005 113.544 56.9293 113.544 56.3871H112.458V56.1161C112.458 55.845 112.187 55.3028 111.916 55.0317H111.644V55.3027H110.287L110.016 55.0317H107.031L106.488 55.3027V55.5737H105.945L105.674 55.8448H105.402V55.5737L105.131 55.3027V55.5737H104.859L104.588 55.8448H104.317L104.046 56.1161V56.3871C103.774 56.3871 103.231 56.6581 102.96 56.9292V57.2002C102.96 57.4713 102.689 58.0136 102.417 58.2846H101.874V58.5557L102.146 58.827L101.874 59.0981L101.603 60.1825L101.874 60.4535V60.7245L101.603 60.9956H101.332L101.603 61.2666V61.809L100.517 62.351V63.4355H100.246V63.7065L100.789 64.2489V64.5199H100.517L100.246 64.7909V65.0619H99.7035V65.333L100.246 65.6043L99.9748 65.8753V67.2308H99.7035L99.1605 67.5018V68.0439L98.8892 68.3152V68.5863H98.6179V68.8573C98.3465 69.1284 98.0751 69.3993 97.5323 69.3993V69.9417L96.9897 70.4838L96.4467 70.2127L95.0898 70.7548C94.8185 71.297 94.547 71.8394 94.0042 72.3816H93.7329L93.1903 72.6526H92.1047V72.9237L91.0191 74.0081V75.0925H90.7478V75.6346C89.9337 76.4478 89.3911 76.9902 88.8483 77.8034V78.0745H87.7627L87.4914 78.3455H84.506L83.9633 78.6165V78.8875L84.2346 79.4299V79.972C83.9633 80.243 83.692 80.5142 83.692 81.0564H83.4207L82.8777 81.5984H81.5208L80.9782 81.3274H80.7069L80.4352 81.5984H80.1639L79.6213 81.3274H79.35L79.0784 81.0564H77.7215L77.4501 81.3274V81.0564L76.9075 81.3274C75.822 81.3274 75.0079 81.3276 73.9224 81.8698L73.3794 81.5984H72.2939L71.7512 81.3274H71.4799L70.937 80.7854C70.1228 80.7854 69.5802 80.7853 69.0374 81.0564L68.7661 81.3274H68.4948L68.2232 81.5984H67.9518L67.4092 81.8698H67.1379V82.1408L66.8663 81.8698V81.5984L66.3236 81.0564V80.7854L66.0523 80.243V79.1589L65.781 78.8875V78.6165L66.0523 78.3455C66.0523 77.8033 66.0522 77.5322 66.3236 76.99L65.781 76.448V74.5501L66.0523 74.2791H66.3236L66.8663 73.7371H67.1379L67.4092 72.6526C67.952 72.1104 68.2234 71.5683 68.7661 71.0261L69.0374 69.6707L70.123 68.5863H69.8517L69.5801 68.3152V67.7729L69.3087 67.5018C69.3087 66.9596 69.3087 66.6885 69.3087 66.1464L69.5801 65.8753C69.3087 65.3332 69.3087 64.791 69.3087 64.2489H69.0374L68.7661 63.9775V63.7065L69.0374 63.4355H68.7661V63.1644L68.4948 63.4355H68.2232V63.1644L68.4948 62.8934L68.2232 62.622V62.351L67.9518 61.809V61.5379H67.6805L67.4092 61.2666L67.6805 60.7245H67.4092L67.1379 60.4535V60.1825H67.4092L67.6805 59.9111L67.4092 59.6401V59.3691L66.8663 58.827H66.5949L66.8663 58.5557V58.2846L67.4092 58.0136L67.1379 57.7426L66.8663 58.0136H66.5949V57.4716H66.3236L66.5949 57.2002L66.3236 56.9292H66.0523L65.781 56.6582H65.5094V55.5737L65.238 55.3027L65.5094 55.0317L64.9667 54.4893V54.2183C64.6954 54.2183 64.1525 53.9473 63.8811 53.6762V53.4052H64.1525V53.1338H63.8811V52.8628L62.7956 50.9653L62.2529 50.6943L61.9816 50.1519H61.4387C61.1673 49.6097 60.8962 49.3386 60.3534 48.7965L59.2678 48.5254L58.9965 48.2544H58.4535C58.1822 47.7122 57.6394 47.4411 57.0966 47.17V46.8989C56.8253 46.6278 56.5538 46.3566 56.0111 46.3566C56.0111 68.5861 56.0111 90.5445 56.0111 112.774H55.7397L55.1971 113.045L54.6542 112.774C54.1114 113.045 53.5687 113.587 53.0259 114.129H52.7546L52.212 113.858H51.9404V114.129L51.669 114.401H51.1264V114.672L50.8551 114.401H50.5835L50.0408 114.672H49.7695C49.4981 115.214 48.9554 115.756 48.4126 116.298V117.383L47.8697 117.925H47.5983L47.327 118.196H46.7844L46.5128 118.467H46.2414L45.9701 118.196H44.8845V118.467C44.8845 118.738 44.6133 119.28 44.3419 119.551C44.3419 120.093 44.3418 120.365 44.6132 120.907L45.1559 121.178V121.449H44.0706C43.5278 121.991 42.9848 122.533 42.4421 122.805H41.8994V122.534L41.3568 122.262H40.2712V121.991L39.7283 121.449V121.178C38.6427 121.178 37.286 120.907 36.2005 120.907L35.6576 120.636H35.3862L35.1149 120.907H34.0293L33.4867 121.178C32.1298 121.449 31.0442 121.72 29.6873 121.72L29.416 121.449C28.6019 121.449 27.5164 121.72 26.7022 121.991H26.4309L26.1593 121.72H25.8879C24.8024 121.178 23.717 120.636 22.9028 119.823H22.3602V119.551C21.5461 119.551 20.7318 119.28 20.189 119.28L19.6464 119.009L19.3748 119.28H19.1034L18.8321 119.551H17.7465L17.2039 119.28V117.925H16.661V118.196L15.5757 117.925L15.3041 118.196H15.0327L14.4901 118.467L14.2188 118.196V116.569L14.4901 116.027H14.2188V115.756H13.6758V114.672H13.4045L13.1332 114.401V113.858L13.6758 113.316H13.9472V113.045L14.2188 112.503V111.961L13.6758 111.418V111.147L13.4045 110.876V110.334H13.1332V110.063H12.8619L12.5903 110.334H12.0476L11.7763 110.605H11.505C11.2336 110.334 10.962 110.063 10.962 109.521L11.2334 108.166C10.6906 107.894 10.4192 107.623 9.87646 107.081V106.81L9.60514 106.539H9.33383L9.06252 106.268L8.7912 106.539H8.51956L8.24824 106.81V107.081L7.97693 106.81H7.70562V107.081H7.16266V106.81H6.89134V107.081L6.34872 107.623L6.62003 107.895L6.34872 108.166L6.62003 108.437V108.708H6.34872L6.0774 108.437H5.80576V108.708L6.0774 108.979V109.25H5.53444V110.334H5.26313L4.99182 110.063L4.7205 110.334V110.605L4.99182 110.876V111.147L5.26313 111.418V111.961L4.99182 112.232V113.316L3.90623 114.401H3.63492L3.3636 113.858H3.09196C2.5492 114.129 2.27808 114.672 2.0067 115.214L0.378158 115.756C-0.164602 116.841 -0.164337 117.111 0.649803 117.925C1.19256 119.009 3.63485 123.889 5.26313 124.973C6.07727 127.142 7.16266 130.124 8.51956 132.022C9.87646 138.799 12.8619 146.389 15.5757 152.625C19.1036 159.402 25.3451 169.161 28.8731 173.498C31.3155 177.836 34.8434 196.27 24.8024 192.746C23.9882 191.662 24.8024 194.644 23.4455 194.373C23.4455 195.457 23.9884 197.083 23.9884 198.981C26.7022 196.541 25.8879 200.066 27.5162 201.692C27.5162 203.319 26.1595 199.523 25.3453 199.523C24.5312 201.421 28.3304 201.963 28.6017 204.674C27.7876 205.758 32.944 207.385 30.7729 208.74C32.6726 209.283 32.944 211.18 33.4867 212.807C35.115 214.975 33.7581 215.247 32.1298 215.518C32.1298 217.415 30.5016 217.415 31.8585 218.5C32.4013 219.584 30.5013 219.584 31.5869 220.397C32.6724 220.94 32.1299 223.108 33.2154 223.65C35.1151 221.482 30.23 217.415 39.4569 218.771C39.7283 219.584 41.0854 220.126 39.9999 220.397C39.1858 221.211 41.3565 222.024 39.7283 222.566C38.3714 226.632 45.9701 221.753 44.6132 224.193C45.156 224.193 44.8847 225.277 45.6988 225.277C46.2416 224.464 46.2416 225.819 47.0557 225.548C48.4126 223.38 50.5837 228.259 48.4126 228.801C47.5985 229.886 50.3121 227.988 50.5835 229.072C50.3121 229.885 51.669 230.157 51.9404 229.615C52.7545 229.886 52.4831 230.97 53.2973 230.97C53.2973 232.597 56.8253 230.699 58.1822 232.054C60.896 233.681 60.3534 233.139 61.7103 230.97C65.781 229.615 70.1231 223.379 73.9224 226.09C75.2793 226.361 75.2793 224.735 73.9224 224.735C75.2793 223.379 79.0785 223.65 81.2495 225.006C83.6919 225.277 86.1343 223.108 89.6622 224.464C94.2757 223.922 91.2905 221.753 93.7329 221.211C95.0898 220.126 97.8038 221.753 95.6328 219.584C97.2611 216.331 102.689 219.584 102.96 216.602C104.317 217.415 106.759 217.144 107.845 217.958C109.202 217.958 112.187 219.042 111.373 217.958C110.83 217.958 110.559 217.958 110.83 217.415C111.101 217.415 111.916 218.5 111.916 217.687C111.644 219.042 114.629 218.5 117.615 219.042C115.986 216.331 121.414 216.873 123.042 216.873C126.57 217.957 130.641 218.229 134.44 219.042C135.797 220.94 142.582 221.211 141.767 220.397C144.481 213.349 150.18 218.771 156.15 217.958C150.723 208.469 167.82 214.704 172.162 211.451C175.147 209.825 179.218 209.283 181.389 206.843C196.857 197.084 209.341 186.511 219.111 174.041C231.594 166.721 237.564 154.522 245.163 141.781C248.42 133.919 258.732 121.178 263.888 120.907C274.472 111.961 273.929 93.7976 278 84.3094C262.26 84.5804 259.004 84.5807 255.747 84.5807Z" fill="#FFC01F"/>
    <path d="M115.324 131.71C115.278 131.252 115.083 130.896 114.739 130.642C114.394 130.388 113.926 130.261 113.335 130.261C112.934 130.261 112.595 130.318 112.318 130.432C112.042 130.542 111.83 130.695 111.682 130.892C111.538 131.089 111.466 131.312 111.466 131.562C111.458 131.771 111.502 131.953 111.597 132.108C111.695 132.263 111.83 132.398 112 132.511C112.17 132.621 112.367 132.718 112.591 132.801C112.814 132.881 113.053 132.949 113.307 133.006L114.352 133.256C114.86 133.369 115.326 133.521 115.75 133.71C116.174 133.9 116.542 134.133 116.852 134.409C117.163 134.686 117.403 135.011 117.574 135.386C117.748 135.761 117.837 136.191 117.841 136.676C117.837 137.388 117.655 138.006 117.295 138.528C116.939 139.047 116.424 139.451 115.75 139.739C115.08 140.023 114.271 140.165 113.324 140.165C112.384 140.165 111.566 140.021 110.869 139.733C110.176 139.445 109.634 139.019 109.244 138.455C108.858 137.886 108.655 137.184 108.636 136.347H111.017C111.044 136.737 111.155 137.062 111.352 137.324C111.553 137.581 111.82 137.777 112.153 137.909C112.491 138.038 112.871 138.102 113.295 138.102C113.712 138.102 114.074 138.042 114.381 137.92C114.691 137.799 114.932 137.631 115.102 137.415C115.273 137.199 115.358 136.951 115.358 136.67C115.358 136.409 115.28 136.189 115.125 136.011C114.973 135.833 114.75 135.682 114.455 135.557C114.163 135.432 113.805 135.318 113.381 135.216L112.114 134.898C111.133 134.659 110.358 134.286 109.79 133.778C109.222 133.271 108.939 132.587 108.943 131.727C108.939 131.023 109.127 130.407 109.506 129.881C109.888 129.354 110.413 128.943 111.08 128.648C111.746 128.352 112.504 128.205 113.352 128.205C114.216 128.205 114.97 128.352 115.614 128.648C116.261 128.943 116.765 129.354 117.125 129.881C117.485 130.407 117.67 131.017 117.682 131.71H115.324ZM123.393 140.17C122.511 140.17 121.748 139.983 121.104 139.608C120.464 139.229 119.969 138.703 119.621 138.028C119.272 137.35 119.098 136.564 119.098 135.67C119.098 134.769 119.272 133.981 119.621 133.307C119.969 132.629 120.464 132.102 121.104 131.727C121.748 131.348 122.511 131.159 123.393 131.159C124.276 131.159 125.037 131.348 125.678 131.727C126.321 132.102 126.818 132.629 127.166 133.307C127.515 133.981 127.689 134.769 127.689 135.67C127.689 136.564 127.515 137.35 127.166 138.028C126.818 138.703 126.321 139.229 125.678 139.608C125.037 139.983 124.276 140.17 123.393 140.17ZM123.405 138.295C123.806 138.295 124.142 138.182 124.411 137.955C124.679 137.723 124.882 137.409 125.018 137.011C125.159 136.614 125.229 136.161 125.229 135.653C125.229 135.146 125.159 134.693 125.018 134.295C124.882 133.898 124.679 133.583 124.411 133.352C124.142 133.121 123.806 133.006 123.405 133.006C123 133.006 122.659 133.121 122.382 133.352C122.109 133.583 121.903 133.898 121.763 134.295C121.626 134.693 121.558 135.146 121.558 135.653C121.558 136.161 121.626 136.614 121.763 137.011C121.903 137.409 122.109 137.723 122.382 137.955C122.659 138.182 123 138.295 123.405 138.295ZM134.859 136.284V131.273H137.28V140H134.956V138.415H134.865C134.668 138.926 134.34 139.337 133.882 139.648C133.428 139.958 132.873 140.114 132.217 140.114C131.634 140.114 131.121 139.981 130.678 139.716C130.234 139.451 129.888 139.074 129.638 138.585C129.392 138.097 129.267 137.511 129.263 136.83V131.273H131.683V136.398C131.687 136.913 131.825 137.32 132.098 137.619C132.371 137.919 132.736 138.068 133.195 138.068C133.486 138.068 133.759 138.002 134.013 137.869C134.267 137.733 134.471 137.532 134.626 137.267C134.786 137.002 134.863 136.674 134.859 136.284ZM143.858 131.273V133.091H138.602V131.273H143.858ZM139.795 129.182H142.216V137.318C142.216 137.542 142.25 137.716 142.318 137.841C142.386 137.962 142.481 138.047 142.602 138.097C142.727 138.146 142.871 138.17 143.034 138.17C143.148 138.17 143.261 138.161 143.375 138.142C143.489 138.119 143.576 138.102 143.636 138.091L144.017 139.892C143.896 139.93 143.725 139.973 143.506 140.023C143.286 140.076 143.019 140.108 142.705 140.119C142.121 140.142 141.61 140.064 141.17 139.886C140.735 139.708 140.396 139.432 140.153 139.057C139.911 138.682 139.792 138.208 139.795 137.636V129.182ZM148.043 134.955V140H145.622V128.364H147.974V132.812H148.077C148.274 132.297 148.592 131.894 149.031 131.602C149.471 131.307 150.022 131.159 150.685 131.159C151.291 131.159 151.819 131.292 152.27 131.557C152.724 131.818 153.077 132.195 153.327 132.688C153.58 133.176 153.705 133.761 153.702 134.443V140H151.281V134.875C151.285 134.337 151.149 133.919 150.872 133.619C150.599 133.32 150.217 133.17 149.724 133.17C149.395 133.17 149.103 133.241 148.849 133.381C148.599 133.521 148.402 133.725 148.259 133.994C148.118 134.259 148.046 134.58 148.043 134.955ZM161.361 140H158.724L162.741 128.364H165.912L169.923 140H167.287L164.372 131.023H164.281L161.361 140ZM161.196 135.426H167.423V137.347H161.196V135.426ZM175.815 131.273V133.091H170.429V131.273H175.815ZM171.662 140V130.642C171.662 130.009 171.785 129.485 172.031 129.068C172.281 128.652 172.622 128.339 173.054 128.131C173.486 127.922 173.976 127.818 174.526 127.818C174.897 127.818 175.236 127.847 175.543 127.903C175.853 127.96 176.084 128.011 176.236 128.057L175.804 129.875C175.709 129.845 175.592 129.816 175.452 129.79C175.315 129.763 175.175 129.75 175.031 129.75C174.675 129.75 174.427 129.833 174.287 130C174.147 130.163 174.077 130.392 174.077 130.688V140H171.662ZM177.294 140V131.273H179.641V132.795H179.732C179.891 132.254 180.158 131.845 180.533 131.568C180.908 131.288 181.339 131.148 181.828 131.148C181.949 131.148 182.08 131.155 182.22 131.17C182.36 131.186 182.483 131.206 182.589 131.233V133.381C182.476 133.347 182.319 133.316 182.118 133.29C181.917 133.263 181.733 133.25 181.567 133.25C181.211 133.25 180.893 133.328 180.612 133.483C180.336 133.634 180.116 133.847 179.953 134.119C179.794 134.392 179.714 134.706 179.714 135.062V140H177.294ZM183.841 140V131.273H186.261V140H183.841ZM185.057 130.148C184.697 130.148 184.388 130.028 184.131 129.79C183.877 129.547 183.75 129.258 183.75 128.92C183.75 128.587 183.877 128.301 184.131 128.062C184.388 127.82 184.697 127.699 185.057 127.699C185.417 127.699 185.723 127.82 185.977 128.062C186.235 128.301 186.364 128.587 186.364 128.92C186.364 129.258 186.235 129.547 185.977 129.79C185.723 130.028 185.417 130.148 185.057 130.148ZM192.143 140.17C191.25 140.17 190.481 139.981 189.837 139.602C189.196 139.22 188.704 138.689 188.359 138.011C188.018 137.333 187.848 136.553 187.848 135.67C187.848 134.777 188.02 133.992 188.365 133.318C188.714 132.64 189.208 132.112 189.848 131.733C190.488 131.35 191.25 131.159 192.132 131.159C192.893 131.159 193.56 131.297 194.132 131.574C194.704 131.85 195.157 132.239 195.49 132.739C195.823 133.239 196.007 133.826 196.041 134.5H193.757C193.693 134.064 193.522 133.714 193.246 133.449C192.973 133.18 192.615 133.045 192.172 133.045C191.797 133.045 191.469 133.148 191.189 133.352C190.912 133.553 190.696 133.847 190.541 134.233C190.386 134.619 190.308 135.087 190.308 135.636C190.308 136.193 190.384 136.667 190.536 137.057C190.691 137.447 190.909 137.744 191.189 137.949C191.469 138.153 191.797 138.256 192.172 138.256C192.448 138.256 192.696 138.199 192.916 138.085C193.14 137.972 193.323 137.807 193.467 137.591C193.615 137.371 193.712 137.108 193.757 136.801H196.041C196.003 137.468 195.821 138.055 195.496 138.562C195.174 139.066 194.729 139.46 194.161 139.744C193.592 140.028 192.92 140.17 192.143 140.17ZM200.08 140.165C199.523 140.165 199.027 140.068 198.591 139.875C198.155 139.678 197.811 139.388 197.557 139.006C197.307 138.619 197.182 138.138 197.182 137.562C197.182 137.078 197.271 136.67 197.449 136.341C197.627 136.011 197.869 135.746 198.176 135.545C198.483 135.345 198.831 135.193 199.222 135.091C199.616 134.989 200.028 134.917 200.46 134.875C200.968 134.822 201.377 134.773 201.688 134.727C201.998 134.678 202.223 134.606 202.364 134.511C202.504 134.417 202.574 134.277 202.574 134.091V134.057C202.574 133.697 202.46 133.419 202.233 133.222C202.009 133.025 201.691 132.926 201.278 132.926C200.843 132.926 200.496 133.023 200.239 133.216C199.981 133.405 199.811 133.644 199.727 133.932L197.489 133.75C197.602 133.22 197.826 132.761 198.159 132.375C198.492 131.985 198.922 131.686 199.449 131.477C199.979 131.265 200.593 131.159 201.29 131.159C201.775 131.159 202.239 131.216 202.682 131.33C203.129 131.443 203.525 131.619 203.869 131.858C204.218 132.097 204.492 132.403 204.693 132.778C204.894 133.15 204.994 133.595 204.994 134.114V140H202.699V138.79H202.631C202.491 139.062 202.303 139.303 202.068 139.511C201.833 139.716 201.551 139.877 201.222 139.994C200.892 140.108 200.511 140.165 200.08 140.165ZM200.773 138.494C201.129 138.494 201.443 138.424 201.716 138.284C201.989 138.14 202.203 137.947 202.358 137.705C202.513 137.462 202.591 137.187 202.591 136.881V135.955C202.515 136.004 202.411 136.049 202.278 136.091C202.15 136.129 202.004 136.165 201.841 136.199C201.678 136.229 201.515 136.258 201.352 136.284C201.189 136.307 201.042 136.328 200.909 136.347C200.625 136.388 200.377 136.455 200.165 136.545C199.953 136.636 199.788 136.759 199.67 136.915C199.553 137.066 199.494 137.256 199.494 137.483C199.494 137.812 199.614 138.064 199.852 138.239C200.095 138.409 200.402 138.494 200.773 138.494Z" fill="#300038"/>
    <g clip-path="url(#clip0_562_31284)">
        <ellipse cx="157.146" cy="88.6935" rx="7.25" ry="7.25" fill="#FDD362"/>
        <path d="M171.807 87.1655C170.599 79.125 162.37 73.4951 154.451 75.3577C144.59 77.6766 140.002 88.2419 145.103 96.9868C147.053 100.332 149.121 103.611 151.175 106.897C153.226 110.181 155.324 113.432 157.442 116.761C157.655 116.51 157.804 116.371 157.911 116.203C161.951 109.737 166.018 103.284 170.016 96.7909C171.834 93.837 172.322 90.6079 171.807 87.1655ZM157.437 95.9625C153.92 95.903 151.11 93.0409 151.115 89.5241C151.12 85.923 153.952 83.1279 157.573 83.1453C161.105 83.1651 163.898 85.985 163.895 89.5365C163.895 93.0905 160.949 96.022 157.437 95.9625Z" fill="#300038"/>
    </g>
    <defs>
        <clipPath id="clip0_562_31284">
            <rect width="29" height="41.7602" fill="white" transform="translate(143 75)"/>
        </clipPath>
    </defs>
</svg>
    