<svg width="67" height="23" viewBox="0 0 67 23" fill="none" xmlns="http://www.w3.org/2000/svg">
    <path d="M63.0938 9.25922C64.7066 9.25922 66.0602 7.87682 66.0602 6.29282C66.0602 4.68002 64.7066 3.35522 63.0938 3.35522C61.481 3.35522 60.1562 4.68002 60.1562 6.29282C60.1562 7.87682 61.481 9.25922 63.0938 9.25922Z" fill="#212B36" />
    <path d="M6.96921 22.0001V11.3729H10.0796V7.68646H6.96921V6.59206C6.96921 5.00806 8.06361 4.66246 8.84121 4.66246C9.53241 4.66246 9.90681 4.74886 10.1372 4.80646V1.23526C9.73401 1.03366 8.95641 0.918457 8.06361 0.918457C4.57881 0.918457 2.59161 3.16486 2.59161 6.44806V7.68646H0.316406V11.3729H2.59161V22.0001H6.96921ZM6.96921 22.0001V11.3729H12.2108V22.0001H16.6172V1.14886H12.2108V7.68646H6.96921V6.44806C6.96921 5.00806 8.09241 4.66246 8.84121 4.66246C9.47481 4.66246 9.87801 4.74886 10.0796 4.80646V1.23526C9.67641 1.03366 8.78361 0.918457 8.06361 0.918457C4.57881 0.918457 2.59161 3.16486 2.59161 6.44806V7.68646H0.316406V11.3729H2.59161V22.0001H6.96921ZM25.6508 22.4321C29.942 22.4321 33.254 19.2641 33.254 14.8289C33.254 10.3937 29.942 7.25446 25.6508 7.25446C21.3884 7.25446 18.0476 10.3937 18.0476 14.8289C18.0476 19.2641 21.3884 22.4321 25.6508 22.4321ZM25.6508 18.4001C24.0092 18.4001 22.4252 17.2193 22.4252 14.8289C22.4252 12.4097 24.0092 11.2865 25.6508 11.2865C27.3212 11.2865 28.8764 12.4097 28.8764 14.8289C28.8764 17.2481 27.3212 18.4001 25.6508 18.4001ZM38.774 22.4033C40.6748 22.4033 42.0572 21.5969 42.806 20.3873C42.806 21.3665 42.9212 21.8849 42.95 22.0001H46.8956L46.8799 21.9095C46.8331 21.6158 46.7228 20.7653 46.7228 19.7825V12.7841C46.7228 9.84646 45.0236 7.25446 40.3868 7.25446C36.182 7.25446 34.2812 9.96166 34.1084 12.0065L37.91 12.7841C37.9964 11.7185 38.8316 10.6817 40.358 10.6817C41.7404 10.6817 42.4604 11.4017 42.4604 12.2369C42.4604 12.7265 42.2012 13.1009 41.4236 13.2161L38.054 13.7345C35.6924 14.0801 33.8204 15.5201 33.8204 18.0545C33.8204 20.3297 35.6348 22.4033 38.774 22.4033ZM39.8396 19.2353C38.63 19.2353 38.1404 18.5153 38.1404 17.7665C38.1404 16.7585 38.8316 16.3265 39.7532 16.1825L42.4604 15.7505V16.3841C42.4604 18.6017 41.1356 19.2353 39.8396 19.2353ZM54.5756 22.2593C55.958 22.2593 56.678 21.9425 56.8508 21.8561V18.2273C56.5916 18.2849 56.1596 18.3713 55.6988 18.3713C54.7484 18.3713 54.1148 18.0545 54.1148 16.8737V11.5169H56.9084V7.68646H54.1148V3.51046H50.198V5.35366C50.198 6.67846 49.478 7.68646 47.9804 7.68646H47.2604V11.5169H49.7948V17.6513C49.7948 20.5025 51.6092 22.2593 54.5756 22.2593Z" fill="#212B36" />
</svg>
    