<svg width="83" height="30" viewBox="0 0 83 30" fill="none" xmlns="http://www.w3.org/2000/svg">
    <path fill-rule="evenodd" clip-rule="evenodd" d="M0 14.1698C0 10.4022 3.05428 7.3479 6.82192 7.3479H11.7488C15.5165 7.3479 18.5707 10.4022 18.5707 14.1698V18.1493C18.5707 21.9169 15.5165 24.9712 11.7488 24.9712H7.20091V24.887L6.69441 26.6315L4.9199 26.1164C2.00516 25.2702 0 22.6001 0 19.565V14.1698ZM7.20091 24.4108V22.6972H11.7488C14.2606 22.6972 16.2968 20.6611 16.2968 18.1493V14.1698C16.2968 11.658 14.2606 9.6219 11.7488 9.6219H6.82192C4.31016 9.6219 2.27397 11.658 2.27397 14.1698V19.565C2.27397 21.5884 3.61074 23.3685 5.5539 23.9326L7.20091 24.4108Z" fill="#0F4B3D" />
    <path fill-rule="evenodd" clip-rule="evenodd" d="M4.92676 13.6015C4.92676 13.2875 5.18128 13.033 5.49525 13.033H8.90618C9.22018 13.033 9.47469 13.2875 9.47469 13.6015C9.47469 13.9155 9.22018 14.17 8.90618 14.17H5.49525C5.18128 14.17 4.92676 13.9155 4.92676 13.6015Z" fill="#0F4B3D" />
    <path fill-rule="evenodd" clip-rule="evenodd" d="M4.92676 15.4964C4.92676 15.1824 5.18128 14.9279 5.49525 14.9279H13.4541C13.7681 14.9279 14.0226 15.1824 14.0226 15.4964C14.0226 15.8104 13.7681 16.0649 13.4541 16.0649H5.49525C5.18128 16.0649 4.92676 15.8104 4.92676 15.4964Z" fill="#0F4B3D" />
    <path fill-rule="evenodd" clip-rule="evenodd" d="M4.92676 17.3912C4.92676 17.0773 5.18128 16.8228 5.49525 16.8228H13.4541C13.7681 16.8228 14.0226 17.0773 14.0226 17.3912C14.0226 17.7052 13.7681 17.9597 13.4541 17.9597H5.49525C5.18128 17.9597 4.92676 17.7052 4.92676 17.3912Z" fill="#0F4B3D" />
    <path fill-rule="evenodd" clip-rule="evenodd" d="M9.47461 19.2863C9.47461 18.9723 9.72912 18.7178 10.0431 18.7178H13.454C13.768 18.7178 14.0225 18.9723 14.0225 19.2863C14.0225 19.6002 13.768 19.8547 13.454 19.8547H10.0431C9.72912 19.8547 9.47461 19.6002 9.47461 19.2863Z" fill="#0F4B3D" />
    <path d="M28.4225 23.6548C26.2591 23.6548 24.4786 23.1574 23.0811 22.1625L24.0996 19.782C25.2208 20.6189 26.5631 21.0373 28.1264 21.0373C28.6555 21.0373 29.0779 20.9466 29.3937 20.765C29.7174 20.5833 29.8793 20.3505 29.8793 20.0662C29.8793 19.8214 29.7569 19.6201 29.5122 19.4622C29.2753 19.2964 28.9674 19.166 28.5884 19.0713C28.2094 18.9766 27.7909 18.8818 27.3329 18.7871C26.875 18.6844 26.417 18.5542 25.9591 18.3962C25.5011 18.2305 25.0827 18.0291 24.7037 17.7922C24.3247 17.5475 24.0127 17.2079 23.768 16.7737C23.5311 16.3315 23.4088 15.8143 23.4009 15.2222C23.3851 14.101 23.8272 13.1613 24.7273 12.4034C25.6274 11.6454 26.7763 11.2664 28.1738 11.2664C30.0609 11.2664 31.573 11.7204 32.7099 12.6284L31.7387 15.1037C31.265 14.7484 30.6847 14.4523 29.9977 14.2154C29.3187 13.9785 28.6634 13.8602 28.0317 13.8602C27.5974 13.8602 27.2461 13.9509 26.9776 14.1325C26.7092 14.3141 26.575 14.5391 26.575 14.8076C26.575 15.0129 26.6697 15.1945 26.8592 15.3525C27.0487 15.5025 27.2934 15.6248 27.5935 15.7196C27.9014 15.8143 28.2489 15.9209 28.6357 16.0394C29.0305 16.1499 29.4292 16.2604 29.8319 16.371C30.2346 16.4815 30.6294 16.6355 31.0163 16.8329C31.4111 17.0303 31.7625 17.2553 32.0703 17.508C32.3783 17.7527 32.6271 18.0765 32.8165 18.4792C33.0139 18.8818 33.1165 19.3398 33.1244 19.853C33.1244 20.9584 32.6823 21.8704 31.798 22.5889C30.9215 23.2995 29.7964 23.6548 28.4225 23.6548ZM41.1312 11.2664C42.6314 11.2664 43.8118 11.752 44.6725 12.7232C45.541 13.6864 45.9752 15.005 45.9752 16.6789V23.418H42.5525V17.2593C42.5525 16.446 42.3471 15.8104 41.9366 15.3525C41.526 14.8945 40.9654 14.6655 40.2548 14.6655C39.781 14.6655 39.331 14.7879 38.9046 15.0326C38.4862 15.2695 38.1506 15.5893 37.8979 15.992V23.418H34.4751V6.4342H37.8979V12.889C38.2374 12.3915 38.6954 11.9968 39.2718 11.7046C39.8481 11.4125 40.468 11.2664 41.1312 11.2664ZM56.481 11.5033H59.9038V23.418H56.481V22.0085C56.1888 22.4981 55.7151 22.8968 55.0598 23.2047C54.4123 23.5048 53.7136 23.6548 52.9635 23.6548C51.9449 23.6548 51.0092 23.3785 50.1565 22.8257C49.3038 22.273 48.6326 21.5229 48.1431 20.5755C47.6536 19.6201 47.4088 18.5778 47.4088 17.4487C47.4088 15.7275 47.9457 14.2668 49.0196 13.0666C50.1013 11.8665 51.4159 11.2664 52.9635 11.2664C53.7056 11.2664 54.4044 11.4204 55.0598 11.7283C55.7151 12.0363 56.1888 12.431 56.481 12.9127V11.5033ZM53.7215 20.4097C54.2978 20.4097 54.8348 20.2715 55.3321 19.9951C55.8375 19.7188 56.2205 19.3635 56.481 18.9292V16.0157C56.2205 15.5656 55.8375 15.1985 55.3321 14.9142C54.8348 14.63 54.2978 14.4879 53.7215 14.4879C52.8845 14.4879 52.1818 14.7721 51.6133 15.3406C51.0448 15.9012 50.7605 16.6039 50.7605 17.4487C50.7605 18.2936 51.0448 19.0003 51.6133 19.5688C52.1818 20.1294 52.8845 20.4097 53.7215 20.4097ZM68.1 11.2664C68.708 11.2664 69.1936 11.3374 69.5568 11.4795L69.3555 14.6892C68.8501 14.5076 68.3409 14.4168 67.8277 14.4168C67.4013 14.4168 66.9275 14.5826 66.4064 14.9142C65.8932 15.238 65.5024 15.6722 65.2339 16.217V23.418H61.8111V11.5033H65.2339V12.9127C65.5103 12.4231 65.9248 12.0284 66.4775 11.7283C67.0381 11.4204 67.5789 11.2664 68.1 11.2664ZM78.3929 11.5033H81.8153V23.418H78.3929V22.0085C78.1005 22.4981 77.6266 22.8968 76.9714 23.2047C76.3239 23.5048 75.6252 23.6548 74.8751 23.6548C73.8565 23.6548 72.9208 23.3785 72.0681 22.8257C71.2154 22.273 70.5443 21.5229 70.0547 20.5755C69.5652 19.6201 69.3204 18.5778 69.3204 17.4487C69.3204 15.7275 69.8573 14.2668 70.9312 13.0666C72.0129 11.8665 73.3275 11.2664 74.8751 11.2664C75.6173 11.2664 76.316 11.4204 76.9714 11.7283C77.6266 12.0363 78.1005 12.431 78.3929 12.9127V11.5033ZM75.6331 20.4097C76.2094 20.4097 76.7464 20.2715 77.2437 19.9951C77.7491 19.7188 78.1323 19.3635 78.3929 18.9292V16.0157C78.1323 15.5656 77.7491 15.1985 77.2437 14.9142C76.7464 14.63 76.2094 14.4879 75.6331 14.4879C74.7961 14.4879 74.0934 14.7721 73.5249 15.3406C72.9564 15.9012 72.6722 16.6039 72.6722 17.4487C72.6722 18.2936 72.9564 19.0003 73.5249 19.5688C74.0934 20.1294 74.7961 20.4097 75.6331 20.4097Z" fill="#0F4B3D" />
</svg>
    